<?xml version="1.0" encoding="utf-8" standalone="no"?>
<!DOCTYPE svg PUBLIC "-//W3C//DTD SVG 1.1//EN"
  "http://www.w3.org/Graphics/SVG/1.1/DTD/svg11.dtd">
<svg xmlns:xlink="http://www.w3.org/1999/xlink" width="273.6pt" height="489.6pt" viewBox="0 0 273.6 489.6" xmlns="http://www.w3.org/2000/svg" version="1.1">
 <metadata>
  <rdf:RDF xmlns:dc="http://purl.org/dc/elements/1.1/" xmlns:cc="http://creativecommons.org/ns#" xmlns:rdf="http://www.w3.org/1999/02/22-rdf-syntax-ns#">
   <cc:Work>
    <dc:type rdf:resource="http://purl.org/dc/dcmitype/StillImage"/>
    <dc:format>image/svg+xml</dc:format>
    <dc:creator>
     <cc:Agent>
      <dc:title>Matplotlib v3.11.1, https://matplotlib.org/</dc:title>
     </cc:Agent>
    </dc:creator>
   </cc:Work>
  </rdf:RDF>
 </metadata>
 <defs>
  <style type="text/css">*{stroke-linejoin: round; stroke-linecap: butt}</style>
 </defs>
 <g id="figure_1">
  <g id="patch_1">
   <path d="M 0 489.6
L 273.6 489.6
L 273.6 0
L 0 0
z
" style="fill: #ffffff"/>
  </g>
  <g id="axes_1">
   <g id="patch_2">
    <path d="M 49.57224 224.439728
L 262.76352 224.439728
L 262.76352 59.231176
L 49.57224 59.231176
z
" style="fill: #ffffff"/>
   </g>
   <g id="matplotlib.axis_1">
    <g id="xtick_1">
     <g id="line2d_1"/>
     <g id="text_1">
      <!-- 2016.6 -->
      <g transform="translate(62.96421 238.631728) scale(0.12 -0.12)">
       <defs>
        <path id="AppleGothic-1a" d="M 1101 429
L 3942 429
L 3942 0
L 653 0
L 653 205
Q 653 1018 1344 1664
Q 1670 1894 1990 2124
Q 2310 2355 2637 2592
Q 3334 3098 3334 3597
Q 3334 3994 3014 4218
Q 2867 4326 2694 4377
Q 2522 4429 2317 4429
Q 2016 4429 1741 4352
Q 1325 4224 883 3910
L 883 4435
Q 1325 4659 1667 4758
Q 2010 4858 2317 4858
Q 2963 4858 3405 4525
Q 3840 4198 3840 3622
Q 3840 2995 3168 2438
Q 2848 2214 2531 2000
Q 2214 1786 1894 1562
Q 1178 1024 1101 429
z
" transform="scale(0.015625)"/>
        <path id="AppleGothic-18" d="M 2227 -83
Q 1414 -83 934 576
Q 461 1229 461 2387
Q 461 3552 973 4218
Q 1453 4858 2221 4858
Q 3027 4858 3482 4173
Q 3955 3494 3955 2394
Q 3955 1248 3462 582
Q 2976 -83 2227 -83
z
M 2176 346
Q 2861 346 3200 992
Q 3462 1536 3462 2400
Q 3462 3315 3162 3859
Q 2822 4429 2214 4429
Q 1574 4429 1248 3821
Q 960 3283 960 2374
Q 960 1478 1248 941
Q 1574 346 2176 346
z
" transform="scale(0.015625)"/>
        <path id="AppleGothic-19" d="M 2342 4774
L 2752 4774
L 2752 0
L 2285 0
L 2285 3526
L 1158 3526
L 1158 3885
L 1414 3885
Q 1990 3885 2214 4205
Q 2342 4410 2342 4774
z
" transform="scale(0.015625)"/>
        <path id="AppleGothic-1e" d="M 3699 4557
L 3699 4013
Q 3584 4102 3475 4163
Q 3366 4224 3258 4275
Q 3085 4358 2918 4393
Q 2752 4429 2586 4429
Q 2470 4429 2352 4409
Q 2234 4390 2118 4339
Q 1670 4154 1395 3738
Q 1011 3149 1011 2189
Q 1312 2490 1568 2656
Q 2022 2931 2534 2931
Q 3162 2931 3584 2566
Q 4038 2163 4038 1491
Q 4038 806 3558 358
Q 3078 -83 2394 -83
Q 1670 -83 1146 454
Q 518 1088 518 2253
Q 518 3411 1120 4134
Q 1715 4858 2605 4858
Q 2938 4858 3226 4762
Q 3309 4730 3427 4682
Q 3546 4634 3699 4557
z
M 1062 1702
Q 1152 1152 1498 768
Q 1882 346 2419 346
Q 2899 346 3213 659
Q 3539 973 3539 1459
Q 3539 1920 3226 2214
Q 2918 2502 2496 2502
Q 1990 2502 1542 2176
Q 1414 2080 1292 1965
Q 1171 1850 1062 1702
z
" transform="scale(0.015625)"/>
        <path id="AppleGothic-16" d="M 915 -19
Q 762 -19 653 109
Q 544 237 544 422
Q 544 614 656 745
Q 768 877 915 877
Q 1056 877 1168 758
Q 1280 640 1280 435
Q 1280 243 1171 112
Q 1062 -19 915 -19
z
" transform="scale(0.015625)"/>
       </defs>
       <use xlink:href="#AppleGothic-1a"/>
       <use xlink:href="#AppleGothic-18" transform="translate(68 0)"/>
       <use xlink:href="#AppleGothic-19" transform="translate(136 0)"/>
       <use xlink:href="#AppleGothic-1e" transform="translate(204 0)"/>
       <use xlink:href="#AppleGothic-16" transform="translate(272 0)"/>
       <use xlink:href="#AppleGothic-1e" transform="translate(306.5 0)"/>
      </g>
     </g>
    </g>
    <g id="xtick_2">
     <g id="line2d_2"/>
     <g id="text_2">
      <!-- 2021.6 -->
      <g transform="translate(133.69788 238.631728) scale(0.12 -0.12)">
       <use xlink:href="#AppleGothic-1a"/>
       <use xlink:href="#AppleGothic-18" transform="translate(68 0)"/>
       <use xlink:href="#AppleGothic-1a" transform="translate(136 0)"/>
       <use xlink:href="#AppleGothic-19" transform="translate(204 0)"/>
       <use xlink:href="#AppleGothic-16" transform="translate(272 0)"/>
       <use xlink:href="#AppleGothic-1e" transform="translate(306.5 0)"/>
      </g>
     </g>
    </g>
    <g id="xtick_3">
     <g id="line2d_3"/>
     <g id="text_3">
      <!-- 2026.6 -->
      <g transform="translate(204.43155 238.631728) scale(0.12 -0.12)">
       <use xlink:href="#AppleGothic-1a"/>
       <use xlink:href="#AppleGothic-18" transform="translate(68 0)"/>
       <use xlink:href="#AppleGothic-1a" transform="translate(136 0)"/>
       <use xlink:href="#AppleGothic-1e" transform="translate(204 0)"/>
       <use xlink:href="#AppleGothic-16" transform="translate(272 0)"/>
       <use xlink:href="#AppleGothic-1e" transform="translate(306.5 0)"/>
      </g>
     </g>
    </g>
   </g>
   <g id="matplotlib.axis_2">
    <g id="ytick_1">
     <g id="line2d_4">
      <path d="M 49.57224 224.439728
L 262.76352 224.439728
" clip-path="url(#pd1fbf268c8)" style="fill: none; stroke: #e5eaed; stroke-width: 0.8; stroke-linecap: square"/>
     </g>
     <g id="line2d_5"/>
     <g id="text_4">
      <!-- 0 -->
      <g transform="translate(37.91224 229.785728) scale(0.12 -0.12)">
       <use xlink:href="#AppleGothic-18"/>
      </g>
     </g>
    </g>
    <g id="ytick_2">
     <g id="line2d_6">
      <path d="M 49.57224 187.562819
L 262.76352 187.562819
" clip-path="url(#pd1fbf268c8)" style="fill: none; stroke: #e5eaed; stroke-width: 0.8; stroke-linecap: square"/>
     </g>
     <g id="line2d_7"/>
     <g id="text_5">
      <!-- 25 -->
      <g transform="translate(29.75224 192.908819) scale(0.12 -0.12)">
       <defs>
        <path id="AppleGothic-1d" d="M 621 4768
L 3488 4768
L 3488 4339
L 1088 4339
L 1088 2707
Q 1184 2771 1293 2819
Q 1402 2867 1510 2912
Q 1862 3040 2259 3040
Q 2989 3040 3424 2605
Q 3827 2202 3827 1581
Q 3827 870 3296 397
Q 2765 -83 2010 -83
Q 1651 -83 1248 45
Q 1158 77 1001 137
Q 845 198 621 301
L 621 838
Q 928 640 1203 525
Q 1408 435 1613 390
Q 1818 346 2010 346
Q 2528 346 2906 666
Q 3322 1011 3322 1536
Q 3322 1990 3021 2291
Q 2701 2611 2144 2611
Q 1856 2611 1587 2528
Q 1318 2445 1088 2272
L 621 2272
L 621 4768
z
" transform="scale(0.015625)"/>
       </defs>
       <use xlink:href="#AppleGothic-1a"/>
       <use xlink:href="#AppleGothic-1d" transform="translate(68 0)"/>
      </g>
     </g>
    </g>
    <g id="ytick_3">
     <g id="line2d_8">
      <path d="M 49.57224 150.68591
L 262.76352 150.68591
" clip-path="url(#pd1fbf268c8)" style="fill: none; stroke: #e5eaed; stroke-width: 0.8; stroke-linecap: square"/>
     </g>
     <g id="line2d_9"/>
     <g id="text_6">
      <!-- 50 -->
      <g transform="translate(29.75224 156.03191) scale(0.12 -0.12)">
       <use xlink:href="#AppleGothic-1d"/>
       <use xlink:href="#AppleGothic-18" transform="translate(68 0)"/>
      </g>
     </g>
    </g>
    <g id="ytick_4">
     <g id="line2d_10">
      <path d="M 49.57224 113.809001
L 262.76352 113.809001
" clip-path="url(#pd1fbf268c8)" style="fill: none; stroke: #e5eaed; stroke-width: 0.8; stroke-linecap: square"/>
     </g>
     <g id="line2d_11"/>
     <g id="text_7">
      <!-- 75 -->
      <g transform="translate(29.75224 119.155001) scale(0.12 -0.12)">
       <defs>
        <path id="AppleGothic-1f" d="M 595 4774
L 3802 4774
L 3802 4410
L 1734 0
L 1235 0
L 3277 4352
L 595 4352
L 595 4774
z
" transform="scale(0.015625)"/>
       </defs>
       <use xlink:href="#AppleGothic-1f"/>
       <use xlink:href="#AppleGothic-1d" transform="translate(68 0)"/>
      </g>
     </g>
    </g>
    <g id="ytick_5">
     <g id="line2d_12">
      <path d="M 49.57224 76.932092
L 262.76352 76.932092
" clip-path="url(#pd1fbf268c8)" style="fill: none; stroke: #e5eaed; stroke-width: 0.8; stroke-linecap: square"/>
     </g>
     <g id="line2d_13"/>
     <g id="text_8">
      <!-- 100 -->
      <g transform="translate(21.59224 82.278092) scale(0.12 -0.12)">
       <use xlink:href="#AppleGothic-19"/>
       <use xlink:href="#AppleGothic-18" transform="translate(68 0)"/>
       <use xlink:href="#AppleGothic-18" transform="translate(136 0)"/>
      </g>
     </g>
    </g>
    <g id="text_9">
     <!-- 가격 지원 재고 중 (%) -->
     <g transform="translate(13.69224 203.515452) rotate(-90) scale(0.12 -0.12)">
      <defs>
       <path id="AppleGothic-a5b" d="M 6189 1965
L 5133 1965
L 5133 -538
L 4685 -538
L 4691 3232
Q 4691 3750 4691 4086
Q 4691 4422 4685 4576
Q 4678 4730 4675 4883
Q 4672 5037 4659 5190
L 4800 5190
Q 4966 5190 5065 5174
Q 5165 5158 5165 5094
Q 5165 5075 5149 4998
Q 5133 4922 5133 4890
L 5133 2355
L 6189 2368
L 6189 1965
z
M 3264 4205
Q 3264 3802 3162 3392
Q 3008 2733 2630 2131
Q 2253 1530 1728 1069
Q 1530 902 1331 764
Q 1133 627 928 512
Q 627 352 576 352
L 262 717
Q 301 717 570 845
Q 960 1030 1286 1280
Q 1760 1645 2106 2138
Q 2253 2349 2368 2569
Q 2483 2790 2573 3027
Q 2637 3194 2681 3350
Q 2726 3507 2752 3667
Q 2758 3738 2764 3802
Q 2771 3866 2784 3930
L 1690 3930
Q 1421 3930 1225 3930
Q 1030 3930 902 3923
Q 774 3917 675 3913
Q 576 3910 499 3904
L 499 4352
Q 704 4339 992 4326
Q 1280 4314 1702 4314
L 1843 4314
Q 2406 4314 2729 4320
Q 3053 4326 3258 4339
L 3264 4205
z
" transform="scale(0.015625)"/>
       <path id="AppleGothic-a97" d="M 5350 -480
L 4915 -506
L 4934 294
L 4922 1133
L 3392 1133
Q 3123 1133 2835 1129
Q 2547 1126 2265 1120
Q 1984 1114 1715 1107
Q 1446 1101 1210 1094
L 1210 1459
L 1741 1459
Q 2022 1459 2480 1462
Q 2938 1466 3578 1466
Q 4218 1472 4554 1475
Q 4890 1478 4934 1478
L 5338 1478
L 5350 -480
z
M 3552 4800
Q 3552 4570 3501 4333
Q 3418 3955 3200 3571
Q 2931 3098 2464 2694
Q 2272 2528 2057 2377
Q 1843 2227 1600 2099
Q 1299 1939 915 1792
Q 646 1702 640 1702
L 307 2029
L 326 2042
Q 390 2042 621 2106
Q 979 2208 1331 2368
Q 1824 2598 2201 2937
Q 2579 3277 2803 3667
Q 2982 3955 3059 4224
Q 3072 4346 3098 4448
L 666 4422
L 666 4800
Q 832 4794 1149 4784
Q 1466 4774 1818 4774
L 3552 4800
z
M 5370 5120
Q 5370 5114 5350 5030
Q 5331 4947 5331 4870
L 5338 1805
L 4922 1786
L 4928 2464
L 4339 2470
L 3699 2458
L 3699 2797
L 4928 2803
L 4928 3648
L 3693 3629
L 3693 3974
L 4352 3968
Q 4499 3968 4649 3974
Q 4800 3981 4922 3994
L 4928 4858
L 4915 5184
L 5267 5184
Q 5370 5184 5370 5120
z
" transform="scale(0.015625)"/>
       <path id="AppleGothic-3" transform="scale(0.015625)"/>
       <path id="AppleGothic-10ee" d="M 5453 5082
Q 5453 5069 5427 4982
Q 5402 4896 5402 4826
L 5402 2355
Q 5402 2067 5405 1728
Q 5408 1389 5414 986
Q 5421 589 5427 201
Q 5434 -186 5446 -570
L 4941 -595
L 4954 2253
Q 4954 3808 4934 4346
Q 4934 4614 4928 4822
Q 4922 5030 4915 5184
L 5082 5190
Q 5235 5190 5344 5168
Q 5453 5146 5453 5082
z
M 4211 1190
Q 4211 1146 4102 1075
Q 4070 1056 4025 1021
Q 3981 986 3923 934
L 3878 890
Q 3814 915 3683 1008
Q 3552 1101 3347 1267
Q 3194 1402 3066 1533
Q 2938 1664 2835 1792
Q 2752 1901 2669 2035
Q 2586 2170 2509 2336
Q 2483 2387 2451 2457
Q 2419 2528 2381 2618
Q 2099 2054 1715 1632
Q 1331 1210 794 858
Q 768 883 745 896
Q 723 909 710 922
Q 608 986 570 1005
Q 467 1043 428 1072
Q 390 1101 390 1120
L 486 1197
Q 608 1267 694 1324
Q 781 1382 851 1434
Q 1056 1581 1209 1721
Q 1363 1862 1478 2010
Q 1658 2227 1789 2441
Q 1920 2656 2010 2867
Q 2240 3373 2240 3859
Q 2240 3891 2240 3926
Q 2240 3962 2234 3994
Q 2234 4019 2227 4038
L 1466 4051
L 723 4032
L 723 4467
L 2317 4454
L 3910 4474
L 4064 4467
L 4064 4032
L 3942 4026
Q 3789 4026 3641 4032
Q 3494 4038 3354 4045
L 2707 4032
Q 2694 3949 2688 3891
Q 2682 3834 2675 3789
Q 2662 3648 2652 3552
Q 2643 3456 2643 3386
Q 2643 3085 2803 2729
Q 2963 2374 3232 2029
Q 3354 1882 3488 1750
Q 3622 1619 3770 1510
Q 3821 1478 3878 1440
Q 3936 1402 4013 1357
Q 4026 1350 4054 1328
Q 4083 1306 4134 1274
Q 4211 1222 4211 1190
z
" transform="scale(0.015625)"/>
       <path id="AppleGothic-1034" d="M 3533 3853
Q 3533 4141 3280 4307
Q 3027 4474 2554 4474
Q 2125 4474 1862 4352
Q 1530 4186 1530 3846
Q 1530 3571 1843 3392
Q 2125 3245 2541 3245
Q 2950 3245 3238 3398
Q 3533 3565 3533 3853
z
M 5600 -371
L 3725 -358
Q 3226 -358 2611 -364
Q 1997 -371 1357 -384
L 1376 448
Q 1376 608 1376 713
Q 1376 819 1370 870
Q 1370 922 1366 970
Q 1363 1018 1357 1062
Q 1510 1062 1696 1043
Q 1875 1024 1875 973
Q 1875 954 1846 877
Q 1818 800 1818 742
L 1818 -6
L 3725 -6
Q 4077 -6 4358 -3
Q 4640 0 4867 6
Q 5094 13 5273 19
Q 5453 26 5600 32
L 5600 -371
z
M 4538 2266
Q 4467 2253 4416 2249
Q 4365 2246 4314 2240
Q 4166 2227 4016 2217
Q 3866 2208 3712 2208
Q 3546 2208 3386 2198
Q 3226 2189 3059 2176
Q 2938 2163 2778 2138
L 2758 1594
L 2758 1126
Q 2765 1018 2778 934
L 2298 915
Q 2298 947 2298 1017
Q 2298 1088 2304 1203
Q 2310 1312 2313 1389
Q 2317 1466 2317 1504
L 2310 2112
Q 2291 2099 1837 2093
Q 1613 2086 1373 2083
Q 1133 2080 883 2080
Q 838 2080 764 2064
Q 691 2048 678 2048
Q 621 2048 608 2138
L 582 2470
Q 678 2477 764 2477
Q 851 2477 922 2477
Q 1408 2490 1801 2496
Q 2195 2502 2502 2502
Q 2867 2502 3225 2518
Q 3584 2534 3949 2566
Q 4070 2579 4211 2595
Q 4352 2611 4518 2637
L 4538 2266
z
M 5440 5094
Q 5440 5082 5437 5069
Q 5434 5056 5427 5030
Q 5395 4915 5395 4851
L 5389 2682
Q 5389 2285 5389 1981
Q 5389 1677 5395 1459
Q 5402 1242 5405 1040
Q 5408 838 5414 646
L 4941 621
L 4947 1466
L 4358 1485
Q 3872 1485 3693 1466
L 3693 1830
L 4371 1818
L 4960 1843
L 4960 3738
Q 4960 4096 4957 4342
Q 4954 4589 4947 4730
Q 4941 4877 4937 4989
Q 4934 5101 4922 5190
L 5030 5190
Q 5216 5190 5328 5174
Q 5440 5158 5440 5094
z
M 4000 3846
Q 4000 3405 3597 3149
Q 3194 2899 2560 2899
Q 1971 2899 1536 3136
Q 1069 3411 1069 3846
Q 1069 4326 1517 4602
Q 1920 4851 2522 4851
Q 3123 4851 3539 4602
Q 4000 4314 4000 3846
z
" transform="scale(0.015625)"/>
       <path id="AppleGothic-1081" d="M 5683 5075
Q 5683 5056 5657 4963
Q 5632 4870 5632 4794
Q 5632 4237 5632 3766
Q 5632 3296 5638 2906
Q 5651 2118 5658 1018
Q 5664 461 5667 77
Q 5670 -307 5670 -531
L 5197 -544
Q 5203 -474 5203 -362
Q 5203 -250 5203 -96
Q 5210 58 5210 192
Q 5210 326 5210 448
Q 5210 870 5210 1164
Q 5210 1459 5203 1626
Q 5203 1958 5184 2189
L 4448 2189
L 4467 -109
L 3994 -134
Q 4000 32 4000 278
Q 4000 525 4000 858
Q 4006 1184 4006 1513
Q 4006 1843 4006 2176
Q 4006 2822 4006 3260
Q 4006 3699 4000 3942
Q 3994 4435 3984 4742
Q 3974 5050 3968 5050
Q 4141 5050 4314 5030
Q 4486 5011 4486 4934
Q 4486 4922 4467 4842
Q 4448 4762 4448 4698
L 4442 3725
Q 4442 3354 4442 3072
Q 4442 2790 4454 2547
L 5197 2554
L 5184 4672
Q 5184 4813 5177 4944
Q 5171 5075 5158 5190
Q 5338 5190 5504 5171
Q 5683 5152 5683 5075
z
M 3578 1248
Q 3578 1229 3424 1088
Q 3354 1018 3309 976
Q 3264 934 3251 922
Q 3104 1024 3014 1120
Q 2707 1395 2483 1696
Q 2259 1997 2086 2426
Q 2074 2464 2058 2509
Q 2042 2554 2016 2611
Q 1978 2502 1939 2419
Q 1901 2336 1869 2266
Q 1664 1843 1440 1539
Q 1216 1235 934 966
Q 896 928 838 877
Q 781 826 710 768
Q 691 768 486 877
Q 294 979 294 1005
L 307 1037
Q 941 1414 1389 2291
Q 1824 3155 1824 3962
L 1818 4154
Q 1754 4160 1670 4160
Q 1587 4160 1472 4166
Q 1363 4173 1283 4173
Q 1203 4173 1158 4173
Q 915 4173 803 4169
Q 691 4166 582 4154
L 582 4576
Q 851 4557 1216 4550
Q 1581 4544 1978 4544
Q 2285 4544 2518 4547
Q 2752 4550 2912 4557
Q 3072 4563 3203 4569
Q 3334 4576 3430 4582
L 3430 4147
Q 3334 4160 3203 4166
Q 3072 4173 2906 4173
L 2285 4154
Q 2272 4096 2269 4013
Q 2266 3930 2266 3795
Q 2266 3475 2323 3148
Q 2381 2822 2534 2502
Q 2778 1984 3194 1581
Q 3264 1510 3350 1443
Q 3437 1376 3552 1293
L 3578 1248
z
" transform="scale(0.015625)"/>
       <path id="AppleGothic-aa7" d="M 6035 243
L 5485 243
L 4435 243
Q 4090 250 3718 250
Q 3347 250 2931 256
Q 2400 256 2032 256
Q 1664 256 1440 250
Q 998 243 739 233
Q 480 224 352 218
L 352 698
L 1606 666
L 2656 672
L 2656 2291
L 2637 2765
L 2669 2765
Q 2880 2765 3027 2742
Q 3174 2720 3174 2643
Q 3174 2598 3168 2579
Q 3136 2451 3136 2438
L 3123 1363
L 3136 666
L 6035 704
L 6035 243
z
M 5306 4608
Q 5306 3834 5219 3075
Q 5133 2317 4954 1459
L 4518 1523
Q 4544 1651 4563 1750
Q 4582 1850 4595 1933
Q 4646 2240 4684 2461
Q 4723 2682 4736 2829
Q 4755 2976 4771 3193
Q 4787 3411 4800 3699
Q 4806 3878 4819 4179
L 3642 4192
Q 3411 4192 3059 4185
Q 2707 4179 2234 4166
Q 1280 4147 947 4147
L 947 4589
L 2528 4576
L 5306 4608
z
" transform="scale(0.015625)"/>
       <path id="AppleGothic-10d7" d="M 4762 429
Q 4762 723 4352 883
Q 4122 973 3818 1017
Q 3514 1062 3136 1062
Q 2445 1062 2003 896
Q 1568 723 1568 435
Q 1568 166 1984 19
Q 2400 -128 3130 -128
Q 3437 -128 3683 -105
Q 3930 -83 4134 -38
Q 4762 109 4762 429
z
M 6010 2170
L 4755 2208
L 3373 2208
L 3373 1434
Q 4205 1434 4717 1184
Q 5235 934 5235 435
Q 5235 -26 4675 -259
Q 4115 -493 3136 -493
Q 2214 -493 1677 -269
Q 1101 -26 1101 435
Q 1101 1069 1914 1299
Q 2112 1363 2874 1434
L 2880 2208
L 1786 2208
Q 1446 2208 1075 2195
Q 704 2182 390 2170
L 390 2566
Q 403 2566 524 2563
Q 646 2560 877 2554
Q 1344 2547 1917 2540
Q 2490 2534 3168 2534
Q 3904 2534 4608 2540
Q 5312 2547 6010 2566
L 6010 2170
z
M 5568 3424
Q 5562 3411 5562 3404
Q 5562 3398 5555 3392
Q 5536 3360 5491 3328
Q 5446 3296 5376 3181
Q 5363 3168 5347 3139
Q 5331 3110 5306 3072
Q 5139 3091 5011 3113
Q 4883 3136 4774 3162
Q 4154 3328 3712 3648
Q 3584 3750 3478 3849
Q 3373 3949 3296 4058
Q 3270 4090 3244 4131
Q 3219 4173 3194 4224
Q 3168 4179 3145 4144
Q 3123 4109 3098 4077
Q 2822 3706 2310 3411
Q 1971 3226 1459 3117
Q 1370 3104 1261 3091
Q 1152 3078 1005 3066
Q 973 3098 953 3126
Q 934 3155 922 3174
Q 826 3290 774 3334
Q 755 3347 723 3392
Q 710 3405 704 3424
Q 730 3443 749 3443
L 909 3443
Q 1030 3456 1129 3465
Q 1229 3475 1306 3488
Q 1536 3533 1757 3606
Q 1978 3680 2182 3789
Q 2598 4006 2803 4378
Q 2861 4499 2912 4691
L 2445 4698
L 973 4666
L 973 5075
Q 1094 5069 1190 5069
Q 1286 5069 1370 5069
Q 1920 5056 2313 5049
Q 2707 5043 2950 5043
L 5312 5075
L 5312 4666
L 4307 4691
L 3392 4691
Q 3392 4544 3520 4368
Q 3648 4192 3872 4006
Q 4269 3693 4870 3552
Q 4966 3526 5097 3507
Q 5229 3488 5395 3462
Q 5568 3462 5568 3424
z
" transform="scale(0.015625)"/>
       <path id="AppleGothic-10" d="M 2227 5261
L 2650 5261
Q 2342 4768 2169 4473
Q 1997 4179 1958 4083
Q 1606 3283 1606 2272
Q 1606 1587 1754 1018
Q 1882 570 2138 102
Q 2150 70 2275 -131
Q 2400 -333 2630 -717
L 2227 -717
Q 2099 -531 1980 -355
Q 1862 -179 1734 0
Q 1581 243 1469 483
Q 1357 723 1274 954
Q 1069 1587 1069 2272
Q 1069 2963 1261 3558
Q 1338 3789 1450 4022
Q 1562 4256 1715 4499
Q 1843 4691 1971 4880
Q 2099 5069 2227 5261
z
" transform="scale(0.015625)"/>
       <path id="AppleGothic-d" d="M 4896 -45
Q 4320 -45 3949 339
Q 3590 717 3590 1274
Q 3590 1856 3962 2227
Q 4333 2598 4877 2598
Q 5402 2598 5779 2234
Q 6150 1869 6150 1286
Q 6150 691 5760 307
Q 5389 -45 4896 -45
z
M 4864 378
Q 5024 378 5168 442
Q 5312 506 5421 624
Q 5530 742 5594 905
Q 5658 1069 5658 1267
Q 5658 1658 5427 1920
Q 5190 2176 4883 2176
Q 4582 2176 4352 1958
Q 4090 1696 4090 1286
Q 4090 883 4320 634
Q 4550 378 4864 378
z
M 4557 5370
L 5030 5370
L 2016 -333
L 1549 -333
L 4045 4378
L 4026 4397
Q 3930 4333 3776 4278
Q 3622 4224 3456 4224
Q 3347 4224 3177 4259
Q 3008 4294 2835 4371
Q 2867 4301 2886 4240
Q 2906 4179 2918 4128
Q 2970 3936 2970 3750
Q 2970 3187 2598 2810
Q 2227 2438 1690 2438
Q 1146 2438 781 2810
Q 422 3187 422 3763
Q 422 4339 787 4717
Q 1158 5101 1690 5101
Q 1952 5101 2522 4870
Q 2803 4755 3024 4700
Q 3245 4646 3411 4646
Q 3802 4646 4077 4819
Q 4403 5018 4557 5370
z
M 1683 2854
Q 2003 2854 2240 3110
Q 2470 3366 2470 3770
Q 2470 3974 2406 4144
Q 2342 4314 2236 4432
Q 2131 4550 1990 4614
Q 1850 4678 1690 4678
Q 1530 4678 1392 4614
Q 1254 4550 1148 4432
Q 1043 4314 982 4144
Q 922 3974 922 3770
Q 922 3334 1171 3078
Q 1382 2854 1683 2854
z
" transform="scale(0.015625)"/>
       <path id="AppleGothic-11" d="M 2221 2272
Q 2221 1587 2016 960
Q 1862 499 1555 6
Q 1427 -179 1305 -355
Q 1184 -531 1062 -717
L 659 -717
Q 781 -512 902 -310
Q 1024 -109 1152 96
Q 1280 333 1376 557
Q 1472 781 1530 1005
Q 1683 1562 1683 2272
Q 1683 2650 1641 2973
Q 1600 3296 1517 3584
Q 1459 3802 1356 4029
Q 1254 4256 1120 4499
Q 992 4691 873 4880
Q 755 5069 640 5261
L 1062 5261
Q 1190 5069 1315 4880
Q 1440 4691 1568 4506
Q 1722 4256 1837 4022
Q 1952 3789 2022 3565
Q 2221 2976 2221 2272
z
" transform="scale(0.015625)"/>
      </defs>
      <use xlink:href="#AppleGothic-a5b"/>
      <use xlink:href="#AppleGothic-a97" transform="translate(100 0)"/>
      <use xlink:href="#AppleGothic-3" transform="translate(200 0)"/>
      <use xlink:href="#AppleGothic-10ee" transform="translate(232 0)"/>
      <use xlink:href="#AppleGothic-1034" transform="translate(332 0)"/>
      <use xlink:href="#AppleGothic-3" transform="translate(432 0)"/>
      <use xlink:href="#AppleGothic-1081" transform="translate(464 0)"/>
      <use xlink:href="#AppleGothic-aa7" transform="translate(564 0)"/>
      <use xlink:href="#AppleGothic-3" transform="translate(664 0)"/>
      <use xlink:href="#AppleGothic-10d7" transform="translate(696 0)"/>
      <use xlink:href="#AppleGothic-3" transform="translate(796 0)"/>
      <use xlink:href="#AppleGothic-10" transform="translate(828 0)"/>
      <use xlink:href="#AppleGothic-d" transform="translate(878 0)"/>
      <use xlink:href="#AppleGothic-11" transform="translate(978 0)"/>
     </g>
    </g>
   </g>
   <g id="patch_3">
    <path d="M 59.262753 224.439728
L 84.726874 224.439728
L 84.726874 121.227784
L 59.262753 121.227784
z
" clip-path="url(#pd1fbf268c8)" style="fill: #103d68"/>
   </g>
   <g id="patch_4">
    <path d="M 129.996422 224.439728
L 155.460543 224.439728
L 155.460543 207.165762
L 129.996422 207.165762
z
" clip-path="url(#pd1fbf268c8)" style="fill: #103d68"/>
   </g>
   <g id="patch_5">
    <path d="M 200.730092 224.439728
L 226.194213 224.439728
L 226.194213 208.247879
L 200.730092 208.247879
z
" clip-path="url(#pd1fbf268c8)" style="fill: #103d68"/>
   </g>
   <g id="patch_6">
    <path d="M 86.141547 224.439728
L 111.605668 224.439728
L 111.605668 95.534835
L 86.141547 95.534835
z
" clip-path="url(#pd1fbf268c8)" style="fill: url(#h8a457d052b)"/>
   </g>
   <g id="patch_7">
    <path d="M 156.875217 224.439728
L 182.339338 224.439728
L 182.339338 168.326842
L 156.875217 168.326842
z
" clip-path="url(#pd1fbf268c8)" style="fill: url(#h8a457d052b)"/>
   </g>
   <g id="patch_8">
    <path d="M 227.608886 224.439728
L 253.073007 224.439728
L 253.073007 179.86979
L 227.608886 179.86979
z
" clip-path="url(#pd1fbf268c8)" style="fill: url(#h8a457d052b)"/>
   </g>
   <g id="text_10">
    <!-- 70.0 -->
    <g transform="translate(57.684813 114.327784) scale(0.12 -0.12)">
     <use xlink:href="#AppleGothic-1f"/>
     <use xlink:href="#AppleGothic-18" transform="translate(68 0)"/>
     <use xlink:href="#AppleGothic-16" transform="translate(136 0)"/>
     <use xlink:href="#AppleGothic-18" transform="translate(170.5 0)"/>
    </g>
   </g>
   <g id="text_11">
    <!-- 11.7 -->
    <g transform="translate(128.418483 200.265762) scale(0.12 -0.12)">
     <use xlink:href="#AppleGothic-19"/>
     <use xlink:href="#AppleGothic-19" transform="translate(68 0)"/>
     <use xlink:href="#AppleGothic-16" transform="translate(136 0)"/>
     <use xlink:href="#AppleGothic-1f" transform="translate(170.5 0)"/>
    </g>
   </g>
   <g id="text_12">
    <!-- 11.0 -->
    <g transform="translate(199.152152 201.347879) scale(0.12 -0.12)">
     <use xlink:href="#AppleGothic-19"/>
     <use xlink:href="#AppleGothic-19" transform="translate(68 0)"/>
     <use xlink:href="#AppleGothic-16" transform="translate(136 0)"/>
     <use xlink:href="#AppleGothic-18" transform="translate(170.5 0)"/>
    </g>
   </g>
   <g id="text_13">
    <!-- 87.4 -->
    <g transform="translate(84.563608 81.634835) scale(0.12 -0.12)">
     <defs>
      <path id="AppleGothic-20" d="M 2957 2605
Q 3219 2528 3404 2445
Q 3590 2362 3706 2272
Q 4192 1926 4192 1370
Q 4192 749 3642 333
Q 3098 -83 2285 -83
Q 1434 -83 947 326
Q 512 691 512 1229
Q 512 1798 998 2125
Q 1146 2227 1341 2304
Q 1536 2381 1779 2451
Q 1574 2534 1430 2617
Q 1286 2701 1197 2784
Q 819 3104 819 3603
Q 819 4173 1261 4512
Q 1702 4858 2381 4858
Q 3014 4858 3437 4570
Q 3898 4262 3898 3738
Q 3898 3373 3670 3081
Q 3443 2790 2957 2605
z
M 2406 2752
Q 2624 2835 2781 2915
Q 2938 2995 3040 3066
Q 3398 3322 3398 3667
Q 3398 3994 3104 4205
Q 2822 4429 2362 4429
Q 1894 4429 1613 4205
Q 1325 3994 1325 3635
Q 1325 3322 1581 3098
Q 1696 3002 1901 2912
Q 2106 2822 2406 2752
z
M 2368 2304
Q 2061 2202 1840 2106
Q 1619 2010 1472 1920
Q 1011 1626 1011 1235
Q 1011 845 1376 595
Q 1728 346 2310 346
Q 2938 346 3315 640
Q 3693 934 3693 1338
Q 3693 1741 3238 1997
Q 3104 2067 2886 2147
Q 2669 2227 2368 2304
z
" transform="scale(0.015625)"/>
      <path id="AppleGothic-1c" d="M 2662 4774
L 3130 4774
L 3130 1811
L 4000 1811
L 4000 1382
L 3130 1382
L 3130 0
L 2662 0
L 2662 1382
L 352 1382
L 352 1811
L 2662 4774
z
M 2662 1811
L 2662 4166
L 838 1811
L 2662 1811
z
" transform="scale(0.015625)"/>
     </defs>
     <use xlink:href="#AppleGothic-20"/>
     <use xlink:href="#AppleGothic-1f" transform="translate(68 0)"/>
     <use xlink:href="#AppleGothic-16" transform="translate(136 0)"/>
     <use xlink:href="#AppleGothic-1c" transform="translate(170.5 0)"/>
    </g>
   </g>
   <g id="text_14">
    <!-- 38.0 -->
    <g transform="translate(155.297277 154.426842) scale(0.12 -0.12)">
     <defs>
      <path id="AppleGothic-1b" d="M 550 333
L 550 870
Q 883 621 1235 483
Q 1587 346 1971 346
Q 2522 346 2861 666
Q 3219 992 3219 1421
Q 3219 1869 2842 2099
Q 2515 2304 1965 2304
L 992 2304
L 992 2701
L 1658 2701
Q 2298 2701 2662 2928
Q 3027 3155 3027 3584
Q 3027 3936 2752 4173
Q 2458 4429 1978 4429
Q 1786 4429 1597 4393
Q 1408 4358 1222 4282
Q 890 4141 531 3872
L 531 4422
Q 736 4531 912 4608
Q 1088 4685 1254 4736
Q 1626 4858 2022 4858
Q 2650 4858 3066 4531
Q 3488 4211 3488 3642
Q 3488 3168 3168 2861
Q 2976 2675 2643 2554
Q 2874 2522 3053 2448
Q 3232 2374 3366 2266
Q 3718 1971 3718 1434
Q 3718 813 3219 365
Q 2714 -83 1965 -83
Q 1549 -83 1126 70
Q 1024 102 880 166
Q 736 230 550 333
z
" transform="scale(0.015625)"/>
     </defs>
     <use xlink:href="#AppleGothic-1b"/>
     <use xlink:href="#AppleGothic-20" transform="translate(68 0)"/>
     <use xlink:href="#AppleGothic-16" transform="translate(136 0)"/>
     <use xlink:href="#AppleGothic-18" transform="translate(170.5 0)"/>
    </g>
   </g>
   <g id="text_15">
    <!-- 30.2 -->
    <g transform="translate(226.030947 165.96979) scale(0.12 -0.12)">
     <use xlink:href="#AppleGothic-1b"/>
     <use xlink:href="#AppleGothic-18" transform="translate(68 0)"/>
     <use xlink:href="#AppleGothic-16" transform="translate(136 0)"/>
     <use xlink:href="#AppleGothic-1a" transform="translate(170.5 0)"/>
    </g>
   </g>
   <g id="text_16">
    <!-- 서울 25구 -->
    <g transform="translate(49.57224 49.231176) scale(0.13 -0.13)">
     <defs>
      <path id="AppleGothic-ecf" d="M 5434 5062
Q 5434 5037 5414 4969
Q 5395 4902 5395 4851
L 5376 2790
L 5395 -518
L 4909 -544
L 4934 2618
L 3539 2579
L 3539 3034
L 4928 3034
L 4934 4614
Q 4934 4781 4934 4883
Q 4934 4986 4928 5037
Q 4928 5088 4925 5123
Q 4922 5158 4915 5190
Q 4986 5190 5069 5184
Q 5152 5178 5242 5165
Q 5434 5133 5434 5062
z
M 3859 1178
Q 3859 1152 3808 1120
Q 3712 1056 3712 1056
Q 3661 1005 3565 928
Q 3565 928 3514 890
Q 3411 979 3315 1062
Q 3219 1146 3117 1235
Q 3008 1357 2899 1501
Q 2790 1645 2682 1818
Q 2618 1920 2557 2051
Q 2496 2182 2426 2349
Q 2355 2515 2307 2668
Q 2259 2822 2227 2963
Q 2195 2848 2170 2771
Q 1984 2291 1587 1754
Q 1485 1619 1369 1491
Q 1254 1363 1126 1235
Q 1018 1146 915 1056
Q 813 966 704 877
L 467 1037
L 358 1114
Q 358 1114 320 1139
L 346 1178
Q 378 1178 602 1357
Q 902 1600 1184 1952
Q 1376 2195 1533 2467
Q 1690 2739 1805 3040
Q 1978 3462 2054 4109
Q 2067 4218 2080 4352
Q 2093 4486 2106 4666
Q 2157 4666 2233 4653
Q 2310 4640 2419 4614
Q 2637 4563 2637 4506
Q 2637 4480 2601 4429
Q 2566 4378 2560 4352
Q 2541 4243 2531 4169
Q 2522 4096 2509 4045
Q 2445 3725 2445 3699
L 2554 3213
Q 2598 3040 2668 2838
Q 2739 2637 2844 2422
Q 2950 2208 3104 1981
Q 3258 1754 3469 1536
Q 3539 1466 3632 1382
Q 3725 1299 3846 1203
L 3859 1178
z
" transform="scale(0.015625)"/>
      <path id="AppleGothic-102b" d="M 4870 4166
Q 4870 4512 4326 4666
Q 3917 4787 3258 4787
L 3117 4787
Q 2490 4787 2157 4691
Q 1632 4557 1632 4160
Q 1658 3866 2144 3706
Q 2362 3635 2637 3603
Q 2912 3571 3251 3571
Q 4109 3571 4489 3708
Q 4870 3846 4870 4166
z
M 5952 2323
L 3424 2362
L 3418 2074
L 3430 1715
L 4218 1702
L 5165 1702
L 5152 1203
L 5171 595
L 3206 595
Q 2925 595 2713 595
Q 2502 595 2355 589
Q 2208 589 2070 585
Q 1933 582 1792 576
L 1792 13
Q 1901 6 2064 6
Q 2227 6 2438 0
Q 2650 -6 2816 -6
Q 2982 -6 3104 -6
L 3398 -6
Q 5210 32 5280 32
L 5280 -326
L 3405 -301
L 1325 -301
Q 1338 -237 1344 -144
Q 1350 -51 1350 128
L 1350 723
Q 1357 787 1357 835
Q 1357 883 1363 915
L 3200 896
L 4717 909
L 4717 1395
L 3283 1408
L 1344 1395
L 1344 1747
L 2099 1722
L 2976 1715
L 2995 2054
L 2982 2355
Q 2810 2355 2666 2355
Q 2522 2355 2413 2362
Q 1971 2374 1737 2380
Q 1504 2387 1466 2387
Q 1082 2387 854 2374
Q 627 2362 448 2342
L 448 2733
Q 506 2733 979 2714
Q 1222 2701 1494 2694
Q 1766 2688 2074 2682
Q 2381 2675 2646 2672
Q 2912 2669 3155 2669
L 5952 2682
L 5952 2323
z
M 5338 4166
Q 5338 3610 4678 3392
Q 4218 3238 3258 3238
Q 2803 3238 2454 3283
Q 2106 3328 1850 3418
Q 1210 3661 1210 4160
Q 1210 4730 1869 4960
Q 2349 5139 3251 5139
Q 4083 5139 4621 4954
Q 5338 4704 5338 4166
z
" transform="scale(0.015625)"/>
      <path id="AppleGothic-ad0" d="M 6048 2202
L 4672 2221
L 3405 2214
L 3398 915
L 3411 -486
L 2925 -518
Q 2938 -186 2944 214
Q 2950 614 2950 986
L 2944 2214
L 1600 2214
L 352 2182
L 352 2618
Q 794 2605 1328 2592
Q 1862 2579 2355 2579
L 2630 2579
L 3866 2579
Q 4141 2586 4346 2598
Q 4371 2701 4390 2774
Q 4410 2848 4422 2906
Q 4550 3360 4576 3469
Q 4640 3738 4730 4160
Q 4742 4224 4758 4304
Q 4774 4384 4794 4474
L 4454 4474
Q 3232 4493 3149 4493
L 1005 4461
L 1005 4890
Q 1331 4877 1740 4870
Q 2150 4864 2605 4864
L 5325 4877
Q 5312 4781 5299 4697
Q 5286 4614 5274 4544
Q 5203 4147 5062 3571
Q 5030 3430 4992 3280
Q 4954 3130 4909 2957
Q 4883 2867 4857 2780
Q 4832 2694 4806 2605
L 6048 2618
L 6048 2202
z
" transform="scale(0.015625)"/>
     </defs>
     <use xlink:href="#AppleGothic-ecf"/>
     <use xlink:href="#AppleGothic-102b" transform="translate(100 0)"/>
     <use xlink:href="#AppleGothic-3" transform="translate(200 0)"/>
     <use xlink:href="#AppleGothic-1a" transform="translate(232 0)"/>
     <use xlink:href="#AppleGothic-1d" transform="translate(300 0)"/>
     <use xlink:href="#AppleGothic-ad0" transform="translate(368 0)"/>
    </g>
   </g>
   <g id="legend_1">
    <g id="patch_9">
     <path d="M 46.72788 17.943926
L 70.72788 17.943926
L 70.72788 9.543926
L 46.72788 9.543926
z
" style="fill: #103d68"/>
    </g>
    <g id="text_17">
     <!-- 6억 원 이하 -->
     <g transform="translate(80.32788 17.943926) scale(0.12 -0.12)">
      <defs>
       <path id="AppleGothic-fcd" d="M 3174 3386
Q 3174 3821 2925 4064
Q 2650 4320 2131 4320
Q 1626 4320 1331 4032
Q 1056 3770 1056 3386
Q 1056 3034 1318 2784
Q 1606 2502 2138 2502
Q 2592 2502 2874 2758
Q 3174 3021 3174 3386
z
M 5395 -474
L 4909 -506
Q 4922 -358 4928 -192
Q 4934 -26 4934 147
Q 4934 378 4934 541
Q 4934 704 4928 806
Q 4928 902 4925 995
Q 4922 1088 4915 1178
L 4013 1184
L 1325 1146
L 1325 1523
Q 1453 1517 1632 1517
Q 1811 1517 2035 1510
Q 2272 1504 2435 1504
Q 2598 1504 2694 1504
Q 2931 1504 3312 1507
Q 3693 1510 4237 1517
Q 4781 1523 5065 1526
Q 5350 1530 5382 1530
L 5376 230
L 5376 -256
Q 5382 -365 5395 -474
z
M 3616 3386
Q 3616 2842 3187 2477
Q 2758 2118 2138 2118
Q 1466 2118 1037 2470
Q 621 2822 621 3392
Q 621 3974 1056 4333
Q 1491 4704 2125 4704
Q 2842 4704 3245 4320
Q 3616 3955 3616 3386
z
M 5440 5094
Q 5440 5075 5414 5001
Q 5389 4928 5389 4858
Q 5382 4794 5382 4694
Q 5382 4595 5376 4454
Q 5370 4320 5370 4198
Q 5370 4077 5370 3955
L 5389 1818
L 4934 1805
L 4941 2285
L 4941 3309
L 4416 3315
L 3840 3296
L 3840 3674
Q 3891 3667 3961 3667
Q 4032 3667 4128 3661
Q 4224 3654 4291 3654
Q 4358 3654 4397 3654
L 4934 3674
L 4928 4755
L 4902 5190
L 5043 5190
Q 5216 5190 5328 5171
Q 5440 5152 5440 5094
z
" transform="scale(0.015625)"/>
       <path id="AppleGothic-1066" d="M 3226 2534
Q 3226 3309 2899 3725
Q 2611 4090 2157 4090
Q 1683 4090 1414 3690
Q 1146 3290 1146 2534
Q 1146 1811 1440 1382
Q 1741 954 2240 954
Q 2758 954 3021 1446
Q 3226 1856 3226 2534
z
M 5446 5082
Q 5446 5062 5427 4982
Q 5408 4902 5408 4832
L 5434 -538
L 4941 -589
L 4960 2259
Q 4960 3552 4941 4070
Q 4934 4326 4931 4604
Q 4928 4883 4915 5190
L 5094 5197
Q 5242 5197 5344 5174
Q 5446 5152 5446 5082
z
M 3686 2547
Q 3686 2125 3612 1785
Q 3539 1446 3379 1203
Q 2995 582 2176 582
Q 1408 582 1018 1203
Q 678 1734 678 2560
Q 678 3379 1050 3898
Q 1453 4461 2170 4461
Q 2912 4461 3309 3910
Q 3686 3411 3686 2547
z
" transform="scale(0.015625)"/>
       <path id="AppleGothic-12fb" d="M 3283 1779
Q 3283 2125 3053 2317
Q 2797 2534 2323 2534
Q 1856 2534 1600 2285
Q 1376 2074 1376 1792
Q 1376 1485 1651 1248
Q 1920 1018 2330 1018
Q 2765 1018 3046 1267
Q 3283 1504 3283 1779
z
M 3757 1747
Q 3757 1242 3328 928
Q 2944 646 2387 646
Q 1734 646 1325 954
Q 922 1267 922 1811
Q 922 2368 1370 2656
Q 1754 2906 2317 2906
Q 2944 2906 3334 2624
Q 3757 2317 3757 1747
z
M 6061 2067
L 5114 2067
L 5126 -550
L 4640 -550
Q 4646 -422 4656 42
Q 4666 506 4666 1414
L 4666 5190
L 4730 5190
Q 4934 5190 5062 5168
Q 5190 5146 5190 5069
Q 5190 5030 5161 4947
Q 5133 4864 5133 4826
L 5120 2483
L 6061 2490
L 6061 2067
z
M 4166 3386
L 2227 3405
L 467 3386
L 467 3827
Q 659 3821 883 3814
Q 1107 3808 1376 3795
Q 1645 3789 1846 3785
Q 2048 3782 2189 3782
L 2374 3782
Q 2950 3782 3369 3788
Q 3789 3795 4166 3814
L 4166 3386
z
M 3110 4301
L 2291 4314
L 1478 4301
L 1478 4685
Q 1626 4678 1853 4672
Q 2080 4666 2266 4666
Q 2419 4666 2643 4669
Q 2867 4672 3110 4685
L 3110 4301
z
" transform="scale(0.015625)"/>
      </defs>
      <use xlink:href="#AppleGothic-1e"/>
      <use xlink:href="#AppleGothic-fcd" transform="translate(68 0)"/>
      <use xlink:href="#AppleGothic-3" transform="translate(168 0)"/>
      <use xlink:href="#AppleGothic-1034" transform="translate(200 0)"/>
      <use xlink:href="#AppleGothic-3" transform="translate(300 0)"/>
      <use xlink:href="#AppleGothic-1066" transform="translate(332 0)"/>
      <use xlink:href="#AppleGothic-12fb" transform="translate(432 0)"/>
     </g>
    </g>
    <g id="patch_10">
     <path d="M 168.16788 17.943926
L 192.16788 17.943926
L 192.16788 9.543926
L 168.16788 9.543926
z
" style="fill: url(#h8a457d052b)"/>
    </g>
    <g id="text_18">
     <!-- 9억 원 이하 -->
     <g transform="translate(201.76788 17.943926) scale(0.12 -0.12)">
      <defs>
       <path id="AppleGothic-21" d="M 928 211
L 928 762
Q 1050 672 1155 601
Q 1261 531 1363 480
Q 1702 320 2016 320
Q 2291 320 2541 435
Q 2739 525 2908 675
Q 3078 826 3213 1037
Q 3456 1408 3552 1843
Q 3616 2144 3616 2573
Q 3315 2272 3066 2125
Q 2605 1850 2093 1850
Q 1459 1850 1037 2214
Q 589 2598 589 3270
Q 589 3987 1082 4416
Q 1549 4832 2234 4832
Q 2970 4832 3494 4301
Q 4122 3661 4122 2528
Q 4122 1325 3475 582
Q 2874 -109 2035 -109
Q 1722 -109 1357 19
Q 1254 51 1148 102
Q 1043 154 928 211
z
M 3578 3066
Q 3462 3718 3053 4077
Q 2675 4403 2227 4403
Q 1715 4403 1402 4083
Q 1082 3750 1082 3302
Q 1082 2861 1370 2566
Q 1658 2278 2125 2278
Q 2573 2278 2915 2473
Q 3258 2669 3578 3066
z
" transform="scale(0.015625)"/>
      </defs>
      <use xlink:href="#AppleGothic-21"/>
      <use xlink:href="#AppleGothic-fcd" transform="translate(68 0)"/>
      <use xlink:href="#AppleGothic-3" transform="translate(168 0)"/>
      <use xlink:href="#AppleGothic-1034" transform="translate(200 0)"/>
      <use xlink:href="#AppleGothic-3" transform="translate(300 0)"/>
      <use xlink:href="#AppleGothic-1066" transform="translate(332 0)"/>
      <use xlink:href="#AppleGothic-12fb" transform="translate(432 0)"/>
     </g>
    </g>
   </g>
  </g>
  <g id="axes_2">
   <g id="patch_11">
    <path d="M 49.57224 435.32376
L 262.76352 435.32376
L 262.76352 270.115208
L 49.57224 270.115208
z
" style="fill: #ffffff"/>
   </g>
   <g id="matplotlib.axis_3">
    <g id="xtick_4">
     <g id="line2d_14"/>
     <g id="text_19">
      <!-- 2016.6 -->
      <g transform="translate(62.96421 449.51576) scale(0.12 -0.12)">
       <use xlink:href="#AppleGothic-1a"/>
       <use xlink:href="#AppleGothic-18" transform="translate(68 0)"/>
       <use xlink:href="#AppleGothic-19" transform="translate(136 0)"/>
       <use xlink:href="#AppleGothic-1e" transform="translate(204 0)"/>
       <use xlink:href="#AppleGothic-16" transform="translate(272 0)"/>
       <use xlink:href="#AppleGothic-1e" transform="translate(306.5 0)"/>
      </g>
     </g>
    </g>
    <g id="xtick_5">
     <g id="line2d_15"/>
     <g id="text_20">
      <!-- 2021.6 -->
      <g transform="translate(133.69788 449.51576) scale(0.12 -0.12)">
       <use xlink:href="#AppleGothic-1a"/>
       <use xlink:href="#AppleGothic-18" transform="translate(68 0)"/>
       <use xlink:href="#AppleGothic-1a" transform="translate(136 0)"/>
       <use xlink:href="#AppleGothic-19" transform="translate(204 0)"/>
       <use xlink:href="#AppleGothic-16" transform="translate(272 0)"/>
       <use xlink:href="#AppleGothic-1e" transform="translate(306.5 0)"/>
      </g>
     </g>
    </g>
    <g id="xtick_6">
     <g id="line2d_16"/>
     <g id="text_21">
      <!-- 2026.6 -->
      <g transform="translate(204.43155 449.51576) scale(0.12 -0.12)">
       <use xlink:href="#AppleGothic-1a"/>
       <use xlink:href="#AppleGothic-18" transform="translate(68 0)"/>
       <use xlink:href="#AppleGothic-1a" transform="translate(136 0)"/>
       <use xlink:href="#AppleGothic-1e" transform="translate(204 0)"/>
       <use xlink:href="#AppleGothic-16" transform="translate(272 0)"/>
       <use xlink:href="#AppleGothic-1e" transform="translate(306.5 0)"/>
      </g>
     </g>
    </g>
    <g id="text_22">
     <!-- 현재 측정 재고를 각 시점 가격으로 분류 -->
     <g transform="translate(48.64788 468.10776) scale(0.12 -0.12)">
      <defs>
       <path id="AppleGothic-1322" d="M 3450 2406
Q 3450 2707 3238 2880
Q 3002 3078 2541 3078
Q 2074 3078 1834 2905
Q 1594 2733 1594 2464
Q 1594 2157 1846 2000
Q 2099 1843 2547 1843
Q 3002 1843 3258 2042
Q 3450 2202 3450 2406
z
M 5728 -435
L 3571 -403
L 1549 -416
L 1555 224
L 1542 1107
L 1715 1114
Q 1862 1114 1958 1091
Q 2054 1069 2054 1011
Q 2054 992 2035 918
Q 2016 845 2016 787
L 2016 -26
Q 2106 -26 2310 -26
Q 2515 -26 2829 -32
Q 3149 -38 3353 -41
Q 3558 -45 3654 -45
Q 4262 -45 4790 -38
Q 5318 -32 5728 -19
L 5728 -435
z
M 3891 2451
Q 3891 2029 3552 1773
Q 3213 1517 2554 1517
Q 1869 1517 1498 1798
Q 1171 2054 1171 2496
Q 1171 2982 1594 3213
Q 1939 3405 2515 3405
Q 3155 3405 3523 3145
Q 3891 2886 3891 2451
z
M 5446 5075
Q 5446 5056 5434 5005
Q 5421 4954 5411 4922
Q 5402 4890 5402 4870
L 5395 3098
L 5395 1734
Q 5402 1472 5405 1219
Q 5408 966 5414 704
L 4934 691
Q 4934 704 4937 729
Q 4941 755 4944 809
Q 4947 864 4950 953
Q 4954 1043 4954 1184
L 4954 1818
L 3930 1811
L 3930 2214
L 4467 2202
L 4954 2208
L 4954 3021
L 4467 3027
L 3930 3014
L 3930 3405
L 4442 3392
L 4954 3398
L 4954 4640
Q 4954 4806 4944 4940
Q 4934 5075 4922 5184
L 5101 5190
Q 5248 5190 5347 5168
Q 5446 5146 5446 5075
z
M 4410 3782
L 2470 3795
Q 2042 3795 1581 3788
Q 1120 3782 736 3770
L 736 4141
Q 922 4134 1146 4131
Q 1370 4128 1638 4115
Q 1907 4109 2105 4105
Q 2304 4102 2445 4102
Q 3066 4102 3552 4108
Q 4038 4115 4410 4128
L 4410 3782
z
M 3296 4544
Q 3136 4557 2947 4563
Q 2758 4570 2573 4570
L 1779 4550
L 1779 4922
L 2579 4909
L 3296 4922
L 3296 4544
z
" transform="scale(0.015625)"/>
       <path id="AppleGothic-11ac" d="M 5056 -563
L 4557 -563
L 4576 147
L 4563 845
L 2906 858
Q 2502 858 2220 858
Q 1939 858 1760 851
Q 1414 851 1184 832
L 1184 1248
Q 1299 1242 1494 1242
Q 1690 1242 1958 1235
Q 2227 1229 2480 1229
Q 2733 1229 2976 1229
Q 3859 1242 4377 1251
Q 4896 1261 5050 1261
L 5056 -563
z
M 6003 1779
Q 5779 1779 5580 1779
Q 5382 1779 5203 1786
Q 4339 1798 3840 1808
Q 3341 1818 3206 1818
Q 2938 1818 2550 1811
Q 2163 1805 1664 1792
Q 1158 1779 838 1772
Q 518 1766 371 1766
L 371 2189
Q 1267 2189 1948 2182
Q 2630 2176 3219 2170
Q 3750 2170 4480 2189
Q 4851 2202 5228 2211
Q 5606 2221 6003 2234
L 6003 1779
z
M 5530 3014
L 5261 2611
Q 4595 2701 4128 2912
Q 3584 3162 3194 3629
Q 2893 3219 2234 2912
Q 1581 2605 1050 2605
Q 966 2714 889 2819
Q 813 2925 704 3008
Q 1421 3008 1990 3232
Q 2714 3514 2963 4051
L 2106 4051
Q 1811 4051 1523 4041
Q 1235 4032 1069 4026
L 1069 4422
Q 1139 4422 1363 4419
Q 1587 4416 1971 4410
Q 2355 4403 2662 4403
Q 2970 4403 3213 4403
Q 3494 4403 3772 4403
Q 4051 4403 4339 4416
Q 4915 4435 5312 4454
L 5312 4058
L 4275 4070
L 3469 4051
Q 3507 3846 3724 3644
Q 3942 3443 4294 3277
Q 4582 3142 4992 3066
Q 5158 3040 5289 3027
Q 5421 3014 5530 3014
z
M 3936 4774
L 3219 4787
L 2477 4774
L 2477 5165
Q 2534 5165 2665 5161
Q 2797 5158 2995 5152
Q 3200 5146 3315 5142
Q 3430 5139 3462 5139
L 3533 5139
Q 3648 5139 3757 5145
Q 3866 5152 3936 5171
L 3936 4774
z
" transform="scale(0.015625)"/>
       <path id="AppleGothic-109c" d="M 4973 531
Q 4973 1018 4141 1120
Q 3853 1158 3341 1158
L 3206 1158
Q 2586 1158 2227 1069
Q 1702 934 1702 595
Q 1702 192 2291 45
Q 2483 -6 2745 -32
Q 3008 -58 3334 -58
L 3494 -58
Q 4326 -58 4678 122
Q 4973 256 4973 531
z
M 5414 557
Q 5414 102 5005 -134
Q 4538 -416 3392 -416
L 3213 -416
Q 2342 -416 1869 -218
Q 1280 19 1280 563
Q 1280 1133 1978 1350
Q 2214 1427 2556 1462
Q 2899 1498 3341 1498
Q 3789 1498 4128 1462
Q 4467 1427 4698 1350
Q 5414 1133 5414 557
z
M 3955 2362
Q 3955 2342 3907 2294
Q 3859 2246 3834 2221
Q 3782 2163 3753 2121
Q 3725 2080 3706 2048
Q 3635 2080 3577 2105
Q 3520 2131 3469 2157
Q 3322 2240 3165 2355
Q 3008 2470 2842 2624
Q 2605 2848 2438 3174
Q 2406 3232 2374 3305
Q 2342 3379 2304 3475
Q 2266 3386 2224 3312
Q 2182 3238 2150 3181
Q 2042 3008 1923 2854
Q 1805 2701 1677 2573
Q 1523 2426 1363 2304
Q 1203 2182 1030 2074
Q 973 2042 902 2006
Q 832 1971 742 1926
Q 685 1971 640 2000
Q 595 2029 550 2061
Q 397 2170 397 2202
Q 403 2227 410 2227
Q 1139 2496 1606 3066
Q 2106 3686 2106 4429
L 768 4410
L 768 4794
Q 1088 4781 1469 4774
Q 1850 4768 2214 4768
L 3699 4781
L 3699 4403
L 2541 4422
Q 2534 4390 2531 4329
Q 2528 4269 2528 4224
Q 2528 4077 2553 3926
Q 2579 3776 2669 3571
Q 2880 3053 3430 2675
Q 3603 2554 3936 2400
L 3955 2362
z
M 5427 5101
Q 5427 5094 5398 4995
Q 5370 4896 5370 4832
L 5370 4512
Q 5350 3302 5350 2995
L 5350 1664
L 4909 1664
L 4915 3309
Q 4659 3309 4237 3290
Q 4026 3283 3904 3280
Q 3782 3277 3738 3277
L 3738 3654
L 4358 3642
L 4928 3654
L 4928 4896
L 4915 5190
Q 5120 5190 5273 5177
Q 5427 5165 5427 5101
z
" transform="scale(0.015625)"/>
       <path id="AppleGothic-d50" d="M 5184 -378
Q 5056 -371 4950 -371
Q 4845 -371 4762 -371
Q 4179 -358 3798 -352
Q 3418 -346 3213 -346
L 1350 -365
L 1363 224
L 1350 870
L 2982 858
Q 3437 858 3856 864
Q 4275 870 4621 883
L 4621 1338
L 3034 1357
Q 2605 1357 2137 1350
Q 1670 1344 1280 1331
L 1280 1670
Q 1466 1664 1683 1664
Q 1901 1664 2163 1658
L 3046 1658
L 5082 1670
L 5069 1120
L 5082 576
L 3309 582
Q 2944 582 2550 569
Q 2157 557 1818 544
L 1818 -19
L 3168 -32
Q 3629 -32 3955 -32
Q 4282 -32 4486 -26
Q 4691 -19 4864 -16
Q 5037 -13 5184 0
L 5184 -378
z
M 6016 2125
Q 5946 2125 5779 2125
Q 5613 2125 5344 2131
Q 4826 2138 4154 2150
Q 3821 2157 3587 2160
Q 3354 2163 3213 2163
Q 2541 2163 2073 2163
Q 1606 2163 1318 2157
Q 1037 2150 803 2147
Q 570 2144 378 2131
L 378 2502
Q 429 2502 560 2499
Q 691 2496 896 2490
Q 1312 2477 1997 2470
Q 2342 2464 2640 2464
Q 2938 2464 3194 2464
L 4314 2464
Q 4973 2470 5373 2476
Q 5773 2483 6016 2490
L 6016 2125
z
M 5120 2906
Q 4973 2912 4848 2912
Q 4723 2912 4634 2912
Q 3981 2925 3616 2931
Q 3251 2938 3162 2938
L 1331 2931
L 1344 3462
L 1331 4102
Q 1472 4096 1677 4096
Q 1882 4096 2150 4090
Q 2419 4083 2620 4083
Q 2822 4083 2950 4083
L 4640 4077
L 4640 4576
L 3053 4595
Q 2630 4595 2169 4588
Q 1709 4582 1325 4570
L 1325 4928
Q 1395 4922 1449 4922
Q 1504 4922 1555 4922
Q 1952 4909 2329 4899
Q 2707 4890 3072 4890
L 5088 4896
L 5075 4352
L 5088 3776
L 1766 3795
L 1766 3264
L 3142 3245
L 4486 3245
Q 4838 3251 5120 3264
L 5120 2906
z
" transform="scale(0.015625)"/>
       <path id="AppleGothic-a5c" d="M 5114 -499
L 4672 -518
L 4685 339
L 4672 1178
L 1325 1152
L 1325 1517
L 5094 1530
L 5114 -499
z
M 3373 4774
Q 3347 4614 3334 4442
Q 3251 4045 3053 3642
Q 2778 3098 2310 2662
Q 1926 2304 1466 2022
Q 1126 1818 918 1722
Q 710 1626 634 1626
Q 576 1677 518 1731
Q 461 1786 410 1843
Q 397 1856 377 1881
Q 358 1907 326 1939
L 346 1965
Q 371 1965 444 1990
Q 518 2016 653 2067
Q 826 2138 998 2224
Q 1171 2310 1350 2419
Q 1818 2701 2138 3040
Q 2458 3379 2662 3782
Q 2790 4038 2893 4429
L 582 4403
L 582 4774
L 3373 4774
z
M 6118 2970
L 5581 2976
Q 5229 2976 5101 2950
L 5088 2432
L 5094 1875
L 4666 1856
Q 4666 1965 4675 2352
Q 4685 2739 4685 3526
L 4678 4787
Q 4678 4922 4675 5018
Q 4672 5114 4659 5190
L 5011 5190
Q 5120 5178 5120 5126
Q 5120 5101 5101 5008
Q 5082 4915 5082 4877
L 5101 3334
L 6118 3354
L 6118 2970
z
" transform="scale(0.015625)"/>
       <path id="AppleGothic-f43" d="M 5459 5062
Q 5459 5043 5440 4969
Q 5421 4896 5421 4826
L 5402 2349
L 5414 -531
L 4909 -557
Q 4915 -410 4915 -278
Q 4915 -147 4922 -19
Q 4928 218 4941 1190
Q 4960 2150 4960 2253
Q 4960 3923 4941 4416
Q 4934 4915 4922 5190
Q 5146 5190 5302 5158
Q 5459 5126 5459 5062
z
M 4250 1478
Q 4250 1459 4224 1434
Q 4211 1421 4179 1395
Q 4147 1370 4109 1338
L 3917 1178
Q 3866 1210 3821 1242
Q 3776 1274 3738 1306
Q 3290 1658 2899 2227
Q 2707 2496 2534 2918
Q 2515 2976 2483 3072
Q 2451 3168 2400 3309
Q 2221 2688 1754 2054
Q 1267 1389 710 1114
Q 698 1120 653 1155
Q 608 1190 518 1254
Q 486 1280 444 1312
Q 403 1344 346 1395
Q 346 1421 371 1427
Q 397 1440 406 1449
Q 416 1459 422 1466
Q 467 1466 710 1645
Q 896 1773 1056 1920
Q 1216 2067 1350 2234
Q 1549 2464 1696 2729
Q 1843 2995 1952 3296
Q 2061 3610 2125 4000
Q 2157 4205 2173 4381
Q 2189 4557 2189 4717
Q 2323 4717 2534 4678
Q 2752 4653 2752 4576
Q 2752 4544 2710 4470
Q 2669 4397 2669 4378
L 2630 4032
Q 2656 3923 2681 3814
Q 2707 3706 2739 3597
Q 2790 3430 2857 3248
Q 2925 3066 3021 2867
Q 3264 2349 3757 1894
Q 3840 1818 3949 1728
Q 4058 1638 4198 1530
L 4237 1491
L 4250 1478
z
" transform="scale(0.015625)"/>
       <path id="AppleGothic-1099" d="M 4941 -6
L 4941 1094
Q 4800 1101 4601 1107
Q 4403 1114 4141 1120
Q 3885 1126 3661 1129
Q 3437 1133 3245 1133
Q 2963 1133 2748 1133
Q 2534 1133 2374 1126
Q 2214 1126 2057 1123
Q 1901 1120 1741 1114
L 1741 6
Q 1830 6 2009 6
Q 2189 6 2470 0
Q 2746 -6 2915 -9
Q 3085 -13 3142 -13
L 4941 -6
z
M 5395 -486
L 4941 -499
L 4915 -365
L 1766 -352
L 1747 -474
L 1280 -480
L 1293 570
L 1280 1478
Q 1702 1466 2217 1462
Q 2733 1459 3258 1459
L 5382 1459
L 5376 205
L 5376 -243
Q 5382 -314 5385 -371
Q 5389 -429 5395 -486
z
M 4006 2259
L 3859 2106
Q 3808 2054 3760 2012
Q 3712 1971 3661 1920
Q 3571 1965 3497 2003
Q 3424 2042 3360 2074
Q 3181 2182 3024 2310
Q 2867 2438 2726 2592
Q 2515 2810 2362 3162
Q 2336 3219 2310 3296
Q 2285 3373 2253 3475
Q 2221 3379 2195 3328
Q 2022 2931 1670 2573
Q 1542 2445 1379 2313
Q 1216 2182 1005 2035
Q 934 1997 844 1939
Q 755 1882 646 1811
L 314 2112
L 326 2131
Q 1030 2419 1485 2982
Q 1997 3603 1997 4314
L 1990 4429
Q 1875 4442 1718 4448
Q 1562 4454 1312 4454
L 640 4448
L 640 4845
Q 742 4838 892 4832
Q 1043 4826 1222 4822
Q 1402 4819 1600 4816
Q 1798 4813 2003 4813
L 2234 4813
Q 2579 4813 2828 4816
Q 3078 4819 3232 4826
Q 3386 4832 3510 4838
Q 3635 4845 3744 4858
L 3744 4422
L 3142 4435
L 2490 4422
Q 2490 4102 2534 3885
Q 2592 3558 2778 3245
Q 3040 2797 3552 2483
Q 3725 2374 4006 2259
z
M 5446 5107
Q 5446 5094 5408 4995
Q 5370 4896 5370 4806
L 5395 1830
L 4928 1805
L 4941 2381
L 4941 3232
L 4333 3245
L 3642 3226
L 3642 3603
Q 3674 3603 3754 3603
Q 3834 3603 3962 3597
Q 4090 3590 4179 3590
Q 4269 3590 4320 3590
L 4941 3603
L 4941 4742
Q 4941 4954 4934 5053
Q 4928 5152 4915 5190
L 4998 5190
Q 5171 5190 5308 5174
Q 5446 5158 5446 5107
z
" transform="scale(0.015625)"/>
       <path id="AppleGothic-1052" d="M 4858 3200
Q 4858 3712 4403 3962
Q 4198 4083 3916 4137
Q 3635 4192 3270 4192
Q 2451 4192 2000 3949
Q 1549 3706 1549 3270
Q 1549 2650 2131 2400
Q 2496 2240 3098 2240
Q 3488 2240 3798 2291
Q 4109 2342 4333 2451
Q 4858 2701 4858 3200
z
M 5997 205
Q 5472 218 4825 224
Q 4179 230 3501 230
L 3187 230
Q 2944 230 2704 230
Q 2464 230 2240 224
Q 2010 218 1667 211
Q 1325 205 877 192
Q 755 186 640 186
Q 525 186 403 179
L 403 666
Q 480 666 643 666
Q 806 666 1069 659
Q 1331 653 1619 649
Q 1907 646 2234 640
Q 2560 634 2793 634
Q 3027 634 3162 634
Q 3398 634 3628 634
Q 3859 634 4090 640
Q 4320 646 4579 649
Q 4838 653 5146 659
Q 5734 666 5997 678
L 5997 205
z
M 5331 3194
Q 5331 2534 4717 2170
Q 4160 1837 3290 1837
L 3117 1830
Q 2349 1830 1792 2118
Q 1088 2483 1088 3213
Q 1088 3942 1773 4301
Q 2362 4595 3219 4595
Q 4128 4595 4698 4256
Q 5331 3878 5331 3194
z
" transform="scale(0.015625)"/>
       <path id="AppleGothic-d1a" d="M 6022 45
Q 5920 51 5827 51
Q 5734 51 5651 51
Q 4442 70 3238 70
Q 2784 70 2409 70
Q 2035 70 1728 64
Q 1421 58 1190 58
Q 960 58 813 51
Q 666 51 557 51
Q 448 51 378 45
L 378 480
L 1914 461
L 2970 461
L 2963 1542
L 1190 1523
L 1203 2330
L 1190 3264
L 3040 3251
L 4710 3264
L 4710 4096
L 2816 4102
L 1158 4090
L 1158 4493
L 5158 4493
Q 5146 4326 5139 4128
Q 5133 3930 5133 3738
L 5152 2867
L 1626 2848
L 1626 1933
L 3155 1920
Q 3411 1920 3689 1920
Q 3968 1920 4246 1923
Q 4525 1926 4790 1932
Q 5056 1939 5293 1946
L 5293 1536
L 3392 1542
L 3392 467
L 6016 474
L 6022 45
z
" transform="scale(0.015625)"/>
       <path id="AppleGothic-e36" d="M 4557 3194
L 4557 4077
L 3130 4096
L 1754 4077
L 1754 3194
L 3110 3174
L 4557 3194
z
M 5210 -429
L 3194 -410
L 1325 -429
L 1338 474
L 1325 1197
L 1549 1203
Q 1645 1203 1741 1190
Q 1837 1178 1837 1114
Q 1837 1094 1817 1030
Q 1798 966 1798 934
L 1792 -38
L 3194 -38
Q 3539 -38 3820 -38
Q 4102 -38 4342 -32
Q 4582 -26 4793 -22
Q 5005 -19 5210 -6
L 5210 -429
z
M 6016 1760
Q 5504 1760 4614 1779
Q 4166 1792 3878 1798
Q 3590 1805 3462 1805
L 3475 627
L 2995 621
L 3002 1805
L 1670 1792
Q 1222 1792 915 1779
Q 608 1766 384 1754
L 384 2182
Q 474 2182 621 2179
Q 768 2176 979 2170
Q 1190 2163 1472 2160
Q 1754 2157 2099 2150
Q 2445 2144 2720 2141
Q 2995 2138 3200 2138
Q 3744 2138 4550 2157
Q 4960 2170 5213 2176
Q 5466 2182 5568 2189
Q 5677 2195 5789 2201
Q 5901 2208 6016 2214
L 6016 1760
z
M 5043 5094
Q 5043 5069 5024 5011
Q 5005 4954 5005 4934
L 4992 4122
L 5011 2803
L 3104 2822
L 1306 2803
Q 1306 2880 1309 3005
Q 1312 3130 1315 3280
Q 1318 3430 1321 3593
Q 1325 3757 1325 3917
Q 1325 4390 1318 4678
Q 1312 4966 1299 5158
L 1472 5165
Q 1613 5165 1699 5142
Q 1786 5120 1786 5056
Q 1786 5024 1770 4957
Q 1754 4890 1754 4870
L 1754 4442
L 3136 4422
L 4557 4442
L 4544 5197
L 4704 5203
Q 4851 5203 4947 5180
Q 5043 5158 5043 5094
z
" transform="scale(0.015625)"/>
       <path id="AppleGothic-d45" d="M 6054 1779
L 4390 1805
L 4390 966
Q 4390 141 4429 -499
L 3968 -518
L 3994 1805
L 2451 1805
L 2477 -480
L 2003 -499
Q 2016 -230 2022 134
Q 2029 499 2029 992
L 2029 1805
Q 1747 1805 1190 1786
Q 621 1766 339 1766
L 339 2195
Q 397 2195 537 2192
Q 678 2189 902 2182
Q 1350 2170 2035 2163
Q 2381 2157 2656 2157
Q 2931 2157 3136 2157
Q 3546 2157 3866 2157
Q 4186 2157 4410 2163
Q 4640 2170 4873 2170
Q 5107 2170 5344 2176
Q 5811 2182 6054 2195
L 6054 1779
z
M 5184 2720
L 3488 2739
L 1350 2720
Q 1357 2797 1357 2902
Q 1357 3008 1363 3136
Q 1370 3277 1370 3353
Q 1370 3430 1370 3456
L 1357 4064
Q 1722 4051 2186 4044
Q 2650 4038 3174 4038
L 4614 4038
L 4614 4608
L 3226 4614
Q 2867 4614 2585 4614
Q 2304 4614 2099 4608
Q 1894 4602 1705 4598
Q 1517 4595 1350 4582
L 1350 4954
Q 1498 4947 1715 4947
Q 1933 4947 2234 4941
Q 2534 4934 2796 4934
Q 3059 4934 3283 4934
L 5088 4947
L 5075 4339
L 5088 3680
L 3232 3699
L 1824 3693
L 1824 3078
L 3514 3072
Q 3942 3072 4230 3072
Q 4518 3072 4672 3078
Q 4832 3085 4957 3088
Q 5082 3091 5184 3104
L 5184 2720
z
" transform="scale(0.015625)"/>
      </defs>
      <use xlink:href="#AppleGothic-1322"/>
      <use xlink:href="#AppleGothic-1081" transform="translate(100 0)"/>
      <use xlink:href="#AppleGothic-3" transform="translate(200 0)"/>
      <use xlink:href="#AppleGothic-11ac" transform="translate(232 0)"/>
      <use xlink:href="#AppleGothic-109c" transform="translate(332 0)"/>
      <use xlink:href="#AppleGothic-3" transform="translate(432 0)"/>
      <use xlink:href="#AppleGothic-1081" transform="translate(464 0)"/>
      <use xlink:href="#AppleGothic-aa7" transform="translate(564 0)"/>
      <use xlink:href="#AppleGothic-d50" transform="translate(664 0)"/>
      <use xlink:href="#AppleGothic-3" transform="translate(764 0)"/>
      <use xlink:href="#AppleGothic-a5c" transform="translate(796 0)"/>
      <use xlink:href="#AppleGothic-3" transform="translate(896 0)"/>
      <use xlink:href="#AppleGothic-f43" transform="translate(928 0)"/>
      <use xlink:href="#AppleGothic-1099" transform="translate(1028 0)"/>
      <use xlink:href="#AppleGothic-3" transform="translate(1128 0)"/>
      <use xlink:href="#AppleGothic-a5b" transform="translate(1160 0)"/>
      <use xlink:href="#AppleGothic-a97" transform="translate(1260 0)"/>
      <use xlink:href="#AppleGothic-1052" transform="translate(1360 0)"/>
      <use xlink:href="#AppleGothic-d1a" transform="translate(1460 0)"/>
      <use xlink:href="#AppleGothic-3" transform="translate(1560 0)"/>
      <use xlink:href="#AppleGothic-e36" transform="translate(1592 0)"/>
      <use xlink:href="#AppleGothic-d45" transform="translate(1692 0)"/>
     </g>
     <!-- 시점마다 가격 지원 분모가 다릅니다 -->
     <g transform="translate(58.48788 482.69976) scale(0.12 -0.12)">
      <defs>
       <path id="AppleGothic-d60" d="M 2931 2592
Q 2931 2918 2924 3267
Q 2918 3616 2906 3910
L 1997 3917
L 1082 3898
L 1069 2624
L 1082 1562
L 2074 1549
L 2918 1568
L 2931 2592
z
M 6074 2086
L 5126 2086
L 5146 1178
L 5152 -493
L 4685 -518
L 4685 4608
Q 4672 4666 4669 4838
Q 4666 5011 4659 5184
L 4858 5190
Q 5005 5190 5081 5164
Q 5158 5139 5158 5062
Q 5158 5030 5139 4956
Q 5120 4883 5120 4838
L 5133 2490
L 6074 2496
L 6074 2086
z
M 3379 1152
L 2125 1158
Q 1760 1158 1357 1152
Q 954 1146 608 1133
L 595 4307
Q 838 4294 1142 4288
Q 1446 4282 1766 4282
L 1920 4282
Q 2093 4282 2326 4291
Q 2560 4301 2848 4314
Q 2950 4320 3075 4326
Q 3200 4333 3366 4346
L 3379 1152
z
" transform="scale(0.015625)"/>
       <path id="AppleGothic-c0b" d="M 6067 2086
L 5139 2086
L 5126 1299
L 5133 -506
L 4672 -525
L 4691 4723
Q 4691 4851 4688 4934
Q 4685 5018 4681 5066
Q 4678 5114 4672 5142
Q 4666 5171 4659 5190
L 4736 5190
Q 4998 5190 5094 5168
Q 5190 5146 5190 5101
Q 5190 5075 5164 4995
Q 5139 4915 5139 4890
L 5126 3923
L 5139 2483
L 6067 2496
L 6067 2086
z
M 4224 1158
Q 4038 1120 3888 1091
Q 3738 1062 3622 1050
Q 3277 998 3005 969
Q 2733 941 2522 941
Q 2182 915 1856 896
Q 1530 877 1203 864
Q 1094 858 956 858
Q 819 858 653 851
Q 666 1184 669 1584
Q 672 1984 672 2355
L 659 4186
L 2336 4160
Q 2707 4160 3056 4166
Q 3405 4173 3680 4186
L 3680 3795
L 2387 3808
L 1120 3795
L 1101 2374
L 1114 1267
Q 1210 1274 1290 1274
Q 1370 1274 1434 1280
Q 1882 1306 2176 1315
Q 2470 1325 2611 1325
Q 2880 1350 3158 1382
Q 3437 1414 3738 1459
Q 3834 1472 3949 1488
Q 4064 1504 4198 1530
L 4224 1158
z
" transform="scale(0.015625)"/>
       <path id="AppleGothic-d9a" d="M 4576 3142
Q 4576 3334 4569 3600
Q 4563 3866 4550 4109
L 2989 4122
Q 2675 4122 2291 4102
Q 1926 4096 1690 4083
L 1670 3206
L 1690 2464
L 3085 2458
L 4563 2470
L 4576 3142
z
M 6042 262
L 4070 275
L 3117 269
Q 2714 269 2266 259
Q 1818 250 1299 237
Q 941 230 352 198
L 352 666
L 1542 653
L 2893 666
L 2906 1299
L 2893 2061
L 2054 2074
Q 1850 2074 1629 2061
Q 1408 2048 1222 2035
L 1235 3334
Q 1235 3622 1228 3923
Q 1222 4224 1210 4486
Q 1350 4480 1539 4480
Q 1728 4480 1971 4474
Q 2214 4467 2384 4467
Q 2554 4467 2643 4467
L 5030 4512
L 5011 3315
Q 5011 2938 5017 2646
Q 5024 2355 5043 2067
L 4237 2080
Q 4032 2080 3801 2073
Q 3571 2067 3379 2054
L 3366 1306
L 3373 666
L 4602 672
Q 4954 672 5338 688
Q 5722 704 6042 723
L 6042 262
z
" transform="scale(0.015625)"/>
       <path id="AppleGothic-d52" d="M 4717 64
L 4717 813
L 4410 813
Q 3277 832 3194 832
L 1862 813
L 1862 64
L 4717 64
z
M 5210 1683
Q 5210 1645 5184 1558
Q 5158 1472 5158 1440
L 5152 1030
L 5184 -442
L 4717 -461
L 4717 -294
L 3187 -282
L 2266 -282
Q 2061 -288 1875 -301
L 1862 -480
L 1402 -486
Q 1421 -237 1427 51
Q 1434 339 1434 608
Q 1434 915 1430 1120
Q 1427 1325 1421 1434
Q 1408 1658 1402 1766
L 1779 1747
Q 1914 1747 1914 1664
Q 1914 1626 1891 1542
Q 1869 1459 1869 1440
L 1862 1146
L 3155 1133
Q 3533 1133 3949 1139
Q 4365 1146 4717 1158
L 4717 1408
Q 4717 1542 4710 1641
Q 4704 1741 4691 1792
L 4800 1792
Q 4966 1792 5088 1766
Q 5210 1741 5210 1683
z
M 6035 1990
Q 5901 1997 5785 1997
Q 5670 1997 5568 1997
Q 4851 2003 4252 2006
Q 3654 2010 3168 2010
Q 2138 2010 1197 1990
Q 1024 1984 813 1977
Q 602 1971 358 1958
L 358 2349
Q 544 2342 822 2342
Q 1101 2342 1472 2336
Q 1850 2330 2141 2330
Q 2432 2330 2643 2330
L 3162 2330
Q 3718 2330 4153 2333
Q 4589 2336 4915 2342
Q 5242 2355 5520 2364
Q 5798 2374 6035 2387
L 6035 1990
z
M 5229 2874
L 4384 2880
L 1261 2854
L 1274 3469
L 1261 4109
L 4634 4109
L 4634 4666
L 3213 4666
Q 2592 4666 2109 4659
Q 1626 4653 1254 4640
L 1254 4998
L 2931 4986
L 5114 5018
L 5101 4448
L 5107 3808
L 1747 3776
L 1747 3200
L 3437 3206
Q 3859 3206 4153 3209
Q 4448 3213 4634 3219
Q 4819 3232 4966 3241
Q 5114 3251 5229 3264
L 5229 2874
z
" transform="scale(0.015625)"/>
       <path id="AppleGothic-c01" d="M 5466 5075
Q 5466 5056 5450 4963
Q 5434 4870 5434 4826
L 5453 -493
L 4979 -506
L 4998 2253
Q 4998 3808 4979 4346
Q 4973 4614 4966 4822
Q 4960 5030 4954 5184
L 5133 5190
Q 5280 5190 5373 5168
Q 5466 5146 5466 5075
z
M 4614 1715
Q 4390 1670 4153 1625
Q 3917 1581 3674 1530
Q 3360 1472 3123 1430
Q 2886 1389 2726 1363
Q 2483 1325 2166 1296
Q 1850 1267 1446 1242
Q 1318 1235 1155 1228
Q 992 1222 787 1210
L 800 3987
L 768 4358
L 1139 4339
Q 1306 4339 1306 4224
Q 1306 4198 1283 4124
Q 1261 4051 1261 4013
L 1248 2778
L 1261 1632
Q 1510 1638 1690 1651
Q 2483 1696 3180 1824
Q 3878 1952 4576 2099
L 4614 1715
z
" transform="scale(0.015625)"/>
      </defs>
      <use xlink:href="#AppleGothic-f43"/>
      <use xlink:href="#AppleGothic-1099" transform="translate(100 0)"/>
      <use xlink:href="#AppleGothic-d60" transform="translate(200 0)"/>
      <use xlink:href="#AppleGothic-c0b" transform="translate(300 0)"/>
      <use xlink:href="#AppleGothic-3" transform="translate(400 0)"/>
      <use xlink:href="#AppleGothic-a5b" transform="translate(432 0)"/>
      <use xlink:href="#AppleGothic-a97" transform="translate(532 0)"/>
      <use xlink:href="#AppleGothic-3" transform="translate(632 0)"/>
      <use xlink:href="#AppleGothic-10ee" transform="translate(664 0)"/>
      <use xlink:href="#AppleGothic-1034" transform="translate(764 0)"/>
      <use xlink:href="#AppleGothic-3" transform="translate(864 0)"/>
      <use xlink:href="#AppleGothic-e36" transform="translate(896 0)"/>
      <use xlink:href="#AppleGothic-d9a" transform="translate(996 0)"/>
      <use xlink:href="#AppleGothic-a5b" transform="translate(1096 0)"/>
      <use xlink:href="#AppleGothic-3" transform="translate(1196 0)"/>
      <use xlink:href="#AppleGothic-c0b" transform="translate(1228 0)"/>
      <use xlink:href="#AppleGothic-d52" transform="translate(1328 0)"/>
      <use xlink:href="#AppleGothic-c01" transform="translate(1428 0)"/>
      <use xlink:href="#AppleGothic-c0b" transform="translate(1528 0)"/>
     </g>
    </g>
   </g>
   <g id="matplotlib.axis_4">
    <g id="ytick_6">
     <g id="line2d_17">
      <path d="M 49.57224 435.32376
L 262.76352 435.32376
" clip-path="url(#pdae01058c7)" style="fill: none; stroke: #e5eaed; stroke-width: 0.8; stroke-linecap: square"/>
     </g>
     <g id="line2d_18"/>
     <g id="text_23">
      <!-- 0 -->
      <g transform="translate(37.91224 440.66976) scale(0.12 -0.12)">
       <use xlink:href="#AppleGothic-18"/>
      </g>
     </g>
    </g>
    <g id="ytick_7">
     <g id="line2d_19">
      <path d="M 49.57224 398.446851
L 262.76352 398.446851
" clip-path="url(#pdae01058c7)" style="fill: none; stroke: #e5eaed; stroke-width: 0.8; stroke-linecap: square"/>
     </g>
     <g id="line2d_20"/>
     <g id="text_24">
      <!-- 25 -->
      <g transform="translate(29.75224 403.792851) scale(0.12 -0.12)">
       <use xlink:href="#AppleGothic-1a"/>
       <use xlink:href="#AppleGothic-1d" transform="translate(68 0)"/>
      </g>
     </g>
    </g>
    <g id="ytick_8">
     <g id="line2d_21">
      <path d="M 49.57224 361.569942
L 262.76352 361.569942
" clip-path="url(#pdae01058c7)" style="fill: none; stroke: #e5eaed; stroke-width: 0.8; stroke-linecap: square"/>
     </g>
     <g id="line2d_22"/>
     <g id="text_25">
      <!-- 50 -->
      <g transform="translate(29.75224 366.915942) scale(0.12 -0.12)">
       <use xlink:href="#AppleGothic-1d"/>
       <use xlink:href="#AppleGothic-18" transform="translate(68 0)"/>
      </g>
     </g>
    </g>
    <g id="ytick_9">
     <g id="line2d_23">
      <path d="M 49.57224 324.693033
L 262.76352 324.693033
" clip-path="url(#pdae01058c7)" style="fill: none; stroke: #e5eaed; stroke-width: 0.8; stroke-linecap: square"/>
     </g>
     <g id="line2d_24"/>
     <g id="text_26">
      <!-- 75 -->
      <g transform="translate(29.75224 330.039033) scale(0.12 -0.12)">
       <use xlink:href="#AppleGothic-1f"/>
       <use xlink:href="#AppleGothic-1d" transform="translate(68 0)"/>
      </g>
     </g>
    </g>
    <g id="ytick_10">
     <g id="line2d_25">
      <path d="M 49.57224 287.816124
L 262.76352 287.816124
" clip-path="url(#pdae01058c7)" style="fill: none; stroke: #e5eaed; stroke-width: 0.8; stroke-linecap: square"/>
     </g>
     <g id="line2d_26"/>
     <g id="text_27">
      <!-- 100 -->
      <g transform="translate(21.59224 293.162124) scale(0.12 -0.12)">
       <use xlink:href="#AppleGothic-19"/>
       <use xlink:href="#AppleGothic-18" transform="translate(68 0)"/>
       <use xlink:href="#AppleGothic-18" transform="translate(136 0)"/>
      </g>
     </g>
    </g>
    <g id="text_28">
     <!-- 가격 지원 재고 중 (%) -->
     <g transform="translate(13.69224 414.399484) rotate(-90) scale(0.12 -0.12)">
      <use xlink:href="#AppleGothic-a5b"/>
      <use xlink:href="#AppleGothic-a97" transform="translate(100 0)"/>
      <use xlink:href="#AppleGothic-3" transform="translate(200 0)"/>
      <use xlink:href="#AppleGothic-10ee" transform="translate(232 0)"/>
      <use xlink:href="#AppleGothic-1034" transform="translate(332 0)"/>
      <use xlink:href="#AppleGothic-3" transform="translate(432 0)"/>
      <use xlink:href="#AppleGothic-1081" transform="translate(464 0)"/>
      <use xlink:href="#AppleGothic-aa7" transform="translate(564 0)"/>
      <use xlink:href="#AppleGothic-3" transform="translate(664 0)"/>
      <use xlink:href="#AppleGothic-10d7" transform="translate(696 0)"/>
      <use xlink:href="#AppleGothic-3" transform="translate(796 0)"/>
      <use xlink:href="#AppleGothic-10" transform="translate(828 0)"/>
      <use xlink:href="#AppleGothic-d" transform="translate(878 0)"/>
      <use xlink:href="#AppleGothic-11" transform="translate(978 0)"/>
     </g>
    </g>
   </g>
   <g id="patch_12">
    <path d="M 59.262753 435.32376
L 84.726874 435.32376
L 84.726874 295.03346
L 59.262753 295.03346
z
" clip-path="url(#pdae01058c7)" style="fill: #103d68"/>
   </g>
   <g id="patch_13">
    <path d="M 129.996422 435.32376
L 155.460543 435.32376
L 155.460543 353.650442
L 129.996422 353.650442
z
" clip-path="url(#pdae01058c7)" style="fill: #103d68"/>
   </g>
   <g id="patch_14">
    <path d="M 200.730092 435.32376
L 226.194213 435.32376
L 226.194213 355.334308
L 200.730092 355.334308
z
" clip-path="url(#pdae01058c7)" style="fill: #103d68"/>
   </g>
   <g id="patch_15">
    <path d="M 86.141547 435.32376
L 111.605668 435.32376
L 111.605668 288.657424
L 86.141547 288.657424
z
" clip-path="url(#pdae01058c7)" style="fill: url(#h8a457d052b)"/>
   </g>
   <g id="patch_16">
    <path d="M 156.875217 435.32376
L 182.339338 435.32376
L 182.339338 309.922675
L 156.875217 309.922675
z
" clip-path="url(#pdae01058c7)" style="fill: url(#h8a457d052b)"/>
   </g>
   <g id="patch_17">
    <path d="M 227.608886 435.32376
L 253.073007 435.32376
L 253.073007 318.485043
L 227.608886 318.485043
z
" clip-path="url(#pdae01058c7)" style="fill: url(#h8a457d052b)"/>
   </g>
   <g id="text_29">
    <!-- 95.1 -->
    <g transform="translate(57.684813 288.13346) scale(0.12 -0.12)">
     <use xlink:href="#AppleGothic-21"/>
     <use xlink:href="#AppleGothic-1d" transform="translate(68 0)"/>
     <use xlink:href="#AppleGothic-16" transform="translate(136 0)"/>
     <use xlink:href="#AppleGothic-19" transform="translate(170.5 0)"/>
    </g>
   </g>
   <g id="text_30">
    <!-- 55.4 -->
    <g transform="translate(128.418483 346.750442) scale(0.12 -0.12)">
     <use xlink:href="#AppleGothic-1d"/>
     <use xlink:href="#AppleGothic-1d" transform="translate(68 0)"/>
     <use xlink:href="#AppleGothic-16" transform="translate(136 0)"/>
     <use xlink:href="#AppleGothic-1c" transform="translate(170.5 0)"/>
    </g>
   </g>
   <g id="text_31">
    <!-- 54.2 -->
    <g transform="translate(199.152152 348.434308) scale(0.12 -0.12)">
     <use xlink:href="#AppleGothic-1d"/>
     <use xlink:href="#AppleGothic-1c" transform="translate(68 0)"/>
     <use xlink:href="#AppleGothic-16" transform="translate(136 0)"/>
     <use xlink:href="#AppleGothic-1a" transform="translate(170.5 0)"/>
    </g>
   </g>
   <g id="text_32">
    <!-- 99.4 -->
    <g transform="translate(84.563608 274.757424) scale(0.12 -0.12)">
     <use xlink:href="#AppleGothic-21"/>
     <use xlink:href="#AppleGothic-21" transform="translate(68 0)"/>
     <use xlink:href="#AppleGothic-16" transform="translate(136 0)"/>
     <use xlink:href="#AppleGothic-1c" transform="translate(170.5 0)"/>
    </g>
   </g>
   <g id="text_33">
    <!-- 85.0 -->
    <g transform="translate(155.297277 296.022675) scale(0.12 -0.12)">
     <use xlink:href="#AppleGothic-20"/>
     <use xlink:href="#AppleGothic-1d" transform="translate(68 0)"/>
     <use xlink:href="#AppleGothic-16" transform="translate(136 0)"/>
     <use xlink:href="#AppleGothic-18" transform="translate(170.5 0)"/>
    </g>
   </g>
   <g id="text_34">
    <!-- 79.2 -->
    <g transform="translate(226.030947 304.585043) scale(0.12 -0.12)">
     <use xlink:href="#AppleGothic-1f"/>
     <use xlink:href="#AppleGothic-21" transform="translate(68 0)"/>
     <use xlink:href="#AppleGothic-16" transform="translate(136 0)"/>
     <use xlink:href="#AppleGothic-1a" transform="translate(170.5 0)"/>
    </g>
   </g>
   <g id="text_35">
    <!-- 수집 경기 36지역 -->
    <g transform="translate(49.57224 260.115208) scale(0.13 -0.13)">
     <defs>
      <path id="AppleGothic-f18" d="M 6022 1952
L 3411 1952
L 3424 896
L 3462 -582
L 2982 -582
L 2982 1952
Q 2912 1952 2774 1949
Q 2637 1946 2419 1939
Q 2208 1933 2086 1933
Q 1965 1933 1933 1933
L 378 1894
L 378 2304
L 3206 2298
Q 3706 2298 4202 2307
Q 4698 2317 5184 2330
Q 5536 2342 6022 2368
L 6022 1952
z
M 5792 3482
Q 5792 3450 5747 3402
Q 5702 3354 5658 3315
L 5523 3117
Q 5453 3123 5395 3126
Q 5338 3130 5286 3142
Q 4685 3251 4090 3610
Q 3699 3846 3411 4250
Q 3360 4320 3312 4409
Q 3264 4499 3206 4621
Q 3149 4512 3097 4422
Q 3046 4333 2995 4262
Q 2688 3846 2208 3552
Q 2054 3450 1875 3370
Q 1696 3290 1498 3219
Q 1382 3181 1232 3142
Q 1082 3104 896 3072
Q 896 3072 873 3101
Q 851 3130 828 3162
Q 806 3194 780 3226
Q 755 3258 749 3270
Q 736 3290 678 3347
Q 621 3405 621 3424
L 640 3443
Q 730 3450 810 3453
Q 890 3456 954 3469
Q 1338 3526 1674 3676
Q 2010 3827 2298 4077
Q 2605 4326 2790 4659
Q 2842 4755 2886 4880
Q 2931 5005 2970 5171
L 3411 5133
Q 3475 5133 3475 5075
Q 3475 5056 3472 5037
Q 3469 5018 3462 4992
Q 3462 4973 3443 4947
Q 3482 4832 3520 4755
Q 3738 4301 4230 3974
Q 4659 3686 5261 3571
Q 5363 3552 5488 3536
Q 5613 3520 5766 3507
Q 5786 3507 5792 3482
z
" transform="scale(0.015625)"/>
      <path id="AppleGothic-10f5" d="M 4960 358
L 4954 704
L 1856 698
L 1843 378
L 1856 -70
Q 1946 -70 2125 -70
Q 2304 -70 2592 -77
Q 2880 -83 3053 -86
Q 3226 -90 3277 -90
Q 3878 -90 4268 -83
Q 4659 -77 4954 -70
L 4960 358
z
M 5466 1690
Q 5466 1664 5434 1587
Q 5402 1510 5402 1472
Q 5402 1293 5405 1001
Q 5408 710 5414 288
Q 5421 -134 5424 -352
Q 5427 -570 5427 -602
L 4928 -602
L 4922 -435
L 3309 -416
L 1843 -435
L 1850 -621
L 1376 -627
L 1395 634
L 1389 928
Q 1389 1114 1389 1245
Q 1389 1376 1382 1466
Q 1382 1549 1379 1629
Q 1376 1709 1370 1786
Q 1536 1786 1722 1766
Q 1901 1747 1901 1690
Q 1850 1574 1850 1530
L 1843 1050
L 4960 1050
L 4947 1805
Q 5018 1805 5101 1798
Q 5184 1792 5274 1779
Q 5466 1747 5466 1690
z
M 4186 2400
Q 4186 2387 4141 2342
Q 4122 2323 4106 2307
Q 4090 2291 4067 2268
Q 4045 2246 4003 2211
Q 3962 2176 3891 2118
Q 3878 2112 3868 2099
Q 3859 2086 3846 2074
Q 3795 2099 3750 2121
Q 3706 2144 3674 2163
Q 3462 2278 3270 2425
Q 3078 2573 2906 2739
Q 2784 2854 2681 2995
Q 2579 3136 2490 3315
Q 2438 3411 2355 3616
Q 2323 3526 2291 3452
Q 2259 3379 2234 3328
Q 2048 2970 1779 2701
Q 1613 2534 1421 2380
Q 1229 2227 998 2086
Q 915 2035 806 1984
Q 768 2016 739 2038
Q 710 2061 685 2074
Q 557 2176 509 2201
Q 461 2227 435 2266
L 422 2272
Q 422 2298 448 2304
Q 474 2317 496 2329
Q 518 2342 544 2355
Q 608 2355 960 2579
Q 1165 2720 1334 2864
Q 1504 3008 1632 3162
Q 1779 3334 1881 3510
Q 1984 3686 2035 3872
Q 2112 4122 2112 4403
L 602 4384
L 602 4794
L 2618 4774
L 3475 4774
Q 3629 4781 3779 4784
Q 3930 4787 4077 4794
L 4077 4390
L 3290 4403
L 2650 4403
Q 2637 4371 2630 4329
Q 2624 4288 2624 4198
Q 2624 4032 2694 3840
Q 2765 3648 2918 3398
Q 3142 3040 3558 2765
Q 3578 2752 3693 2685
Q 3808 2618 4032 2502
Q 4077 2477 4128 2448
Q 4179 2419 4186 2400
z
M 5446 5101
Q 5446 5075 5430 5020
Q 5414 4966 5414 4947
L 5402 3936
L 5434 2131
L 4947 2118
L 4960 3597
L 4973 4013
Q 4973 4531 4954 4774
Q 4947 4902 4940 5004
Q 4934 5107 4922 5190
L 5075 5190
Q 5242 5190 5344 5174
Q 5446 5158 5446 5101
z
" transform="scale(0.015625)"/>
      <path id="AppleGothic-aa0" d="M 4941 570
Q 4941 954 4429 1114
Q 4058 1235 3430 1235
Q 2707 1235 2298 1146
Q 1613 979 1613 544
Q 1613 173 2182 0
Q 2618 -128 3296 -128
L 3488 -128
Q 4026 -128 4410 6
Q 4941 186 4941 570
z
M 5389 576
Q 5389 19 4755 -250
Q 4243 -467 3488 -467
L 3270 -474
Q 2362 -474 1818 -250
Q 1171 13 1171 531
Q 1171 1120 1869 1370
Q 2394 1555 3258 1555
L 3418 1555
Q 4205 1555 4736 1344
Q 5389 1082 5389 576
z
M 3578 4800
Q 3565 4717 3558 4640
Q 3552 4563 3546 4480
Q 3514 4288 3453 4099
Q 3392 3910 3315 3725
Q 3091 3219 2710 2844
Q 2330 2470 1824 2176
Q 1645 2067 1459 1977
Q 1274 1888 1082 1811
Q 819 1709 774 1709
Q 768 1715 723 1750
Q 678 1786 595 1856
Q 422 1997 422 2010
Q 429 2035 448 2035
Q 646 2074 768 2118
Q 1517 2362 2182 2906
Q 2368 3053 2515 3229
Q 2662 3405 2790 3610
Q 2970 3917 3059 4218
Q 3072 4282 3088 4346
Q 3104 4410 3117 4467
Q 2899 4467 2579 4460
Q 2259 4454 1818 4442
Q 954 4422 646 4422
L 646 4794
Q 774 4787 956 4784
Q 1139 4781 1254 4781
L 2874 4806
L 3578 4800
z
M 5395 5126
Q 5395 5120 5382 5069
Q 5350 4954 5350 4890
L 5363 1632
L 4941 1632
L 4941 2522
Q 4736 2522 4314 2502
Q 3891 2483 3680 2483
L 3680 2848
L 4941 2854
L 4941 3654
Q 4730 3654 4307 3635
Q 3885 3616 3661 3616
L 3661 3994
L 4358 3981
L 4941 3987
L 4941 4902
Q 4941 5050 4934 5107
Q 4928 5165 4915 5190
Q 4992 5190 5072 5187
Q 5152 5184 5229 5178
Q 5395 5165 5395 5126
z
" transform="scale(0.015625)"/>
      <path id="AppleGothic-afa" d="M 5427 5094
Q 5427 5069 5408 4982
Q 5389 4896 5389 4832
L 5363 2362
L 5382 -493
L 4909 -518
Q 4915 -371 4915 -195
Q 4915 -19 4922 198
Q 4934 646 4941 1299
Q 4947 1632 4950 1872
Q 4954 2112 4954 2259
Q 4954 3808 4934 4346
Q 4934 4614 4928 4822
Q 4922 5030 4915 5184
L 5114 5190
Q 5261 5190 5344 5174
Q 5427 5158 5427 5094
z
M 3578 4486
Q 3565 4051 3478 3635
Q 3392 3219 3209 2819
Q 3027 2419 2729 2041
Q 2432 1664 1997 1306
Q 1786 1139 1555 992
Q 1325 845 1075 717
Q 698 525 653 525
Q 627 557 611 579
Q 595 602 582 614
Q 544 653 505 688
Q 467 723 422 749
Q 410 762 390 778
Q 371 794 352 819
Q 346 826 342 832
Q 339 838 326 851
Q 326 877 384 893
Q 442 909 461 922
Q 480 922 569 957
Q 659 992 819 1069
Q 1043 1171 1238 1283
Q 1434 1395 1613 1523
Q 2118 1888 2409 2301
Q 2701 2714 2886 3187
Q 2950 3354 2995 3514
Q 3040 3674 3066 3840
Q 3072 3898 3078 3962
Q 3085 4026 3098 4090
L 1766 4083
Q 1318 4083 1046 4076
Q 774 4070 589 4058
L 589 4474
Q 685 4467 800 4467
Q 915 4467 1043 4461
L 1466 4461
L 3578 4486
z
" transform="scale(0.015625)"/>
      <path id="AppleGothic-fe6" d="M 3098 3430
Q 3098 3859 2810 4128
Q 2515 4403 2099 4403
Q 1651 4403 1357 4134
Q 1062 3859 1062 3430
Q 1062 3130 1280 2874
Q 1568 2554 2099 2554
Q 2547 2554 2822 2797
Q 3098 3040 3098 3430
z
M 5395 -461
L 4928 -486
L 4941 192
L 4941 1197
Q 4557 1197 4233 1193
Q 3910 1190 3642 1184
Q 3373 1178 3053 1174
Q 2733 1171 2349 1165
Q 1965 1158 1702 1158
Q 1440 1158 1286 1158
L 1286 1530
L 2554 1517
Q 2803 1517 3206 1520
Q 3610 1523 4173 1530
Q 4749 1536 5046 1539
Q 5344 1542 5382 1542
L 5376 275
L 5376 -218
Q 5389 -371 5395 -461
z
M 3514 3424
Q 3514 2848 3053 2496
Q 2643 2182 2106 2182
Q 1485 2182 1075 2515
Q 646 2861 646 3424
Q 646 3962 1005 4326
Q 1414 4749 2099 4749
Q 2707 4749 3110 4384
Q 3514 4006 3514 3424
z
M 5421 5082
Q 5421 5056 5401 4989
Q 5382 4922 5382 4877
L 5370 3002
Q 5370 2547 5373 2313
Q 5376 2080 5382 1939
L 4922 1907
L 4934 2611
L 4371 2618
L 3744 2605
L 3744 2950
L 4397 2950
L 4774 2950
Q 4819 2957 4860 2960
Q 4902 2963 4934 2970
L 4934 3744
Q 4806 3757 4662 3763
Q 4518 3770 4384 3770
Q 4160 3770 4009 3763
Q 3859 3757 3770 3744
L 3770 4128
Q 3827 4122 3907 4122
Q 3987 4122 4096 4115
Q 4205 4109 4275 4109
Q 4346 4109 4390 4109
Q 4646 4109 4752 4115
Q 4858 4122 4934 4134
L 4934 4800
Q 4934 4909 4928 5011
Q 4922 5114 4909 5190
L 4934 5190
Q 5133 5190 5277 5171
Q 5421 5152 5421 5082
z
" transform="scale(0.015625)"/>
     </defs>
     <use xlink:href="#AppleGothic-f18"/>
     <use xlink:href="#AppleGothic-10f5" transform="translate(100 0)"/>
     <use xlink:href="#AppleGothic-3" transform="translate(200 0)"/>
     <use xlink:href="#AppleGothic-aa0" transform="translate(232 0)"/>
     <use xlink:href="#AppleGothic-afa" transform="translate(332 0)"/>
     <use xlink:href="#AppleGothic-3" transform="translate(432 0)"/>
     <use xlink:href="#AppleGothic-1b" transform="translate(464 0)"/>
     <use xlink:href="#AppleGothic-1e" transform="translate(532 0)"/>
     <use xlink:href="#AppleGothic-10ee" transform="translate(600 0)"/>
     <use xlink:href="#AppleGothic-fe6" transform="translate(700 0)"/>
    </g>
   </g>
  </g>
 </g>
 <defs>
  <clipPath id="pd1fbf268c8">
   <rect x="49.57224" y="59.231176" width="213.19128" height="165.208552"/>
  </clipPath>
  <clipPath id="pdae01058c7">
   <rect x="49.57224" y="270.115208" width="213.19128" height="165.208552"/>
  </clipPath>
 </defs>
 <defs>
  <pattern id="h8a457d052b" patternUnits="userSpaceOnUse" x="0" y="0" width="72" height="72">
   <rect x="0" y="0" width="73" height="73" fill="#007b72"/>
   <path d="M -36 36
L 36 -36
M -30 42
L 42 -30
M -24 48
L 48 -24
M -18 54
L 54 -18
M -12 60
L 60 -12
M -6 66
L 66 -6
M 0 72
L 72 0
M 6 78
L 78 6
M 12 84
L 84 12
M 18 90
L 90 18
M 24 96
L 96 24
M 30 102
L 102 30
M 36 108
L 108 36
" style="fill: #000000; stroke: #000000; stroke-width: 1.0; stroke-linecap: butt; stroke-linejoin: miter"/>
  </pattern>
 </defs>
</svg>
