<?xml version="1.0" encoding="utf-8" standalone="no"?>
<!DOCTYPE svg PUBLIC "-//W3C//DTD SVG 1.1//EN"
  "http://www.w3.org/Graphics/SVG/1.1/DTD/svg11.dtd">
<svg xmlns:xlink="http://www.w3.org/1999/xlink" width="576pt" height="345.6pt" viewBox="0 0 576 345.6" xmlns="http://www.w3.org/2000/svg" version="1.1">
 <metadata>
  <rdf:RDF xmlns:dc="http://purl.org/dc/elements/1.1/" xmlns:cc="http://creativecommons.org/ns#" xmlns:rdf="http://www.w3.org/1999/02/22-rdf-syntax-ns#">
   <cc:Work>
    <dc:type rdf:resource="http://purl.org/dc/dcmitype/StillImage"/>
    <dc:format>image/svg+xml</dc:format>
    <dc:creator>
     <cc:Agent>
      <dc:title>Matplotlib v3.11.1, https://matplotlib.org/</dc:title>
     </cc:Agent>
    </dc:creator>
   </cc:Work>
  </rdf:RDF>
 </metadata>
 <defs>
  <style type="text/css">*{stroke-linejoin: round; stroke-linecap: butt}</style>
 </defs>
 <g id="figure_1">
  <g id="patch_1">
   <path d="M 0 345.6
L 576 345.6
L 576 0
L 0 0
z
" style="fill: #ffffff"/>
  </g>
  <g id="axes_1">
   <g id="patch_2">
    <path d="M 58.34024 305.91576
L 564.83976 305.91576
L 564.83976 41.134445
L 58.34024 41.134445
z
" style="fill: #ffffff"/>
   </g>
   <g id="matplotlib.axis_1">
    <g id="xtick_1">
     <g id="line2d_1">
      <path d="M 58.34024 305.91576
L 58.34024 41.134445
" clip-path="url(#p9dbcd61d42)" style="fill: none; stroke: #e5eaed; stroke-width: 0.8; stroke-linecap: square"/>
     </g>
     <g id="line2d_2"/>
     <g id="text_1">
      <!-- 0 -->
      <g transform="translate(54.26024 320.10776) scale(0.12 -0.12)">
       <defs>
        <path id="AppleGothic-18" d="M 2227 -83
Q 1414 -83 934 576
Q 461 1229 461 2387
Q 461 3552 973 4218
Q 1453 4858 2221 4858
Q 3027 4858 3482 4173
Q 3955 3494 3955 2394
Q 3955 1248 3462 582
Q 2976 -83 2227 -83
z
M 2176 346
Q 2861 346 3200 992
Q 3462 1536 3462 2400
Q 3462 3315 3162 3859
Q 2822 4429 2214 4429
Q 1574 4429 1248 3821
Q 960 3283 960 2374
Q 960 1478 1248 941
Q 1574 346 2176 346
z
" transform="scale(0.015625)"/>
       </defs>
       <use xlink:href="#AppleGothic-18"/>
      </g>
     </g>
    </g>
    <g id="xtick_2">
     <g id="line2d_3">
      <path d="M 184.96512 305.91576
L 184.96512 41.134445
" clip-path="url(#p9dbcd61d42)" style="fill: none; stroke: #e5eaed; stroke-width: 0.8; stroke-linecap: square"/>
     </g>
     <g id="line2d_4"/>
     <g id="text_2">
      <!-- 20 -->
      <g transform="translate(176.80512 320.10776) scale(0.12 -0.12)">
       <defs>
        <path id="AppleGothic-1a" d="M 1101 429
L 3942 429
L 3942 0
L 653 0
L 653 205
Q 653 1018 1344 1664
Q 1670 1894 1990 2124
Q 2310 2355 2637 2592
Q 3334 3098 3334 3597
Q 3334 3994 3014 4218
Q 2867 4326 2694 4377
Q 2522 4429 2317 4429
Q 2016 4429 1741 4352
Q 1325 4224 883 3910
L 883 4435
Q 1325 4659 1667 4758
Q 2010 4858 2317 4858
Q 2963 4858 3405 4525
Q 3840 4198 3840 3622
Q 3840 2995 3168 2438
Q 2848 2214 2531 2000
Q 2214 1786 1894 1562
Q 1178 1024 1101 429
z
" transform="scale(0.015625)"/>
       </defs>
       <use xlink:href="#AppleGothic-1a"/>
       <use xlink:href="#AppleGothic-18" transform="translate(68 0)"/>
      </g>
     </g>
    </g>
    <g id="xtick_3">
     <g id="line2d_5">
      <path d="M 311.59 305.91576
L 311.59 41.134445
" clip-path="url(#p9dbcd61d42)" style="fill: none; stroke: #e5eaed; stroke-width: 0.8; stroke-linecap: square"/>
     </g>
     <g id="line2d_6"/>
     <g id="text_3">
      <!-- 40 -->
      <g transform="translate(303.43 320.10776) scale(0.12 -0.12)">
       <defs>
        <path id="AppleGothic-1c" d="M 2662 4774
L 3130 4774
L 3130 1811
L 4000 1811
L 4000 1382
L 3130 1382
L 3130 0
L 2662 0
L 2662 1382
L 352 1382
L 352 1811
L 2662 4774
z
M 2662 1811
L 2662 4166
L 838 1811
L 2662 1811
z
" transform="scale(0.015625)"/>
       </defs>
       <use xlink:href="#AppleGothic-1c"/>
       <use xlink:href="#AppleGothic-18" transform="translate(68 0)"/>
      </g>
     </g>
    </g>
    <g id="xtick_4">
     <g id="line2d_7">
      <path d="M 438.21488 305.91576
L 438.21488 41.134445
" clip-path="url(#p9dbcd61d42)" style="fill: none; stroke: #e5eaed; stroke-width: 0.8; stroke-linecap: square"/>
     </g>
     <g id="line2d_8"/>
     <g id="text_4">
      <!-- 60 -->
      <g transform="translate(430.05488 320.10776) scale(0.12 -0.12)">
       <defs>
        <path id="AppleGothic-1e" d="M 3699 4557
L 3699 4013
Q 3584 4102 3475 4163
Q 3366 4224 3258 4275
Q 3085 4358 2918 4393
Q 2752 4429 2586 4429
Q 2470 4429 2352 4409
Q 2234 4390 2118 4339
Q 1670 4154 1395 3738
Q 1011 3149 1011 2189
Q 1312 2490 1568 2656
Q 2022 2931 2534 2931
Q 3162 2931 3584 2566
Q 4038 2163 4038 1491
Q 4038 806 3558 358
Q 3078 -83 2394 -83
Q 1670 -83 1146 454
Q 518 1088 518 2253
Q 518 3411 1120 4134
Q 1715 4858 2605 4858
Q 2938 4858 3226 4762
Q 3309 4730 3427 4682
Q 3546 4634 3699 4557
z
M 1062 1702
Q 1152 1152 1498 768
Q 1882 346 2419 346
Q 2899 346 3213 659
Q 3539 973 3539 1459
Q 3539 1920 3226 2214
Q 2918 2502 2496 2502
Q 1990 2502 1542 2176
Q 1414 2080 1292 1965
Q 1171 1850 1062 1702
z
" transform="scale(0.015625)"/>
       </defs>
       <use xlink:href="#AppleGothic-1e"/>
       <use xlink:href="#AppleGothic-18" transform="translate(68 0)"/>
      </g>
     </g>
    </g>
    <g id="xtick_5">
     <g id="line2d_9">
      <path d="M 564.83976 305.91576
L 564.83976 41.134445
" clip-path="url(#p9dbcd61d42)" style="fill: none; stroke: #e5eaed; stroke-width: 0.8; stroke-linecap: square"/>
     </g>
     <g id="line2d_10"/>
     <g id="text_5">
      <!-- 80 -->
      <g transform="translate(556.67976 320.10776) scale(0.12 -0.12)">
       <defs>
        <path id="AppleGothic-20" d="M 2957 2605
Q 3219 2528 3404 2445
Q 3590 2362 3706 2272
Q 4192 1926 4192 1370
Q 4192 749 3642 333
Q 3098 -83 2285 -83
Q 1434 -83 947 326
Q 512 691 512 1229
Q 512 1798 998 2125
Q 1146 2227 1341 2304
Q 1536 2381 1779 2451
Q 1574 2534 1430 2617
Q 1286 2701 1197 2784
Q 819 3104 819 3603
Q 819 4173 1261 4512
Q 1702 4858 2381 4858
Q 3014 4858 3437 4570
Q 3898 4262 3898 3738
Q 3898 3373 3670 3081
Q 3443 2790 2957 2605
z
M 2406 2752
Q 2624 2835 2781 2915
Q 2938 2995 3040 3066
Q 3398 3322 3398 3667
Q 3398 3994 3104 4205
Q 2822 4429 2362 4429
Q 1894 4429 1613 4205
Q 1325 3994 1325 3635
Q 1325 3322 1581 3098
Q 1696 3002 1901 2912
Q 2106 2822 2406 2752
z
M 2368 2304
Q 2061 2202 1840 2106
Q 1619 2010 1472 1920
Q 1011 1626 1011 1235
Q 1011 845 1376 595
Q 1728 346 2310 346
Q 2938 346 3315 640
Q 3693 934 3693 1338
Q 3693 1741 3238 1997
Q 3104 2067 2886 2147
Q 2669 2227 2368 2304
z
" transform="scale(0.015625)"/>
       </defs>
       <use xlink:href="#AppleGothic-20"/>
       <use xlink:href="#AppleGothic-18" transform="translate(68 0)"/>
      </g>
     </g>
    </g>
    <g id="text_6">
     <!-- 각 계약 유형 안의 월세 비중 (%) -->
     <g transform="translate(222.07 338.69976) scale(0.12 -0.12)">
      <defs>
       <path id="AppleGothic-a5c" d="M 5114 -499
L 4672 -518
L 4685 339
L 4672 1178
L 1325 1152
L 1325 1517
L 5094 1530
L 5114 -499
z
M 3373 4774
Q 3347 4614 3334 4442
Q 3251 4045 3053 3642
Q 2778 3098 2310 2662
Q 1926 2304 1466 2022
Q 1126 1818 918 1722
Q 710 1626 634 1626
Q 576 1677 518 1731
Q 461 1786 410 1843
Q 397 1856 377 1881
Q 358 1907 326 1939
L 346 1965
Q 371 1965 444 1990
Q 518 2016 653 2067
Q 826 2138 998 2224
Q 1171 2310 1350 2419
Q 1818 2701 2138 3040
Q 2458 3379 2662 3782
Q 2790 4038 2893 4429
L 582 4403
L 582 4774
L 3373 4774
z
M 6118 2970
L 5581 2976
Q 5229 2976 5101 2950
L 5088 2432
L 5094 1875
L 4666 1856
Q 4666 1965 4675 2352
Q 4685 2739 4685 3526
L 4678 4787
Q 4678 4922 4675 5018
Q 4672 5114 4659 5190
L 5011 5190
Q 5120 5178 5120 5126
Q 5120 5101 5101 5008
Q 5082 4915 5082 4877
L 5101 3334
L 6118 3354
L 6118 2970
z
" transform="scale(0.015625)"/>
       <path id="AppleGothic-3" transform="scale(0.015625)"/>
       <path id="AppleGothic-aa2" d="M 5670 5075
Q 5670 5062 5638 4963
Q 5606 4864 5606 4762
Q 5600 4653 5600 4505
Q 5600 4358 5594 4173
Q 5594 3987 5594 3747
Q 5594 3507 5587 3200
Q 5587 2899 5587 2582
Q 5587 2266 5581 1926
Q 5581 1658 5584 1322
Q 5587 986 5594 570
Q 5613 -256 5613 -384
L 5171 -410
L 5171 422
Q 5178 691 5178 1075
Q 5178 1459 5184 1978
Q 5190 2496 5190 2877
Q 5190 3258 5190 3514
L 5171 5190
Q 5254 5190 5344 5187
Q 5434 5184 5507 5171
Q 5581 5158 5625 5136
Q 5670 5114 5670 5075
z
M 4326 4832
Q 4326 4819 4297 4726
Q 4269 4634 4269 4576
L 4256 659
Q 4256 499 4256 390
Q 4256 282 4259 198
Q 4262 115 4265 51
Q 4269 -13 4275 -77
L 3840 -115
L 3846 1670
L 3354 1690
L 2810 1683
L 2810 2067
L 3354 2054
L 3846 2061
L 3846 2886
L 2861 2874
L 2861 3296
Q 2970 3290 3110 3286
Q 3251 3283 3334 3283
L 3846 3277
L 3853 4627
L 3840 4947
Q 4026 4947 4176 4928
Q 4326 4909 4326 4832
z
M 2938 4461
Q 2931 4384 2928 4301
Q 2925 4218 2918 4134
Q 2867 3718 2765 3315
Q 2611 2765 2326 2259
Q 2042 1754 1626 1325
Q 1338 1024 998 787
Q 762 614 723 614
Q 710 627 678 649
Q 646 672 582 704
Q 320 864 320 877
L 339 909
Q 1178 1235 1824 2214
Q 2490 3200 2490 4109
L 1843 4115
L 717 4090
L 717 4493
Q 1222 4493 2022 4474
Q 2426 4467 2650 4464
Q 2874 4461 2938 4461
z
" transform="scale(0.015625)"/>
       <path id="AppleGothic-fbe" d="M 3117 3462
Q 3117 3866 2835 4093
Q 2554 4320 2074 4320
Q 1645 4320 1370 4141
Q 1011 3930 1011 3482
Q 1011 3104 1350 2861
Q 1664 2656 2099 2656
Q 2522 2656 2803 2848
Q 3117 3078 3117 3462
z
M 5146 -506
L 4666 -531
Q 4666 -474 4669 -394
Q 4672 -314 4675 -224
Q 4678 -134 4681 -41
Q 4685 51 4685 128
L 4685 1178
L 3187 1184
L 1293 1171
L 1293 1542
Q 1536 1530 1872 1523
Q 2208 1517 2662 1517
L 5146 1523
Q 5139 1357 5136 1104
Q 5133 851 5133 397
L 5146 -506
z
M 3552 3469
Q 3552 2925 3104 2605
Q 2688 2304 2080 2304
Q 1459 2304 1018 2630
Q 582 2950 582 3482
Q 582 4006 941 4326
Q 1338 4678 2061 4678
Q 2790 4678 3187 4307
Q 3552 3968 3552 3469
z
M 6080 2483
L 5568 2496
Q 5434 2496 5322 2489
Q 5210 2483 5120 2470
L 5126 1882
L 4666 1869
Q 4666 1971 4675 2291
Q 4685 2611 4685 3117
L 4685 3565
Q 4685 4000 4681 4288
Q 4678 4576 4672 4723
Q 4666 4877 4662 4992
Q 4659 5107 4646 5190
Q 4813 5190 4986 5171
Q 5171 5152 5171 5094
Q 5171 5075 5139 4995
Q 5107 4915 5107 4845
L 5101 4442
L 5120 4006
L 5574 3994
L 6074 4006
L 6074 3622
L 5581 3635
Q 5434 3635 5318 3628
Q 5203 3622 5114 3610
L 5114 2854
Q 5146 2854 5203 2851
Q 5261 2848 5350 2842
Q 5440 2835 5494 2835
Q 5549 2835 5562 2835
Q 5734 2835 5872 2844
Q 6010 2854 6080 2867
L 6080 2483
z
" transform="scale(0.015625)"/>
       <path id="AppleGothic-1049" d="M 4800 3994
Q 4800 4352 4339 4525
Q 4109 4614 3808 4656
Q 3507 4698 3142 4698
Q 2330 4698 1894 4499
Q 1485 4326 1485 4045
Q 1485 3750 1926 3552
Q 2170 3430 2490 3376
Q 2810 3322 3213 3322
Q 3885 3322 4307 3482
Q 4800 3661 4800 3994
z
M 5990 1914
L 4442 1926
L 4435 717
L 4435 -134
Q 4442 -250 4445 -355
Q 4448 -461 4454 -563
L 3968 -557
L 3981 1914
L 2374 1914
L 2374 -467
L 1894 -474
Q 1894 -403 1894 -243
Q 1894 -83 1901 160
Q 1907 410 1910 582
Q 1914 755 1914 864
L 1907 1914
L 403 1914
L 403 2310
L 5990 2304
L 5990 1914
z
M 5242 4000
Q 5242 3482 4608 3194
Q 4026 2931 3181 2931
Q 2317 2931 1715 3200
Q 1043 3494 1043 4000
Q 1043 4602 1741 4870
Q 2259 5062 3142 5062
Q 4282 5062 4806 4742
Q 5242 4480 5242 4000
z
" transform="scale(0.015625)"/>
       <path id="AppleGothic-1328" d="M 5005 480
Q 5005 851 4499 986
Q 4122 1094 3450 1094
Q 2682 1094 2330 972
Q 1978 851 1978 499
Q 1978 218 2352 42
Q 2726 -134 3462 -134
Q 4122 -134 4429 -58
Q 5005 83 5005 480
z
M 3181 2586
Q 3181 2950 2842 3085
Q 2630 3181 2278 3181
Q 1965 3181 1734 3085
Q 1389 2950 1389 2592
Q 1389 2317 1664 2157
Q 1920 2010 2278 2010
Q 2643 2010 2899 2157
Q 3181 2323 3181 2586
z
M 5446 493
Q 5446 6 4979 -250
Q 4474 -531 3462 -531
Q 2688 -531 2144 -288
Q 1542 -19 1542 486
Q 1542 1050 2144 1280
Q 2611 1466 3430 1466
Q 4352 1466 4851 1254
Q 5446 1011 5446 493
z
M 3622 2586
Q 3622 2144 3283 1917
Q 2944 1690 2278 1690
Q 1798 1690 1485 1805
Q 928 2022 928 2586
Q 928 3034 1273 3267
Q 1619 3501 2278 3501
Q 2790 3501 3078 3379
Q 3622 3168 3622 2586
z
M 5453 5069
Q 5427 5005 5414 4966
Q 5402 4928 5402 4896
L 5389 3616
L 5414 1453
L 4947 1421
L 4954 2291
L 4422 2310
L 3872 2291
L 3872 2650
L 4410 2630
L 4954 2650
L 4966 2976
L 4954 3251
L 4864 3251
Q 4499 3270 4454 3270
L 3872 3251
L 3872 3616
L 4442 3603
L 4954 3616
L 4954 4211
Q 4954 4442 4944 4656
Q 4934 4870 4934 5094
L 4934 5190
L 4960 5190
Q 5171 5190 5312 5168
Q 5453 5146 5453 5069
z
M 3898 3808
Q 3808 3808 3696 3808
Q 3584 3808 3450 3814
Q 2906 3827 2582 3833
Q 2259 3840 2163 3840
Q 1760 3840 1357 3833
Q 954 3827 550 3808
L 550 4192
Q 858 4179 1229 4172
Q 1600 4166 1965 4166
L 3898 4192
L 3898 3808
z
M 3014 4576
L 2214 4595
L 1517 4576
L 1517 4960
L 2214 4941
L 3014 4960
L 3014 4576
z
" transform="scale(0.015625)"/>
       <path id="AppleGothic-fa6" d="M 3213 3200
Q 3213 3654 2893 3904
Q 2611 4134 2182 4134
Q 1741 4134 1421 3891
Q 1062 3629 1062 3206
Q 1062 2854 1338 2592
Q 1651 2310 2176 2310
Q 2598 2310 2906 2547
Q 3213 2784 3213 3200
z
M 5402 -339
L 1581 -390
Q 1594 -314 1600 -182
Q 1606 -51 1606 262
L 1606 416
Q 1606 634 1606 784
Q 1606 934 1600 1011
Q 1594 1094 1590 1161
Q 1587 1229 1574 1280
L 1658 1280
Q 1824 1280 1955 1264
Q 2086 1248 2086 1197
Q 2086 1184 2067 1107
Q 2048 1030 2048 960
L 2048 0
L 2624 -6
Q 3072 -6 3661 13
Q 4358 38 4793 48
Q 5229 58 5402 58
L 5402 -339
z
M 6035 2630
Q 5843 2630 5510 2611
Q 5344 2605 5251 2601
Q 5158 2598 5126 2598
L 5126 858
L 4666 851
Q 4678 1101 4684 1529
Q 4691 1958 4691 2534
L 4691 3104
Q 4691 3712 4684 4169
Q 4678 4627 4666 4941
Q 4666 5056 4646 5190
L 4749 5190
Q 4941 5190 5056 5171
Q 5171 5152 5171 5082
Q 5171 5062 5145 4992
Q 5120 4922 5120 4870
L 5114 3008
L 5510 2989
L 6035 3008
L 6035 2630
z
M 3654 3187
Q 3654 2630 3213 2278
Q 2778 1939 2170 1939
Q 1830 1939 1561 2012
Q 1293 2086 1088 2246
Q 646 2579 646 3194
Q 646 3802 1075 4154
Q 1510 4512 2170 4512
Q 2835 4512 3238 4147
Q 3654 3795 3654 3187
z
" transform="scale(0.015625)"/>
       <path id="AppleGothic-1061" d="M 3571 3379
Q 3571 4218 2573 4218
Q 2061 4218 1776 3987
Q 1491 3757 1491 3386
Q 1491 2970 1786 2733
Q 2054 2522 2509 2522
Q 3059 2522 3328 2765
Q 3571 2976 3571 3379
z
M 4608 1094
Q 4134 1018 3872 979
Q 3456 928 3120 899
Q 2784 870 2528 870
L 902 813
Q 858 800 816 790
Q 774 781 730 768
Q 653 768 608 941
Q 563 1114 563 1242
L 2477 1248
Q 2938 1248 3334 1273
Q 3731 1299 4070 1350
Q 4282 1376 4576 1459
L 4608 1094
z
M 5466 5069
Q 5466 5037 5437 4944
Q 5408 4851 5408 4813
L 5408 2298
Q 5408 2010 5411 1683
Q 5414 1357 5421 973
Q 5427 595 5433 230
Q 5440 -134 5453 -499
L 4973 -557
L 4973 45
Q 4979 237 4979 512
Q 4979 787 4986 1158
Q 4992 1523 4992 1788
Q 4992 2054 4992 2221
Q 4992 2880 4985 3357
Q 4979 3834 4966 4122
Q 4954 4410 4944 4675
Q 4934 4941 4922 5184
L 5024 5184
Q 5190 5184 5328 5158
Q 5466 5133 5466 5069
z
M 4006 3328
Q 4006 2790 3578 2464
Q 3155 2138 2528 2138
Q 1894 2138 1504 2445
Q 1088 2765 1088 3341
Q 1088 3955 1517 4288
Q 1920 4602 2541 4602
Q 3174 4602 3597 4269
Q 4006 3936 4006 3354
L 4006 3328
z
" transform="scale(0.015625)"/>
       <path id="AppleGothic-1035" d="M 3264 4128
Q 3264 4346 3066 4506
Q 2829 4685 2394 4685
Q 1952 4685 1702 4560
Q 1453 4435 1453 4122
Q 1453 3872 1734 3731
Q 2010 3590 2394 3590
Q 2752 3590 2989 3712
Q 3264 3872 3264 4128
z
M 5587 -358
L 3603 -346
Q 3002 -346 2480 -358
Q 1958 -371 1498 -390
Q 1510 -294 1520 -131
Q 1530 32 1530 179
Q 1530 467 1523 592
Q 1517 717 1504 787
L 3520 800
Q 3885 800 4237 806
Q 4589 813 4890 826
L 4890 1267
Q 4563 1267 4112 1257
Q 3661 1248 3187 1238
Q 2714 1229 2266 1222
Q 1818 1216 1491 1216
L 1491 1542
Q 1760 1530 2121 1523
Q 2483 1517 2957 1517
Q 3168 1517 3510 1520
Q 3853 1523 4339 1530
Q 4819 1536 5072 1539
Q 5325 1542 5357 1542
L 5344 1030
L 5363 557
Q 5197 550 4982 544
Q 4768 538 4499 531
Q 4230 525 3993 525
Q 3757 525 3546 525
Q 3238 525 2924 515
Q 2611 506 2266 493
Q 2138 493 1965 474
L 1965 -51
L 3213 -64
L 3597 -64
Q 4134 -64 4915 -26
Q 5165 -19 5587 13
L 5587 -358
z
M 4250 2739
L 2618 2605
L 2605 2170
Q 2605 1984 2608 1917
Q 2611 1850 2618 1811
L 2189 1805
L 2182 2586
L 922 2534
Q 870 2534 787 2505
Q 704 2477 685 2477
Q 640 2477 614 2534
L 486 2886
L 979 2880
Q 1088 2880 1273 2883
Q 1459 2886 1722 2893
Q 2227 2912 2406 2912
Q 2630 2912 2921 2931
Q 3213 2950 3584 2982
Q 3706 2995 3866 3011
Q 4026 3027 4230 3053
L 4250 2739
z
M 5402 5082
Q 5402 5069 5382 4976
Q 5363 4883 5363 4794
L 5357 3584
Q 5357 2963 5363 2547
Q 5370 2131 5382 1824
L 4928 1760
L 4928 2112
L 4499 2118
L 3622 2093
L 3622 2426
L 4314 2413
Q 4525 2413 4688 2422
Q 4851 2432 4941 2445
L 4941 4762
Q 4941 4966 4934 5056
Q 4928 5146 4915 5190
Q 5126 5190 5264 5177
Q 5402 5165 5402 5082
z
M 3699 4122
Q 3699 3706 3334 3475
Q 2976 3264 2394 3264
Q 1818 3264 1446 3482
Q 1043 3712 1043 4122
Q 1043 4512 1350 4742
Q 1523 4883 1785 4947
Q 2048 5011 2394 5011
Q 3104 5011 3424 4736
Q 3699 4499 3699 4122
z
" transform="scale(0.015625)"/>
       <path id="AppleGothic-ede" d="M 5722 5062
Q 5722 5024 5690 4950
Q 5658 4877 5658 4845
L 5658 2381
Q 5658 1779 5658 1366
Q 5658 954 5664 710
Q 5670 474 5670 266
Q 5670 58 5677 -122
Q 5683 -467 5696 -467
L 5197 -499
L 5197 26
Q 5203 198 5203 432
Q 5203 666 5203 966
Q 5210 1274 5210 1597
Q 5210 1920 5216 2272
Q 5216 3072 5213 3590
Q 5210 4109 5203 4378
Q 5203 4646 5196 4844
Q 5190 5043 5178 5190
L 5203 5190
Q 5427 5190 5574 5168
Q 5722 5146 5722 5062
z
M 4576 4979
Q 4576 4960 4557 4873
Q 4538 4787 4538 4704
L 4538 2630
L 4538 1376
Q 4544 1075 4544 828
Q 4544 582 4550 378
Q 4563 -32 4563 -32
L 4083 -70
L 4096 1242
L 4096 2637
L 3136 2637
L 3136 3046
L 3654 3027
L 4096 3046
L 4096 4634
L 4070 5075
L 4179 5075
Q 4346 5075 4461 5056
Q 4576 5037 4576 4979
z
M 3539 1459
Q 3539 1440 3437 1357
Q 3366 1293 3305 1238
Q 3245 1184 3174 1126
Q 3098 1178 3040 1216
Q 2982 1254 2938 1299
Q 2803 1427 2681 1574
Q 2560 1722 2458 1907
Q 2387 2022 2323 2160
Q 2259 2298 2208 2451
Q 2195 2502 2176 2560
Q 2157 2618 2131 2694
Q 2118 2650 2076 2566
Q 2035 2483 1965 2355
Q 1760 1990 1533 1702
Q 1306 1414 1024 1152
Q 934 1062 813 960
Q 781 986 742 1024
Q 704 1062 627 1114
Q 589 1139 502 1168
Q 416 1197 416 1216
L 429 1242
Q 454 1242 749 1523
Q 934 1709 1097 1907
Q 1261 2106 1408 2323
Q 1792 2925 1939 3565
Q 1984 3738 2016 4205
Q 2022 4275 2028 4377
Q 2035 4480 2048 4614
Q 2131 4614 2362 4544
Q 2586 4480 2586 4403
Q 2586 4384 2534 4294
Q 2522 4269 2515 4249
Q 2509 4230 2502 4218
Q 2490 4166 2483 4124
Q 2477 4083 2470 4045
Q 2432 3782 2432 3552
Q 2445 3322 2483 3082
Q 2522 2842 2611 2605
Q 2701 2368 2854 2137
Q 3008 1907 3245 1690
Q 3360 1581 3539 1459
z
" transform="scale(0.015625)"/>
       <path id="AppleGothic-e57" d="M 2963 2157
L 2957 2893
L 954 2893
L 973 1453
L 1952 1434
L 2957 1453
L 2963 2157
z
M 5453 5094
Q 5453 5069 5433 5005
Q 5414 4941 5414 4922
L 5414 4416
Q 5395 2554 5395 2253
Q 5395 1357 5408 681
Q 5421 6 5440 -557
L 4941 -570
Q 4947 -390 4947 -124
Q 4947 141 4954 493
Q 4960 851 4960 1129
Q 4960 1408 4960 1613
L 4960 2266
Q 4960 2554 4957 2822
Q 4954 3091 4947 3354
Q 4941 3622 4937 3884
Q 4934 4147 4934 4416
Q 4928 4947 4915 5190
L 5114 5197
Q 5248 5197 5350 5174
Q 5453 5152 5453 5094
z
M 3450 1043
L 506 1043
L 518 2720
Q 518 3360 512 3757
Q 506 4154 493 4429
L 877 4410
Q 986 4410 986 4333
Q 986 4307 970 4243
Q 954 4179 954 4160
L 954 3296
Q 1114 3290 1344 3286
Q 1574 3283 1971 3283
L 2957 3296
L 2938 4480
L 3194 4486
Q 3322 4486 3386 4467
Q 3450 4448 3450 4390
Q 3450 4371 3437 4313
Q 3424 4256 3424 4230
L 3418 3085
Q 3418 2566 3424 2057
Q 3430 1549 3450 1043
z
" transform="scale(0.015625)"/>
       <path id="AppleGothic-10d7" d="M 4762 429
Q 4762 723 4352 883
Q 4122 973 3818 1017
Q 3514 1062 3136 1062
Q 2445 1062 2003 896
Q 1568 723 1568 435
Q 1568 166 1984 19
Q 2400 -128 3130 -128
Q 3437 -128 3683 -105
Q 3930 -83 4134 -38
Q 4762 109 4762 429
z
M 6010 2170
L 4755 2208
L 3373 2208
L 3373 1434
Q 4205 1434 4717 1184
Q 5235 934 5235 435
Q 5235 -26 4675 -259
Q 4115 -493 3136 -493
Q 2214 -493 1677 -269
Q 1101 -26 1101 435
Q 1101 1069 1914 1299
Q 2112 1363 2874 1434
L 2880 2208
L 1786 2208
Q 1446 2208 1075 2195
Q 704 2182 390 2170
L 390 2566
Q 403 2566 524 2563
Q 646 2560 877 2554
Q 1344 2547 1917 2540
Q 2490 2534 3168 2534
Q 3904 2534 4608 2540
Q 5312 2547 6010 2566
L 6010 2170
z
M 5568 3424
Q 5562 3411 5562 3404
Q 5562 3398 5555 3392
Q 5536 3360 5491 3328
Q 5446 3296 5376 3181
Q 5363 3168 5347 3139
Q 5331 3110 5306 3072
Q 5139 3091 5011 3113
Q 4883 3136 4774 3162
Q 4154 3328 3712 3648
Q 3584 3750 3478 3849
Q 3373 3949 3296 4058
Q 3270 4090 3244 4131
Q 3219 4173 3194 4224
Q 3168 4179 3145 4144
Q 3123 4109 3098 4077
Q 2822 3706 2310 3411
Q 1971 3226 1459 3117
Q 1370 3104 1261 3091
Q 1152 3078 1005 3066
Q 973 3098 953 3126
Q 934 3155 922 3174
Q 826 3290 774 3334
Q 755 3347 723 3392
Q 710 3405 704 3424
Q 730 3443 749 3443
L 909 3443
Q 1030 3456 1129 3465
Q 1229 3475 1306 3488
Q 1536 3533 1757 3606
Q 1978 3680 2182 3789
Q 2598 4006 2803 4378
Q 2861 4499 2912 4691
L 2445 4698
L 973 4666
L 973 5075
Q 1094 5069 1190 5069
Q 1286 5069 1370 5069
Q 1920 5056 2313 5049
Q 2707 5043 2950 5043
L 5312 5075
L 5312 4666
L 4307 4691
L 3392 4691
Q 3392 4544 3520 4368
Q 3648 4192 3872 4006
Q 4269 3693 4870 3552
Q 4966 3526 5097 3507
Q 5229 3488 5395 3462
Q 5568 3462 5568 3424
z
" transform="scale(0.015625)"/>
       <path id="AppleGothic-10" d="M 2227 5261
L 2650 5261
Q 2342 4768 2169 4473
Q 1997 4179 1958 4083
Q 1606 3283 1606 2272
Q 1606 1587 1754 1018
Q 1882 570 2138 102
Q 2150 70 2275 -131
Q 2400 -333 2630 -717
L 2227 -717
Q 2099 -531 1980 -355
Q 1862 -179 1734 0
Q 1581 243 1469 483
Q 1357 723 1274 954
Q 1069 1587 1069 2272
Q 1069 2963 1261 3558
Q 1338 3789 1450 4022
Q 1562 4256 1715 4499
Q 1843 4691 1971 4880
Q 2099 5069 2227 5261
z
" transform="scale(0.015625)"/>
       <path id="AppleGothic-d" d="M 4896 -45
Q 4320 -45 3949 339
Q 3590 717 3590 1274
Q 3590 1856 3962 2227
Q 4333 2598 4877 2598
Q 5402 2598 5779 2234
Q 6150 1869 6150 1286
Q 6150 691 5760 307
Q 5389 -45 4896 -45
z
M 4864 378
Q 5024 378 5168 442
Q 5312 506 5421 624
Q 5530 742 5594 905
Q 5658 1069 5658 1267
Q 5658 1658 5427 1920
Q 5190 2176 4883 2176
Q 4582 2176 4352 1958
Q 4090 1696 4090 1286
Q 4090 883 4320 634
Q 4550 378 4864 378
z
M 4557 5370
L 5030 5370
L 2016 -333
L 1549 -333
L 4045 4378
L 4026 4397
Q 3930 4333 3776 4278
Q 3622 4224 3456 4224
Q 3347 4224 3177 4259
Q 3008 4294 2835 4371
Q 2867 4301 2886 4240
Q 2906 4179 2918 4128
Q 2970 3936 2970 3750
Q 2970 3187 2598 2810
Q 2227 2438 1690 2438
Q 1146 2438 781 2810
Q 422 3187 422 3763
Q 422 4339 787 4717
Q 1158 5101 1690 5101
Q 1952 5101 2522 4870
Q 2803 4755 3024 4700
Q 3245 4646 3411 4646
Q 3802 4646 4077 4819
Q 4403 5018 4557 5370
z
M 1683 2854
Q 2003 2854 2240 3110
Q 2470 3366 2470 3770
Q 2470 3974 2406 4144
Q 2342 4314 2236 4432
Q 2131 4550 1990 4614
Q 1850 4678 1690 4678
Q 1530 4678 1392 4614
Q 1254 4550 1148 4432
Q 1043 4314 982 4144
Q 922 3974 922 3770
Q 922 3334 1171 3078
Q 1382 2854 1683 2854
z
" transform="scale(0.015625)"/>
       <path id="AppleGothic-11" d="M 2221 2272
Q 2221 1587 2016 960
Q 1862 499 1555 6
Q 1427 -179 1305 -355
Q 1184 -531 1062 -717
L 659 -717
Q 781 -512 902 -310
Q 1024 -109 1152 96
Q 1280 333 1376 557
Q 1472 781 1530 1005
Q 1683 1562 1683 2272
Q 1683 2650 1641 2973
Q 1600 3296 1517 3584
Q 1459 3802 1356 4029
Q 1254 4256 1120 4499
Q 992 4691 873 4880
Q 755 5069 640 5261
L 1062 5261
Q 1190 5069 1315 4880
Q 1440 4691 1568 4506
Q 1722 4256 1837 4022
Q 1952 3789 2022 3565
Q 2221 2976 2221 2272
z
" transform="scale(0.015625)"/>
      </defs>
      <use xlink:href="#AppleGothic-a5c"/>
      <use xlink:href="#AppleGothic-3" transform="translate(100 0)"/>
      <use xlink:href="#AppleGothic-aa2" transform="translate(132 0)"/>
      <use xlink:href="#AppleGothic-fbe" transform="translate(232 0)"/>
      <use xlink:href="#AppleGothic-3" transform="translate(332 0)"/>
      <use xlink:href="#AppleGothic-1049" transform="translate(364 0)"/>
      <use xlink:href="#AppleGothic-1328" transform="translate(464 0)"/>
      <use xlink:href="#AppleGothic-3" transform="translate(564 0)"/>
      <use xlink:href="#AppleGothic-fa6" transform="translate(596 0)"/>
      <use xlink:href="#AppleGothic-1061" transform="translate(696 0)"/>
      <use xlink:href="#AppleGothic-3" transform="translate(796 0)"/>
      <use xlink:href="#AppleGothic-1035" transform="translate(828 0)"/>
      <use xlink:href="#AppleGothic-ede" transform="translate(928 0)"/>
      <use xlink:href="#AppleGothic-3" transform="translate(1028 0)"/>
      <use xlink:href="#AppleGothic-e57" transform="translate(1060 0)"/>
      <use xlink:href="#AppleGothic-10d7" transform="translate(1160 0)"/>
      <use xlink:href="#AppleGothic-3" transform="translate(1260 0)"/>
      <use xlink:href="#AppleGothic-10" transform="translate(1292 0)"/>
      <use xlink:href="#AppleGothic-d" transform="translate(1342 0)"/>
      <use xlink:href="#AppleGothic-11" transform="translate(1442 0)"/>
     </g>
    </g>
   </g>
   <g id="matplotlib.axis_2">
    <g id="ytick_1">
     <g id="line2d_11"/>
     <g id="text_7">
      <!-- 전체 -->
      <g transform="translate(30.84024 78.57515) scale(0.12 -0.12)">
       <defs>
        <path id="AppleGothic-1096" d="M 3981 2138
L 3648 1830
Q 3616 1850 3587 1869
Q 3558 1888 3533 1901
Q 3226 2112 2854 2522
Q 2643 2739 2496 3066
Q 2445 3162 2381 3334
Q 2304 3142 2246 3027
Q 2144 2842 2022 2666
Q 1901 2490 1741 2323
Q 1504 2067 1146 1798
Q 1088 1754 1011 1706
Q 934 1658 838 1594
Q 832 1613 557 1792
Q 429 1882 429 1901
Q 1126 2195 1626 2842
Q 2170 3546 2170 4256
Q 2138 4262 2102 4265
Q 2067 4269 2035 4269
Q 1786 4288 1530 4288
L 806 4269
L 806 4672
Q 992 4659 1328 4646
Q 1664 4634 2163 4634
L 2336 4634
Q 2662 4634 2902 4637
Q 3142 4640 3309 4646
Q 3475 4653 3606 4659
Q 3738 4666 3846 4666
L 3846 4269
L 3264 4282
Q 3046 4282 2758 4262
Q 2733 4262 2697 4259
Q 2662 4256 2611 4250
Q 2611 3917 2675 3667
Q 2771 3270 3024 2960
Q 3277 2650 3558 2426
Q 3635 2355 3737 2294
Q 3840 2234 3968 2163
L 3981 2138
z
M 5587 -13
L 5562 -410
L 4634 -403
Q 4256 -403 3792 -406
Q 3328 -410 2752 -416
Q 1619 -435 1440 -435
L 1446 230
L 1421 1274
L 1536 1274
Q 1722 1274 1840 1254
Q 1958 1235 1958 1184
Q 1958 1165 1932 1081
Q 1907 998 1907 941
L 1907 -32
L 2893 -45
Q 2950 -45 3043 -45
Q 3136 -45 3270 -38
Q 3398 -32 3497 -32
Q 3597 -32 3667 -32
L 5587 -13
z
M 5421 5075
Q 5421 5056 5401 4995
Q 5382 4934 5382 4883
L 5370 2893
Q 5370 2566 5370 2288
Q 5370 2010 5376 1763
Q 5382 1517 5385 1296
Q 5389 1075 5402 864
L 4928 864
L 4941 2042
L 4941 3059
L 3757 3059
L 3757 3475
L 4218 3462
L 4941 3482
L 4941 4698
Q 4941 5088 4915 5190
L 4941 5190
Q 5139 5190 5280 5171
Q 5421 5152 5421 5075
z
" transform="scale(0.015625)"/>
        <path id="AppleGothic-1170" d="M 3462 1190
Q 3456 1178 3456 1165
Q 3450 1146 3405 1114
L 3155 896
Q 3091 941 3046 982
Q 3002 1024 2963 1056
Q 2842 1165 2739 1277
Q 2637 1389 2541 1510
Q 2464 1619 2393 1728
Q 2323 1837 2266 1965
Q 2246 2003 2224 2051
Q 2202 2099 2176 2163
Q 2157 2131 2141 2099
Q 2125 2067 2112 2042
Q 2022 1894 1910 1747
Q 1798 1600 1664 1453
Q 1402 1165 1126 960
Q 1075 928 1014 889
Q 954 851 883 806
Q 800 877 755 912
Q 710 947 698 960
Q 550 1094 550 1120
Q 550 1146 595 1165
Q 614 1171 666 1197
Q 774 1248 867 1309
Q 960 1370 1037 1434
Q 1158 1530 1280 1658
Q 1402 1786 1530 1952
Q 1760 2240 1894 2582
Q 2029 2925 2029 3226
L 1472 3226
L 826 3206
L 826 3610
Q 902 3610 1065 3606
Q 1229 3603 1485 3603
Q 1747 3597 1907 3597
Q 2067 3597 2131 3597
L 3437 3610
L 3437 3206
L 3334 3206
Q 2950 3226 2906 3226
L 2464 3226
Q 2458 3206 2458 3168
Q 2438 2982 2438 2854
Q 2438 2669 2457 2569
Q 2477 2470 2528 2355
Q 2790 1798 3206 1421
Q 3264 1363 3392 1267
Q 3411 1254 3430 1235
Q 3462 1203 3462 1190
z
M 5690 5069
Q 5690 5030 5670 4963
Q 5651 4896 5651 4877
L 5619 2381
L 5632 -378
Q 5632 -474 5549 -499
Q 5485 -512 5437 -515
Q 5389 -518 5357 -525
Q 5152 -525 5152 -454
L 5184 2438
L 5171 5184
L 5363 5190
Q 5510 5190 5600 5164
Q 5690 5139 5690 5069
z
M 4589 4960
L 4570 4826
Q 4557 4435 4550 3920
Q 4544 3405 4544 2746
L 4557 26
Q 4538 -90 4442 -115
Q 4416 -122 4368 -125
Q 4320 -128 4237 -128
Q 4051 -128 4051 -51
Q 4051 19 4054 169
Q 4058 320 4064 550
Q 4083 1011 4083 1165
L 4090 2304
L 3085 2285
L 3085 2701
Q 3206 2688 3356 2681
Q 3507 2675 3654 2675
L 4083 2682
L 4090 3450
L 4077 5050
L 4250 5056
Q 4378 5056 4483 5033
Q 4589 5011 4589 4960
z
M 2835 4192
L 1504 4192
L 1504 4595
Q 1555 4589 1635 4589
Q 1715 4589 1824 4582
Q 1933 4576 2025 4576
Q 2118 4576 2202 4576
L 2624 4576
Q 2746 4582 2835 4595
L 2835 4192
z
" transform="scale(0.015625)"/>
       </defs>
       <use xlink:href="#AppleGothic-1096"/>
       <use xlink:href="#AppleGothic-1170" transform="translate(100 0)"/>
      </g>
     </g>
    </g>
    <g id="ytick_2">
     <g id="line2d_12"/>
     <g id="text_8">
      <!-- 신규 명시 -->
      <g transform="translate(3.00024 145.439118) scale(0.12 -0.12)">
       <defs>
        <path id="AppleGothic-f45" d="M 5574 -448
L 5203 -448
Q 3840 -429 3642 -429
L 2362 -429
Q 1939 -442 1555 -448
L 1568 358
L 1555 1075
L 1594 1075
Q 1786 1075 1949 1056
Q 2112 1037 2112 973
Q 2112 947 2080 876
Q 2048 806 2048 781
L 2035 403
L 2054 -32
Q 2182 -38 2374 -38
Q 2566 -38 2816 -45
Q 3072 -51 3273 -51
Q 3475 -51 3622 -51
Q 4006 -51 4304 -51
Q 4602 -51 4813 -45
Q 5024 -38 5213 -35
Q 5402 -32 5574 -19
L 5574 -448
z
M 5466 5056
Q 5466 5030 5437 4956
Q 5408 4883 5408 4845
L 5395 2822
L 5408 717
L 4928 685
Q 4934 986 4937 1296
Q 4941 1606 4947 1939
Q 4954 2266 4957 2515
Q 4960 2765 4960 2931
Q 4960 3450 4957 3824
Q 4954 4198 4947 4422
Q 4941 4653 4937 4841
Q 4934 5030 4922 5190
L 4979 5190
Q 5165 5190 5315 5164
Q 5466 5139 5466 5056
z
M 4198 2202
Q 4147 2150 4108 2112
Q 4070 2074 4045 2048
Q 3878 1894 3872 1894
Q 3802 1946 3741 1984
Q 3680 2022 3629 2054
Q 3328 2278 3062 2563
Q 2797 2848 2592 3258
Q 2560 3322 2525 3411
Q 2490 3501 2445 3610
Q 2406 3520 2368 3440
Q 2330 3360 2291 3296
Q 2067 2893 1709 2528
Q 1421 2221 1056 1958
Q 992 1914 918 1859
Q 845 1805 742 1741
L 518 1914
Q 486 1933 460 1952
Q 435 1971 416 1984
Q 410 1990 403 1996
Q 397 2003 384 2010
Q 390 2029 403 2042
Q 403 2048 442 2080
Q 448 2080 666 2227
Q 806 2323 931 2422
Q 1056 2522 1178 2630
Q 1344 2784 1481 2937
Q 1619 3091 1728 3245
Q 1984 3610 2128 4029
Q 2272 4448 2272 4838
Q 2445 4813 2566 4781
Q 2803 4723 2803 4666
Q 2803 4653 2787 4624
Q 2771 4595 2752 4566
Q 2733 4538 2717 4509
Q 2701 4480 2701 4474
Q 2701 4250 2790 3930
Q 2925 3450 3245 3040
Q 3366 2886 3516 2742
Q 3667 2598 3853 2464
Q 3910 2419 3990 2364
Q 4070 2310 4166 2253
Q 4179 2240 4198 2202
z
" transform="scale(0.015625)"/>
        <path id="AppleGothic-aec" d="M 5984 2278
L 4365 2278
L 4365 806
L 4397 -480
L 3936 -499
L 3942 77
L 3910 2266
L 2400 2246
L 2400 -378
L 1958 -378
Q 1965 -288 1965 -169
Q 1965 -51 1971 115
Q 1978 282 1978 406
Q 1978 531 1978 634
L 1971 2259
Q 1901 2253 1801 2253
Q 1702 2253 1574 2246
Q 1446 2240 1350 2240
Q 1254 2240 1184 2240
L 410 2234
L 410 2598
L 2573 2605
Q 3155 2605 3616 2617
Q 4077 2630 4435 2643
Q 4512 2810 4666 3578
Q 4749 3968 4790 4205
Q 4832 4442 4832 4531
L 3098 4538
Q 2592 4538 2038 4531
Q 1485 4525 1018 4512
L 1018 4915
L 3149 4902
L 5344 4922
Q 5318 4678 5276 4393
Q 5235 4109 5165 3776
Q 5094 3443 5020 3161
Q 4947 2880 4870 2650
L 5421 2656
L 5984 2682
L 5984 2278
z
" transform="scale(0.015625)"/>
        <path id="AppleGothic-d97" d="M 4998 480
Q 4998 851 4435 992
Q 4237 1043 3981 1072
Q 3725 1101 3398 1101
L 3245 1101
Q 2598 1101 2221 992
Q 1734 858 1734 512
Q 1734 160 2227 -6
Q 2432 -77 2704 -109
Q 2976 -141 3328 -141
Q 3699 -141 3984 -115
Q 4269 -90 4474 -26
Q 4998 128 4998 480
z
M 2912 2438
L 2912 4262
L 1235 4262
L 1242 2438
L 2131 2426
L 2912 2438
z
M 5434 493
Q 5434 -19 4838 -275
Q 4288 -506 3315 -506
Q 2419 -506 1875 -282
Q 1254 -19 1254 506
Q 1254 1011 1914 1248
Q 2470 1466 3398 1466
Q 4339 1466 4858 1229
Q 5434 973 5434 493
z
M 3386 2054
L 787 2042
L 806 3469
Q 806 3795 800 4102
Q 794 4410 781 4659
L 1862 4646
L 3379 4659
L 3360 3360
Q 3360 2989 3366 2656
Q 3373 2323 3386 2054
z
M 5440 5082
Q 5440 5050 5417 4970
Q 5395 4890 5395 4858
Q 5395 4768 5395 4614
Q 5395 4461 5389 4243
Q 5382 4032 5382 3821
Q 5382 3610 5376 3398
Q 5376 2918 5376 2595
Q 5376 2272 5382 2106
Q 5389 1939 5392 1814
Q 5395 1690 5408 1594
L 4922 1581
Q 4922 1581 4925 1597
Q 4928 1613 4928 1657
Q 4928 1702 4931 1785
Q 4934 1869 4934 2010
L 4934 2528
L 4582 2528
Q 4371 2528 4140 2521
Q 3910 2515 3706 2502
L 3706 2906
L 4557 2893
L 4934 2899
L 4934 3718
L 4512 3706
Q 4243 3706 3878 3686
Q 3846 3686 3801 3683
Q 3757 3680 3706 3674
L 3706 4090
L 4461 4070
L 4934 4077
L 4941 4634
Q 4941 4870 4934 4998
Q 4928 5126 4915 5190
L 5030 5190
Q 5222 5190 5331 5171
Q 5440 5152 5440 5082
z
" transform="scale(0.015625)"/>
        <path id="AppleGothic-f43" d="M 5459 5062
Q 5459 5043 5440 4969
Q 5421 4896 5421 4826
L 5402 2349
L 5414 -531
L 4909 -557
Q 4915 -410 4915 -278
Q 4915 -147 4922 -19
Q 4928 218 4941 1190
Q 4960 2150 4960 2253
Q 4960 3923 4941 4416
Q 4934 4915 4922 5190
Q 5146 5190 5302 5158
Q 5459 5126 5459 5062
z
M 4250 1478
Q 4250 1459 4224 1434
Q 4211 1421 4179 1395
Q 4147 1370 4109 1338
L 3917 1178
Q 3866 1210 3821 1242
Q 3776 1274 3738 1306
Q 3290 1658 2899 2227
Q 2707 2496 2534 2918
Q 2515 2976 2483 3072
Q 2451 3168 2400 3309
Q 2221 2688 1754 2054
Q 1267 1389 710 1114
Q 698 1120 653 1155
Q 608 1190 518 1254
Q 486 1280 444 1312
Q 403 1344 346 1395
Q 346 1421 371 1427
Q 397 1440 406 1449
Q 416 1459 422 1466
Q 467 1466 710 1645
Q 896 1773 1056 1920
Q 1216 2067 1350 2234
Q 1549 2464 1696 2729
Q 1843 2995 1952 3296
Q 2061 3610 2125 4000
Q 2157 4205 2173 4381
Q 2189 4557 2189 4717
Q 2323 4717 2534 4678
Q 2752 4653 2752 4576
Q 2752 4544 2710 4470
Q 2669 4397 2669 4378
L 2630 4032
Q 2656 3923 2681 3814
Q 2707 3706 2739 3597
Q 2790 3430 2857 3248
Q 2925 3066 3021 2867
Q 3264 2349 3757 1894
Q 3840 1818 3949 1728
Q 4058 1638 4198 1530
L 4237 1491
L 4250 1478
z
" transform="scale(0.015625)"/>
       </defs>
       <use xlink:href="#AppleGothic-f45"/>
       <use xlink:href="#AppleGothic-aec" transform="translate(100 0)"/>
       <use xlink:href="#AppleGothic-3" transform="translate(200 0)"/>
       <use xlink:href="#AppleGothic-d97" transform="translate(232 0)"/>
       <use xlink:href="#AppleGothic-f43" transform="translate(332 0)"/>
      </g>
     </g>
    </g>
    <g id="ytick_3">
     <g id="line2d_13"/>
     <g id="text_9">
      <!-- 갱신 명시 -->
      <g transform="translate(3.00024 212.303087) scale(0.12 -0.12)">
       <defs>
        <path id="AppleGothic-a75" d="M 5165 474
Q 5165 883 4557 1056
Q 4154 1171 3482 1171
Q 2778 1171 2400 1082
Q 1754 928 1754 512
Q 1754 109 2342 -45
Q 2534 -96 2822 -118
Q 3110 -141 3494 -141
Q 3866 -141 4128 -125
Q 4390 -109 4557 -70
Q 5165 77 5165 474
z
M 5619 448
Q 5619 -134 4890 -371
Q 4390 -525 3507 -525
Q 2534 -525 2010 -346
Q 1318 -90 1318 493
Q 1318 1082 1965 1312
Q 2445 1491 3411 1491
L 3565 1491
Q 4717 1491 5203 1197
Q 5619 934 5619 448
z
M 3059 4582
Q 3046 4493 3033 4409
Q 3021 4326 3008 4237
Q 2918 3814 2758 3430
Q 2522 2899 2150 2528
Q 1786 2157 1242 1811
Q 1152 1754 1033 1690
Q 915 1626 768 1542
Q 768 1542 576 1683
Q 397 1805 397 1830
Q 403 1850 410 1850
Q 704 1958 864 2029
Q 1395 2291 1734 2611
Q 2150 3014 2374 3475
Q 2445 3616 2496 3798
Q 2547 3981 2592 4205
L 2112 4211
L 570 4173
L 570 4550
Q 659 4550 771 4547
Q 883 4544 998 4541
Q 1114 4538 1222 4538
Q 1331 4538 1421 4538
L 1651 4538
Q 2099 4538 2435 4550
Q 2771 4563 3059 4582
z
M 5670 5107
Q 5670 5088 5644 4989
Q 5619 4890 5619 4794
Q 5613 4646 5609 4412
Q 5606 4179 5606 3763
L 5638 1517
L 5190 1491
L 5190 2886
L 4275 2867
L 4269 1747
L 3846 1734
L 3866 4090
Q 3866 4333 3866 4496
Q 3866 4659 3859 4742
Q 3853 4832 3849 4902
Q 3846 4973 3834 5030
L 3872 5030
Q 4077 5030 4195 5017
Q 4314 5005 4314 4954
Q 4314 4941 4288 4867
Q 4262 4794 4262 4730
L 4256 4064
L 4256 3488
Q 4262 3418 4265 3360
Q 4269 3302 4275 3245
L 5197 3264
L 5197 4698
Q 5197 4858 5184 4954
Q 5171 5050 5165 5126
Q 5165 5197 5254 5197
L 5549 5178
Q 5670 5178 5670 5107
z
" transform="scale(0.015625)"/>
       </defs>
       <use xlink:href="#AppleGothic-a75"/>
       <use xlink:href="#AppleGothic-f45" transform="translate(100 0)"/>
       <use xlink:href="#AppleGothic-3" transform="translate(200 0)"/>
       <use xlink:href="#AppleGothic-d97" transform="translate(232 0)"/>
       <use xlink:href="#AppleGothic-f43" transform="translate(332 0)"/>
      </g>
     </g>
    </g>
    <g id="ytick_4">
     <g id="line2d_14"/>
     <g id="text_10">
      <!-- 미기재 -->
      <g transform="translate(18.84024 279.167055) scale(0.12 -0.12)">
       <defs>
        <path id="AppleGothic-dd4" d="M 3053 1600
L 3053 3872
L 2125 3885
L 1261 3872
L 1261 1594
L 2125 1581
L 3053 1600
z
M 5466 5158
Q 5466 5139 5437 5049
Q 5408 4960 5408 4890
L 5408 2291
Q 5408 1702 5408 1292
Q 5408 883 5414 659
Q 5414 429 5420 230
Q 5427 32 5430 -112
Q 5434 -256 5440 -339
Q 5446 -422 5446 -422
L 4947 -442
Q 4954 -301 4963 211
Q 4973 723 4973 1670
L 4973 2272
Q 4973 2790 4969 3174
Q 4966 3558 4960 3827
Q 4954 4096 4950 4339
Q 4947 4582 4934 4806
Q 4928 5254 4915 5254
L 4947 5254
Q 5139 5254 5302 5235
Q 5466 5216 5466 5158
z
M 3520 1171
L 2342 1190
L 781 1165
Q 781 1254 781 1459
Q 781 1664 787 1984
Q 794 2304 797 2483
Q 800 2662 800 2707
Q 800 3053 800 3296
Q 800 3539 794 3693
Q 794 3846 790 3996
Q 787 4147 781 4282
Q 896 4275 1056 4275
Q 1216 4275 1421 4269
Q 1626 4262 1754 4262
Q 1882 4262 1946 4262
L 3520 4288
L 3501 2842
L 3520 1171
z
" transform="scale(0.015625)"/>
        <path id="AppleGothic-afa" d="M 5427 5094
Q 5427 5069 5408 4982
Q 5389 4896 5389 4832
L 5363 2362
L 5382 -493
L 4909 -518
Q 4915 -371 4915 -195
Q 4915 -19 4922 198
Q 4934 646 4941 1299
Q 4947 1632 4950 1872
Q 4954 2112 4954 2259
Q 4954 3808 4934 4346
Q 4934 4614 4928 4822
Q 4922 5030 4915 5184
L 5114 5190
Q 5261 5190 5344 5174
Q 5427 5158 5427 5094
z
M 3578 4486
Q 3565 4051 3478 3635
Q 3392 3219 3209 2819
Q 3027 2419 2729 2041
Q 2432 1664 1997 1306
Q 1786 1139 1555 992
Q 1325 845 1075 717
Q 698 525 653 525
Q 627 557 611 579
Q 595 602 582 614
Q 544 653 505 688
Q 467 723 422 749
Q 410 762 390 778
Q 371 794 352 819
Q 346 826 342 832
Q 339 838 326 851
Q 326 877 384 893
Q 442 909 461 922
Q 480 922 569 957
Q 659 992 819 1069
Q 1043 1171 1238 1283
Q 1434 1395 1613 1523
Q 2118 1888 2409 2301
Q 2701 2714 2886 3187
Q 2950 3354 2995 3514
Q 3040 3674 3066 3840
Q 3072 3898 3078 3962
Q 3085 4026 3098 4090
L 1766 4083
Q 1318 4083 1046 4076
Q 774 4070 589 4058
L 589 4474
Q 685 4467 800 4467
Q 915 4467 1043 4461
L 1466 4461
L 3578 4486
z
" transform="scale(0.015625)"/>
        <path id="AppleGothic-1081" d="M 5683 5075
Q 5683 5056 5657 4963
Q 5632 4870 5632 4794
Q 5632 4237 5632 3766
Q 5632 3296 5638 2906
Q 5651 2118 5658 1018
Q 5664 461 5667 77
Q 5670 -307 5670 -531
L 5197 -544
Q 5203 -474 5203 -362
Q 5203 -250 5203 -96
Q 5210 58 5210 192
Q 5210 326 5210 448
Q 5210 870 5210 1164
Q 5210 1459 5203 1626
Q 5203 1958 5184 2189
L 4448 2189
L 4467 -109
L 3994 -134
Q 4000 32 4000 278
Q 4000 525 4000 858
Q 4006 1184 4006 1513
Q 4006 1843 4006 2176
Q 4006 2822 4006 3260
Q 4006 3699 4000 3942
Q 3994 4435 3984 4742
Q 3974 5050 3968 5050
Q 4141 5050 4314 5030
Q 4486 5011 4486 4934
Q 4486 4922 4467 4842
Q 4448 4762 4448 4698
L 4442 3725
Q 4442 3354 4442 3072
Q 4442 2790 4454 2547
L 5197 2554
L 5184 4672
Q 5184 4813 5177 4944
Q 5171 5075 5158 5190
Q 5338 5190 5504 5171
Q 5683 5152 5683 5075
z
M 3578 1248
Q 3578 1229 3424 1088
Q 3354 1018 3309 976
Q 3264 934 3251 922
Q 3104 1024 3014 1120
Q 2707 1395 2483 1696
Q 2259 1997 2086 2426
Q 2074 2464 2058 2509
Q 2042 2554 2016 2611
Q 1978 2502 1939 2419
Q 1901 2336 1869 2266
Q 1664 1843 1440 1539
Q 1216 1235 934 966
Q 896 928 838 877
Q 781 826 710 768
Q 691 768 486 877
Q 294 979 294 1005
L 307 1037
Q 941 1414 1389 2291
Q 1824 3155 1824 3962
L 1818 4154
Q 1754 4160 1670 4160
Q 1587 4160 1472 4166
Q 1363 4173 1283 4173
Q 1203 4173 1158 4173
Q 915 4173 803 4169
Q 691 4166 582 4154
L 582 4576
Q 851 4557 1216 4550
Q 1581 4544 1978 4544
Q 2285 4544 2518 4547
Q 2752 4550 2912 4557
Q 3072 4563 3203 4569
Q 3334 4576 3430 4582
L 3430 4147
Q 3334 4160 3203 4166
Q 3072 4173 2906 4173
L 2285 4154
Q 2272 4096 2269 4013
Q 2266 3930 2266 3795
Q 2266 3475 2323 3148
Q 2381 2822 2534 2502
Q 2778 1984 3194 1581
Q 3264 1510 3350 1443
Q 3437 1376 3552 1293
L 3578 1248
z
" transform="scale(0.015625)"/>
       </defs>
       <use xlink:href="#AppleGothic-dd4"/>
       <use xlink:href="#AppleGothic-afa" transform="translate(100 0)"/>
       <use xlink:href="#AppleGothic-1081" transform="translate(200 0)"/>
      </g>
     </g>
    </g>
   </g>
   <g id="patch_3">
    <path d="M 58.34024 53.169959
L 334.626883 53.169959
L 334.626883 71.89187
L 58.34024 71.89187
z
" clip-path="url(#p9dbcd61d42)" style="fill: #103d68"/>
   </g>
   <g id="patch_4">
    <path d="M 58.34024 120.033928
L 350.482778 120.033928
L 350.482778 138.755839
L 58.34024 138.755839
z
" clip-path="url(#p9dbcd61d42)" style="fill: #103d68"/>
   </g>
   <g id="patch_5">
    <path d="M 58.34024 186.897896
L 290.494444 186.897896
L 290.494444 205.619807
L 58.34024 205.619807
z
" clip-path="url(#p9dbcd61d42)" style="fill: #103d68"/>
   </g>
   <g id="patch_6">
    <path d="M 58.34024 253.761865
L 442.241683 253.761865
L 442.241683 272.483776
L 58.34024 272.483776
z
" clip-path="url(#p9dbcd61d42)" style="fill: #103d68"/>
   </g>
   <g id="patch_7">
    <path d="M 58.34024 74.566429
L 380.754268 74.566429
L 380.754268 93.28834
L 58.34024 93.28834
z
" clip-path="url(#p9dbcd61d42)" style="fill: url(#h1555efe047)"/>
   </g>
   <g id="patch_8">
    <path d="M 58.34024 141.430398
L 415.407161 141.430398
L 415.407161 160.152309
L 58.34024 160.152309
z
" clip-path="url(#p9dbcd61d42)" style="fill: url(#h1555efe047)"/>
   </g>
   <g id="patch_9">
    <path d="M 58.34024 208.294366
L 343.204836 208.294366
L 343.204836 227.016277
L 58.34024 227.016277
z
" clip-path="url(#p9dbcd61d42)" style="fill: url(#h1555efe047)"/>
   </g>
   <g id="patch_10">
    <path d="M 58.34024 275.158334
L 270.401231 275.158334
L 270.401231 293.880246
L 58.34024 293.880246
z
" clip-path="url(#p9dbcd61d42)" style="fill: url(#h1555efe047)"/>
   </g>
   <g id="text_11">
    <!-- 43.6% -->
    <g transform="translate(338.626883 65.926915) scale(0.12 -0.12)">
     <defs>
      <path id="AppleGothic-1b" d="M 550 333
L 550 870
Q 883 621 1235 483
Q 1587 346 1971 346
Q 2522 346 2861 666
Q 3219 992 3219 1421
Q 3219 1869 2842 2099
Q 2515 2304 1965 2304
L 992 2304
L 992 2701
L 1658 2701
Q 2298 2701 2662 2928
Q 3027 3155 3027 3584
Q 3027 3936 2752 4173
Q 2458 4429 1978 4429
Q 1786 4429 1597 4393
Q 1408 4358 1222 4282
Q 890 4141 531 3872
L 531 4422
Q 736 4531 912 4608
Q 1088 4685 1254 4736
Q 1626 4858 2022 4858
Q 2650 4858 3066 4531
Q 3488 4211 3488 3642
Q 3488 3168 3168 2861
Q 2976 2675 2643 2554
Q 2874 2522 3053 2448
Q 3232 2374 3366 2266
Q 3718 1971 3718 1434
Q 3718 813 3219 365
Q 2714 -83 1965 -83
Q 1549 -83 1126 70
Q 1024 102 880 166
Q 736 230 550 333
z
" transform="scale(0.015625)"/>
      <path id="AppleGothic-16" d="M 915 -19
Q 762 -19 653 109
Q 544 237 544 422
Q 544 614 656 745
Q 768 877 915 877
Q 1056 877 1168 758
Q 1280 640 1280 435
Q 1280 243 1171 112
Q 1062 -19 915 -19
z
" transform="scale(0.015625)"/>
     </defs>
     <use xlink:href="#AppleGothic-1c"/>
     <use xlink:href="#AppleGothic-1b" transform="translate(68 0)"/>
     <use xlink:href="#AppleGothic-16" transform="translate(136 0)"/>
     <use xlink:href="#AppleGothic-1e" transform="translate(170.5 0)"/>
     <use xlink:href="#AppleGothic-d" transform="translate(238.5 0)"/>
    </g>
   </g>
   <g id="text_12">
    <!-- 46.1% -->
    <g transform="translate(354.482778 132.790883) scale(0.12 -0.12)">
     <defs>
      <path id="AppleGothic-19" d="M 2342 4774
L 2752 4774
L 2752 0
L 2285 0
L 2285 3526
L 1158 3526
L 1158 3885
L 1414 3885
Q 1990 3885 2214 4205
Q 2342 4410 2342 4774
z
" transform="scale(0.015625)"/>
     </defs>
     <use xlink:href="#AppleGothic-1c"/>
     <use xlink:href="#AppleGothic-1e" transform="translate(68 0)"/>
     <use xlink:href="#AppleGothic-16" transform="translate(136 0)"/>
     <use xlink:href="#AppleGothic-19" transform="translate(170.5 0)"/>
     <use xlink:href="#AppleGothic-d" transform="translate(238.5 0)"/>
    </g>
   </g>
   <g id="text_13">
    <!-- 36.7% -->
    <g transform="translate(294.494444 199.654852) scale(0.12 -0.12)">
     <defs>
      <path id="AppleGothic-1f" d="M 595 4774
L 3802 4774
L 3802 4410
L 1734 0
L 1235 0
L 3277 4352
L 595 4352
L 595 4774
z
" transform="scale(0.015625)"/>
     </defs>
     <use xlink:href="#AppleGothic-1b"/>
     <use xlink:href="#AppleGothic-1e" transform="translate(68 0)"/>
     <use xlink:href="#AppleGothic-16" transform="translate(136 0)"/>
     <use xlink:href="#AppleGothic-1f" transform="translate(170.5 0)"/>
     <use xlink:href="#AppleGothic-d" transform="translate(238.5 0)"/>
    </g>
   </g>
   <g id="text_14">
    <!-- 60.6% -->
    <g transform="translate(446.241683 266.51882) scale(0.12 -0.12)">
     <use xlink:href="#AppleGothic-1e"/>
     <use xlink:href="#AppleGothic-18" transform="translate(68 0)"/>
     <use xlink:href="#AppleGothic-16" transform="translate(136 0)"/>
     <use xlink:href="#AppleGothic-1e" transform="translate(170.5 0)"/>
     <use xlink:href="#AppleGothic-d" transform="translate(238.5 0)"/>
    </g>
   </g>
   <g id="text_15">
    <!-- 50.9% -->
    <g transform="translate(384.754268 87.323385) scale(0.12 -0.12)">
     <defs>
      <path id="AppleGothic-1d" d="M 621 4768
L 3488 4768
L 3488 4339
L 1088 4339
L 1088 2707
Q 1184 2771 1293 2819
Q 1402 2867 1510 2912
Q 1862 3040 2259 3040
Q 2989 3040 3424 2605
Q 3827 2202 3827 1581
Q 3827 870 3296 397
Q 2765 -83 2010 -83
Q 1651 -83 1248 45
Q 1158 77 1001 137
Q 845 198 621 301
L 621 838
Q 928 640 1203 525
Q 1408 435 1613 390
Q 1818 346 2010 346
Q 2528 346 2906 666
Q 3322 1011 3322 1536
Q 3322 1990 3021 2291
Q 2701 2611 2144 2611
Q 1856 2611 1587 2528
Q 1318 2445 1088 2272
L 621 2272
L 621 4768
z
" transform="scale(0.015625)"/>
      <path id="AppleGothic-21" d="M 928 211
L 928 762
Q 1050 672 1155 601
Q 1261 531 1363 480
Q 1702 320 2016 320
Q 2291 320 2541 435
Q 2739 525 2908 675
Q 3078 826 3213 1037
Q 3456 1408 3552 1843
Q 3616 2144 3616 2573
Q 3315 2272 3066 2125
Q 2605 1850 2093 1850
Q 1459 1850 1037 2214
Q 589 2598 589 3270
Q 589 3987 1082 4416
Q 1549 4832 2234 4832
Q 2970 4832 3494 4301
Q 4122 3661 4122 2528
Q 4122 1325 3475 582
Q 2874 -109 2035 -109
Q 1722 -109 1357 19
Q 1254 51 1148 102
Q 1043 154 928 211
z
M 3578 3066
Q 3462 3718 3053 4077
Q 2675 4403 2227 4403
Q 1715 4403 1402 4083
Q 1082 3750 1082 3302
Q 1082 2861 1370 2566
Q 1658 2278 2125 2278
Q 2573 2278 2915 2473
Q 3258 2669 3578 3066
z
" transform="scale(0.015625)"/>
     </defs>
     <use xlink:href="#AppleGothic-1d"/>
     <use xlink:href="#AppleGothic-18" transform="translate(68 0)"/>
     <use xlink:href="#AppleGothic-16" transform="translate(136 0)"/>
     <use xlink:href="#AppleGothic-21" transform="translate(170.5 0)"/>
     <use xlink:href="#AppleGothic-d" transform="translate(238.5 0)"/>
    </g>
   </g>
   <g id="text_16">
    <!-- 56.4% -->
    <g transform="translate(419.407161 154.187353) scale(0.12 -0.12)">
     <use xlink:href="#AppleGothic-1d"/>
     <use xlink:href="#AppleGothic-1e" transform="translate(68 0)"/>
     <use xlink:href="#AppleGothic-16" transform="translate(136 0)"/>
     <use xlink:href="#AppleGothic-1c" transform="translate(170.5 0)"/>
     <use xlink:href="#AppleGothic-d" transform="translate(238.5 0)"/>
    </g>
   </g>
   <g id="text_17">
    <!-- 45.0% -->
    <g transform="translate(347.204836 221.051322) scale(0.12 -0.12)">
     <use xlink:href="#AppleGothic-1c"/>
     <use xlink:href="#AppleGothic-1d" transform="translate(68 0)"/>
     <use xlink:href="#AppleGothic-16" transform="translate(136 0)"/>
     <use xlink:href="#AppleGothic-18" transform="translate(170.5 0)"/>
     <use xlink:href="#AppleGothic-d" transform="translate(238.5 0)"/>
    </g>
   </g>
   <g id="text_18">
    <!-- 33.5% -->
    <g transform="translate(274.401231 287.91529) scale(0.12 -0.12)">
     <use xlink:href="#AppleGothic-1b"/>
     <use xlink:href="#AppleGothic-1b" transform="translate(68 0)"/>
     <use xlink:href="#AppleGothic-16" transform="translate(136 0)"/>
     <use xlink:href="#AppleGothic-1d" transform="translate(170.5 0)"/>
     <use xlink:href="#AppleGothic-d" transform="translate(238.5 0)"/>
    </g>
   </g>
   <g id="legend_1">
    <g id="patch_11">
     <path d="M 181.51 18.491005
L 205.51 18.491005
L 205.51 10.091005
L 181.51 10.091005
z
" style="fill: #103d68"/>
    </g>
    <g id="text_19">
     <!-- 2025년 상반기 -->
     <g transform="translate(215.11 18.491005) scale(0.12 -0.12)">
      <defs>
       <path id="AppleGothic-bb6" d="M 5498 -454
Q 5370 -448 5264 -448
Q 5158 -448 5069 -448
Q 4467 -435 4070 -428
Q 3674 -422 3469 -422
L 1414 -442
Q 1421 -333 1421 -201
Q 1421 -70 1421 77
Q 1427 224 1427 342
Q 1427 461 1427 557
L 1414 1107
Q 1600 1107 1744 1094
Q 1888 1082 1888 1024
Q 1869 960 1853 896
Q 1837 832 1837 774
L 1837 -70
L 3450 -90
Q 4032 -90 4557 -83
Q 5082 -77 5498 -64
L 5498 -454
z
M 5434 5069
Q 5434 5043 5389 4915
Q 5350 4768 5350 4717
L 5325 1901
Q 5325 1446 5328 1209
Q 5331 973 5338 826
L 4909 794
Q 4922 902 4928 1052
Q 4934 1203 4934 1389
L 4928 2554
L 4166 2566
L 3347 2547
L 3347 2918
L 4192 2899
Q 4352 2899 4461 2899
Q 4570 2899 4650 2902
Q 4730 2906 4794 2909
Q 4858 2912 4928 2918
L 4928 3686
L 4211 3699
L 3334 3693
L 3334 4058
L 4198 4045
L 4928 4051
L 4934 4762
Q 4934 4877 4934 4947
Q 4934 5018 4931 5062
Q 4928 5107 4925 5132
Q 4922 5158 4915 5190
Q 5011 5190 5104 5187
Q 5197 5184 5270 5168
Q 5344 5152 5389 5129
Q 5434 5107 5434 5069
z
M 3379 1869
Q 3251 1856 3145 1843
Q 3040 1830 2963 1824
Q 2682 1798 2451 1785
Q 2221 1773 2035 1773
L 749 1734
L 749 3494
Q 749 3776 749 3968
Q 749 4160 742 4262
Q 742 4371 739 4464
Q 736 4557 730 4646
Q 896 4646 1069 4627
Q 1242 4608 1242 4538
Q 1242 4499 1222 4412
Q 1203 4326 1190 4205
Q 1184 4090 1177 3818
Q 1171 3546 1171 3174
L 1190 2099
Q 1210 2099 1296 2102
Q 1382 2106 1536 2112
Q 1690 2118 1846 2121
Q 2003 2125 2157 2125
Q 2342 2125 2547 2134
Q 2752 2144 2976 2170
Q 3053 2176 3152 2189
Q 3251 2202 3373 2221
L 3379 1869
z
" transform="scale(0.015625)"/>
       <path id="AppleGothic-eb7" d="M 5312 538
Q 5312 -26 4698 -237
Q 4237 -403 3264 -403
Q 2381 -403 1837 -173
Q 1235 77 1235 538
Q 1235 1120 1843 1363
Q 2074 1453 2426 1497
Q 2778 1542 3258 1542
Q 3686 1542 4019 1500
Q 4352 1459 4595 1382
Q 5312 1146 5312 538
z
M 3942 2413
Q 3942 2394 3866 2330
Q 3648 2170 3635 2144
Q 3546 2195 3469 2240
Q 3392 2285 3334 2323
Q 2970 2566 2717 2848
Q 2464 3130 2278 3456
Q 2253 3507 2221 3574
Q 2189 3642 2144 3731
Q 2093 3616 2051 3517
Q 2010 3418 1971 3341
Q 1843 3117 1692 2918
Q 1542 2720 1357 2534
Q 1229 2406 1094 2297
Q 960 2189 819 2086
Q 768 2054 713 2019
Q 659 1984 589 1939
Q 538 1965 416 2042
Q 365 2093 291 2125
Q 218 2157 218 2176
L 230 2202
Q 307 2246 364 2278
Q 422 2310 474 2342
Q 762 2534 1014 2777
Q 1267 3021 1472 3322
Q 1613 3514 1709 3718
Q 1805 3923 1869 4141
Q 1952 4435 1952 4736
L 1946 4909
Q 2016 4909 2099 4902
Q 2182 4896 2278 4883
Q 2477 4858 2477 4794
Q 2477 4774 2419 4713
Q 2362 4653 2362 4506
Q 2362 4371 2403 4211
Q 2445 4051 2573 3770
Q 2746 3386 3091 3040
Q 3213 2918 3353 2809
Q 3494 2701 3661 2592
Q 3910 2438 3930 2438
L 3942 2413
z
M 6010 2784
L 5933 2784
Q 5606 2803 5530 2803
L 5114 2771
L 5107 2342
Q 5107 2080 5110 1949
Q 5114 1818 5120 1734
L 4653 1722
Q 4666 1914 4672 2272
Q 4678 2630 4678 3046
Q 4678 3482 4678 3808
Q 4678 4134 4672 4358
Q 4672 4582 4669 4790
Q 4666 4998 4659 5190
L 4730 5190
Q 4915 5190 5046 5171
Q 5178 5152 5178 5094
Q 5158 5030 5139 4969
Q 5120 4909 5120 4845
L 5107 4294
L 5120 3162
L 5504 3149
Q 5690 3149 5814 3155
Q 5939 3162 6010 3174
L 6010 2784
z
M 4858 544
Q 4858 928 4333 1094
Q 4141 1158 3872 1184
Q 3603 1210 3258 1210
Q 2464 1210 2118 1088
Q 1683 928 1683 544
Q 1715 282 2121 122
Q 2528 -38 3270 -38
Q 4058 -38 4416 70
Q 4858 192 4858 544
z
" transform="scale(0.015625)"/>
       <path id="AppleGothic-de5" d="M 2899 2195
L 2899 3277
L 2707 3277
Q 1984 3296 1939 3296
L 1056 3277
L 1056 2189
L 2899 2195
z
M 5331 -384
L 3206 -378
L 1293 -397
L 1293 467
Q 1293 659 1286 851
Q 1280 1043 1267 1210
L 1306 1210
Q 1491 1210 1641 1194
Q 1792 1178 1792 1114
Q 1792 1101 1766 1017
Q 1741 934 1741 858
L 1741 -19
L 3194 -13
Q 3738 -13 4285 0
Q 4832 13 5331 32
L 5331 -384
z
M 6054 2714
L 5126 2720
L 5146 838
L 4666 832
L 4666 1101
Q 4678 1581 4688 2077
Q 4698 2573 4698 3091
L 4698 3347
Q 4698 3853 4688 4262
Q 4678 4672 4666 4992
Q 4666 5050 4666 5117
Q 4666 5184 4653 5254
L 4749 5254
Q 4915 5254 5046 5228
Q 5178 5203 5178 5146
Q 5178 5139 5168 5104
Q 5158 5069 5148 5024
Q 5139 4979 5132 4937
Q 5126 4896 5126 4870
L 5126 3130
L 6054 3136
L 6054 2714
z
M 3386 4506
Q 3366 4429 3350 4355
Q 3334 4282 3334 4218
L 3334 3136
L 3354 1792
L 2035 1805
L 602 1792
Q 602 1933 602 2102
Q 602 2272 608 2477
Q 614 2682 614 2877
Q 614 3072 621 3258
Q 621 3558 621 3772
Q 621 3987 614 4115
Q 608 4243 605 4355
Q 602 4467 589 4557
L 723 4557
Q 890 4557 989 4541
Q 1088 4525 1088 4461
Q 1088 4442 1072 4365
Q 1056 4288 1056 4256
L 1056 3680
L 1715 3674
L 2893 3686
L 2899 4173
L 2867 4589
L 3059 4595
Q 3213 4595 3299 4579
Q 3386 4563 3386 4506
z
" transform="scale(0.015625)"/>
      </defs>
      <use xlink:href="#AppleGothic-1a"/>
      <use xlink:href="#AppleGothic-18" transform="translate(68 0)"/>
      <use xlink:href="#AppleGothic-1a" transform="translate(136 0)"/>
      <use xlink:href="#AppleGothic-1d" transform="translate(204 0)"/>
      <use xlink:href="#AppleGothic-bb6" transform="translate(272 0)"/>
      <use xlink:href="#AppleGothic-3" transform="translate(372 0)"/>
      <use xlink:href="#AppleGothic-eb7" transform="translate(404 0)"/>
      <use xlink:href="#AppleGothic-de5" transform="translate(504 0)"/>
      <use xlink:href="#AppleGothic-afa" transform="translate(604 0)"/>
     </g>
    </g>
    <g id="patch_12">
     <path d="M 323.59 18.491005
L 347.59 18.491005
L 347.59 10.091005
L 323.59 10.091005
z
" style="fill: url(#h1555efe047)"/>
    </g>
    <g id="text_20">
     <!-- 2026년 상반기 -->
     <g transform="translate(357.19 18.491005) scale(0.12 -0.12)">
      <use xlink:href="#AppleGothic-1a"/>
      <use xlink:href="#AppleGothic-18" transform="translate(68 0)"/>
      <use xlink:href="#AppleGothic-1a" transform="translate(136 0)"/>
      <use xlink:href="#AppleGothic-1e" transform="translate(204 0)"/>
      <use xlink:href="#AppleGothic-bb6" transform="translate(272 0)"/>
      <use xlink:href="#AppleGothic-3" transform="translate(372 0)"/>
      <use xlink:href="#AppleGothic-eb7" transform="translate(404 0)"/>
      <use xlink:href="#AppleGothic-de5" transform="translate(504 0)"/>
      <use xlink:href="#AppleGothic-afa" transform="translate(604 0)"/>
     </g>
    </g>
   </g>
  </g>
 </g>
 <defs>
  <clipPath id="p9dbcd61d42">
   <rect x="58.34024" y="41.134445" width="506.49952" height="264.781315"/>
  </clipPath>
 </defs>
 <defs>
  <pattern id="h1555efe047" patternUnits="userSpaceOnUse" x="0" y="0" width="72" height="72">
   <rect x="0" y="0" width="73" height="73" fill="#15786f"/>
   <path d="M -36 36
L 36 -36
M -30 42
L 42 -30
M -24 48
L 48 -24
M -18 54
L 54 -18
M -12 60
L 60 -12
M -6 66
L 66 -6
M 0 72
L 72 0
M 6 78
L 78 6
M 12 84
L 84 12
M 18 90
L 90 18
M 24 96
L 96 24
M 30 102
L 102 30
M 36 108
L 108 36
" style="fill: #000000; stroke: #000000; stroke-width: 1.0; stroke-linecap: butt; stroke-linejoin: miter"/>
  </pattern>
 </defs>
</svg>
