<?xml version="1.0" encoding="utf-8" standalone="no"?>
<!DOCTYPE svg PUBLIC "-//W3C//DTD SVG 1.1//EN"
  "http://www.w3.org/Graphics/SVG/1.1/DTD/svg11.dtd">
<svg xmlns:xlink="http://www.w3.org/1999/xlink" width="576pt" height="273.6pt" viewBox="0 0 576 273.6" xmlns="http://www.w3.org/2000/svg" version="1.1">
 <metadata>
  <rdf:RDF xmlns:dc="http://purl.org/dc/elements/1.1/" xmlns:cc="http://creativecommons.org/ns#" xmlns:rdf="http://www.w3.org/1999/02/22-rdf-syntax-ns#">
   <cc:Work>
    <dc:type rdf:resource="http://purl.org/dc/dcmitype/StillImage"/>
    <dc:format>image/svg+xml</dc:format>
    <dc:creator>
     <cc:Agent>
      <dc:title>Matplotlib v3.11.1, https://matplotlib.org/</dc:title>
     </cc:Agent>
    </dc:creator>
   </cc:Work>
  </rdf:RDF>
 </metadata>
 <defs>
  <style type="text/css">*{stroke-linejoin: round; stroke-linecap: butt}</style>
 </defs>
 <g id="figure_1">
  <g id="patch_1">
   <path d="M 0 273.6
L 576 273.6
L 576 0
L 0 0
z
" style="fill: #ffffff"/>
  </g>
  <g id="axes_1">
   <g id="patch_2">
    <path d="M 43.00024 232.84776
L 561.77976 232.84776
L 561.77976 32.676888
L 43.00024 32.676888
z
" style="fill: #ffffff"/>
   </g>
   <g id="patch_3">
    <path d="M 43.00024 106.376164
L 322.343058 106.376164
L 322.343058 68.161724
L 43.00024 68.161724
z
" clip-path="url(#p5c46b81c9a)" style="fill: #103d68"/>
   </g>
   <g id="patch_4">
    <path d="M 322.343058 106.376164
L 561.77976 106.376164
L 561.77976 68.161724
L 322.343058 68.161724
z
" clip-path="url(#p5c46b81c9a)" style="fill: #dce9e8"/>
   </g>
   <g id="patch_5">
    <path d="M 43.00024 197.362924
L 404.93944 197.362924
L 404.93944 159.148484
L 43.00024 159.148484
z
" clip-path="url(#p5c46b81c9a)" style="fill: #103d68"/>
   </g>
   <g id="patch_6">
    <path d="M 404.93944 197.362924
L 561.77976 197.362924
L 561.77976 159.148484
L 404.93944 159.148484
z
" clip-path="url(#p5c46b81c9a)" style="fill: #dce9e8"/>
   </g>
   <g id="matplotlib.axis_1">
    <g id="xtick_1">
     <g id="line2d_1">
      <defs>
       <path id="m8e84cf82b8" d="M 0 0
L 0 3.5
" style="stroke: #000000; stroke-width: 0.8"/>
      </defs>
      <g>
       <use xlink:href="#m8e84cf82b8" x="43.00024" y="232.84776" style="stroke: #000000; stroke-width: 0.8"/>
      </g>
     </g>
     <g id="text_1">
      <!-- 0 -->
      <g transform="translate(39.26024 249.64876) scale(0.11 -0.11)">
       <defs>
        <path id="AppleGothic-18" d="M 2227 -83
Q 1414 -83 934 576
Q 461 1229 461 2387
Q 461 3552 973 4218
Q 1453 4858 2221 4858
Q 3027 4858 3482 4173
Q 3955 3494 3955 2394
Q 3955 1248 3462 582
Q 2976 -83 2227 -83
z
M 2176 346
Q 2861 346 3200 992
Q 3462 1536 3462 2400
Q 3462 3315 3162 3859
Q 2822 4429 2214 4429
Q 1574 4429 1248 3821
Q 960 3283 960 2374
Q 960 1478 1248 941
Q 1574 346 2176 346
z
" transform="scale(0.015625)"/>
       </defs>
       <use xlink:href="#AppleGothic-18"/>
      </g>
     </g>
    </g>
    <g id="xtick_2">
     <g id="line2d_2">
      <g>
       <use xlink:href="#m8e84cf82b8" x="172.69512" y="232.84776" style="stroke: #000000; stroke-width: 0.8"/>
      </g>
     </g>
     <g id="text_2">
      <!-- 25 -->
      <g transform="translate(165.21512 249.64876) scale(0.11 -0.11)">
       <defs>
        <path id="AppleGothic-1a" d="M 1101 429
L 3942 429
L 3942 0
L 653 0
L 653 205
Q 653 1018 1344 1664
Q 1670 1894 1990 2124
Q 2310 2355 2637 2592
Q 3334 3098 3334 3597
Q 3334 3994 3014 4218
Q 2867 4326 2694 4377
Q 2522 4429 2317 4429
Q 2016 4429 1741 4352
Q 1325 4224 883 3910
L 883 4435
Q 1325 4659 1667 4758
Q 2010 4858 2317 4858
Q 2963 4858 3405 4525
Q 3840 4198 3840 3622
Q 3840 2995 3168 2438
Q 2848 2214 2531 2000
Q 2214 1786 1894 1562
Q 1178 1024 1101 429
z
" transform="scale(0.015625)"/>
        <path id="AppleGothic-1d" d="M 621 4768
L 3488 4768
L 3488 4339
L 1088 4339
L 1088 2707
Q 1184 2771 1293 2819
Q 1402 2867 1510 2912
Q 1862 3040 2259 3040
Q 2989 3040 3424 2605
Q 3827 2202 3827 1581
Q 3827 870 3296 397
Q 2765 -83 2010 -83
Q 1651 -83 1248 45
Q 1158 77 1001 137
Q 845 198 621 301
L 621 838
Q 928 640 1203 525
Q 1408 435 1613 390
Q 1818 346 2010 346
Q 2528 346 2906 666
Q 3322 1011 3322 1536
Q 3322 1990 3021 2291
Q 2701 2611 2144 2611
Q 1856 2611 1587 2528
Q 1318 2445 1088 2272
L 621 2272
L 621 4768
z
" transform="scale(0.015625)"/>
       </defs>
       <use xlink:href="#AppleGothic-1a"/>
       <use xlink:href="#AppleGothic-1d" transform="translate(68 0)"/>
      </g>
     </g>
    </g>
    <g id="xtick_3">
     <g id="line2d_3">
      <g>
       <use xlink:href="#m8e84cf82b8" x="302.39" y="232.84776" style="stroke: #000000; stroke-width: 0.8"/>
      </g>
     </g>
     <g id="text_3">
      <!-- 50 -->
      <g transform="translate(294.91 249.64876) scale(0.11 -0.11)">
       <use xlink:href="#AppleGothic-1d"/>
       <use xlink:href="#AppleGothic-18" transform="translate(68 0)"/>
      </g>
     </g>
    </g>
    <g id="xtick_4">
     <g id="line2d_4">
      <g>
       <use xlink:href="#m8e84cf82b8" x="432.08488" y="232.84776" style="stroke: #000000; stroke-width: 0.8"/>
      </g>
     </g>
     <g id="text_4">
      <!-- 75 -->
      <g transform="translate(424.60488 249.64876) scale(0.11 -0.11)">
       <defs>
        <path id="AppleGothic-1f" d="M 595 4774
L 3802 4774
L 3802 4410
L 1734 0
L 1235 0
L 3277 4352
L 595 4352
L 595 4774
z
" transform="scale(0.015625)"/>
       </defs>
       <use xlink:href="#AppleGothic-1f"/>
       <use xlink:href="#AppleGothic-1d" transform="translate(68 0)"/>
      </g>
     </g>
    </g>
    <g id="xtick_5">
     <g id="line2d_5">
      <g>
       <use xlink:href="#m8e84cf82b8" x="561.77976" y="232.84776" style="stroke: #000000; stroke-width: 0.8"/>
      </g>
     </g>
     <g id="text_5">
      <!-- 100 -->
      <g transform="translate(550.55976 249.64876) scale(0.11 -0.11)">
       <defs>
        <path id="AppleGothic-19" d="M 2342 4774
L 2752 4774
L 2752 0
L 2285 0
L 2285 3526
L 1158 3526
L 1158 3885
L 1414 3885
Q 1990 3885 2214 4205
Q 2342 4410 2342 4774
z
" transform="scale(0.015625)"/>
       </defs>
       <use xlink:href="#AppleGothic-19"/>
       <use xlink:href="#AppleGothic-18" transform="translate(68 0)"/>
       <use xlink:href="#AppleGothic-18" transform="translate(136 0)"/>
      </g>
     </g>
    </g>
    <g id="text_6">
     <!-- 거래가 있었던 단지·면적군 중 비중 (%) -->
     <g transform="translate(204.3525 267.02476) scale(0.11 -0.11)">
      <defs>
       <path id="AppleGothic-a7f" d="M 3558 4397
Q 3546 4301 3539 4208
Q 3533 4115 3520 4026
Q 3488 3802 3437 3584
Q 3386 3366 3328 3155
Q 3238 2867 3129 2617
Q 3021 2368 2880 2144
Q 2714 1875 2490 1622
Q 2266 1370 1990 1120
Q 1786 934 1568 774
Q 1350 614 1120 467
Q 762 243 717 243
Q 685 275 662 300
Q 640 326 621 339
Q 493 454 441 486
Q 390 518 365 550
Q 352 563 346 582
Q 346 595 374 608
Q 403 621 438 633
Q 474 646 506 656
Q 538 666 550 672
Q 576 672 851 819
Q 1043 928 1219 1043
Q 1395 1158 1555 1286
Q 1786 1472 1984 1683
Q 2182 1894 2349 2138
Q 2496 2349 2611 2576
Q 2726 2803 2816 3046
Q 2950 3392 3008 3738
L 3046 4026
Q 2918 4019 2780 4019
Q 2643 4019 2477 4013
L 1958 4013
Q 1651 4013 1433 4013
Q 1216 4013 1082 4006
Q 947 4000 825 3997
Q 704 3994 602 3981
L 602 4390
L 3558 4397
z
M 5440 5094
Q 5440 5069 5414 4973
Q 5389 4877 5389 4851
L 5376 2790
L 5395 -486
L 4928 -538
L 4941 1082
L 4941 2349
L 4326 2362
L 3514 2349
L 3514 2771
L 4941 2771
L 4934 3731
L 4941 4403
Q 4941 4621 4941 4761
Q 4941 4902 4934 4973
Q 4934 5114 4915 5190
L 5331 5171
Q 5440 5171 5440 5094
z
" transform="scale(0.015625)"/>
       <path id="AppleGothic-ced" d="M 5690 5082
Q 5670 5005 5651 4937
Q 5632 4870 5632 4800
L 5619 2496
Q 5619 1933 5619 1536
Q 5619 1139 5626 896
Q 5632 653 5632 422
Q 5632 192 5638 -19
Q 5645 -442 5658 -442
L 5184 -461
Q 5197 -218 5203 218
Q 5203 442 5206 662
Q 5210 883 5210 1107
L 5197 2246
L 4371 2246
L 4390 -179
L 3942 -205
L 3974 3142
Q 3974 3622 3974 3952
Q 3974 4282 3968 4467
Q 3962 4653 3958 4806
Q 3955 4960 3942 5082
Q 4154 5082 4301 5043
Q 4448 5005 4448 4947
Q 4448 4915 4413 4825
Q 4378 4736 4378 4666
L 4371 2618
L 5203 2618
L 5203 3853
L 5178 5190
L 5248 5190
Q 5440 5190 5565 5171
Q 5690 5152 5690 5082
z
M 3546 1030
Q 3424 1005 3328 982
Q 3232 960 3142 947
Q 2880 902 2595 860
Q 2310 819 2003 787
Q 1888 774 1699 761
Q 1510 749 1242 736
Q 1171 730 1072 726
Q 973 723 858 717
Q 858 781 858 915
Q 858 1050 864 1254
Q 870 1466 873 1587
Q 877 1709 877 1741
L 864 2854
L 1574 2848
L 2656 2867
L 2656 4000
L 1811 4000
Q 1491 4000 1248 3993
Q 1005 3987 819 3974
L 819 4403
L 1850 4384
L 3085 4397
L 3072 3603
L 3091 2490
L 1293 2477
L 1280 1805
L 1293 1146
L 1613 1146
Q 1696 1152 1824 1161
Q 1952 1171 2131 1190
Q 2406 1216 2662 1251
Q 2918 1286 3162 1331
Q 3245 1344 3341 1363
Q 3437 1382 3546 1414
L 3546 1030
z
" transform="scale(0.015625)"/>
       <path id="AppleGothic-a5b" d="M 6189 1965
L 5133 1965
L 5133 -538
L 4685 -538
L 4691 3232
Q 4691 3750 4691 4086
Q 4691 4422 4685 4576
Q 4678 4730 4675 4883
Q 4672 5037 4659 5190
L 4800 5190
Q 4966 5190 5065 5174
Q 5165 5158 5165 5094
Q 5165 5075 5149 4998
Q 5133 4922 5133 4890
L 5133 2355
L 6189 2368
L 6189 1965
z
M 3264 4205
Q 3264 3802 3162 3392
Q 3008 2733 2630 2131
Q 2253 1530 1728 1069
Q 1530 902 1331 764
Q 1133 627 928 512
Q 627 352 576 352
L 262 717
Q 301 717 570 845
Q 960 1030 1286 1280
Q 1760 1645 2106 2138
Q 2253 2349 2368 2569
Q 2483 2790 2573 3027
Q 2637 3194 2681 3350
Q 2726 3507 2752 3667
Q 2758 3738 2764 3802
Q 2771 3866 2784 3930
L 1690 3930
Q 1421 3930 1225 3930
Q 1030 3930 902 3923
Q 774 3917 675 3913
Q 576 3910 499 3904
L 499 4352
Q 704 4339 992 4326
Q 1280 4314 1702 4314
L 1843 4314
Q 2406 4314 2729 4320
Q 3053 4326 3258 4339
L 3264 4205
z
" transform="scale(0.015625)"/>
       <path id="AppleGothic-3" transform="scale(0.015625)"/>
       <path id="AppleGothic-1070" d="M 3238 3411
Q 3238 3859 2989 4102
Q 2701 4358 2189 4358
Q 1715 4358 1446 4090
Q 1197 3846 1197 3494
Q 1197 3136 1427 2899
Q 1690 2618 2138 2618
Q 2624 2618 2912 2810
Q 3238 3027 3238 3411
z
M 3533 173
Q 3533 160 3443 67
Q 3354 -26 3238 -141
Q 3072 26 2966 131
Q 2861 237 2810 294
Q 2541 602 2483 800
Q 2451 730 2419 672
Q 2387 614 2362 570
Q 2202 275 2022 83
Q 1933 -19 1814 -121
Q 1696 -224 1549 -346
Q 1498 -384 1434 -432
Q 1370 -480 1280 -544
Q 1248 -538 1094 -403
Q 947 -288 947 -243
Q 947 -224 973 -205
L 1030 -166
Q 1133 -115 1206 -67
Q 1280 -19 1344 26
Q 1696 288 1952 698
Q 2170 1062 2253 1466
Q 2272 1581 2291 1798
Q 2419 1798 2611 1760
Q 2816 1722 2816 1664
Q 2816 1638 2781 1590
Q 2746 1542 2739 1530
L 2707 1395
Q 2720 1299 2803 1107
Q 2842 1005 2893 918
Q 2944 832 2995 755
Q 3072 646 3216 502
Q 3360 358 3494 224
L 3533 173
z
M 6054 -173
L 5792 -499
Q 5638 -410 5497 -288
Q 5357 -166 5229 -13
Q 5030 250 4838 627
Q 4749 442 4637 272
Q 4525 102 4390 -51
Q 4070 -416 3770 -570
L 3584 -403
Q 3552 -378 3520 -352
Q 3488 -326 3456 -294
Q 3437 -275 3418 -262
Q 3437 -250 3449 -237
Q 3462 -224 3475 -211
Q 4006 0 4365 627
Q 4691 1203 4691 1811
Q 4768 1830 4973 1792
Q 5190 1766 5190 1709
Q 5190 1690 5152 1645
Q 5114 1600 5107 1581
L 5075 1446
Q 5075 909 5325 544
Q 5414 416 5587 246
Q 5760 77 6016 -128
L 6054 -173
z
M 3706 3456
Q 3706 2912 3264 2560
Q 2854 2246 2266 2246
Q 1530 2246 1114 2624
Q 730 2970 730 3475
Q 730 3968 1088 4326
Q 1491 4730 2176 4730
Q 2880 4730 3296 4384
Q 3706 4032 3706 3456
z
M 5434 5056
Q 5434 5018 5427 4998
Q 5395 4870 5395 4851
L 5382 3674
Q 5382 3296 5388 2880
Q 5395 2464 5408 2112
L 4928 2112
L 4934 3680
L 4915 5190
Q 5120 5190 5277 5168
Q 5434 5146 5434 5056
z
" transform="scale(0.015625)"/>
       <path id="AppleGothic-fd8" d="M 3206 3354
Q 3206 3744 2938 4013
Q 2643 4307 2138 4307
Q 1690 4307 1382 4019
Q 1075 3731 1075 3296
Q 1075 2867 1408 2611
Q 1702 2394 2144 2394
Q 2618 2394 2912 2646
Q 3206 2899 3206 3354
z
M 3488 77
Q 3482 64 3469 51
Q 3443 26 3363 -28
Q 3283 -83 3187 -160
Q 3174 -166 3164 -179
Q 3155 -192 3142 -205
Q 3098 -173 3072 -150
Q 3046 -128 3021 -109
Q 2950 -45 2886 25
Q 2822 96 2771 166
Q 2701 262 2541 531
Q 2528 550 2515 579
Q 2502 608 2477 646
Q 2336 378 1933 0
Q 1728 -192 1552 -326
Q 1376 -461 1229 -531
Q 1210 -525 1139 -480
Q 1069 -435 947 -358
Q 934 -346 905 -326
Q 877 -307 838 -275
Q 890 -237 890 -237
Q 1408 -13 1862 518
Q 2362 1114 2362 1626
Q 2419 1626 2650 1555
Q 2874 1491 2874 1459
Q 2874 1440 2835 1401
Q 2797 1363 2790 1344
L 2714 1178
Q 2726 1088 2787 944
Q 2848 800 2957 627
Q 3027 518 3155 387
Q 3283 256 3411 134
Q 3411 134 3462 96
Q 3475 83 3488 77
z
M 6061 -115
Q 6048 -134 6042 -134
Q 6022 -160 5984 -201
Q 5946 -243 5830 -358
Q 5818 -371 5795 -390
Q 5773 -410 5741 -435
Q 5632 -384 5533 -301
Q 5434 -218 5331 -109
Q 5216 32 5094 221
Q 4973 410 4845 659
Q 4742 486 4611 288
Q 4480 90 4314 -77
Q 4218 -173 4125 -259
Q 4032 -346 3930 -422
Q 3898 -454 3853 -486
Q 3808 -518 3750 -557
Q 3706 -544 3546 -435
Q 3514 -416 3472 -390
Q 3430 -365 3366 -326
Q 3392 -314 3398 -307
Q 3443 -282 3456 -269
Q 3936 19 4307 570
Q 4710 1152 4710 1683
L 4979 1606
Q 5197 1542 5197 1472
Q 5152 1414 5139 1370
L 5082 1222
Q 5082 1094 5101 1030
Q 5120 947 5174 835
Q 5229 723 5305 598
Q 5382 474 5484 352
Q 5587 230 5715 128
Q 5805 51 5946 -38
Q 5978 -70 6019 -86
Q 6061 -102 6061 -115
z
M 3635 3258
Q 3635 2662 3187 2330
Q 2758 2010 2086 2010
Q 1504 2010 1082 2342
Q 640 2694 640 3290
Q 640 3885 1011 4262
Q 1408 4678 2131 4678
Q 2835 4678 3232 4288
Q 3635 3891 3635 3258
z
M 5440 5082
Q 5440 5075 5417 5004
Q 5395 4934 5395 4896
L 5389 3168
L 5402 1933
L 4922 1926
L 4934 2451
L 4928 3136
L 3872 3136
L 3872 3533
L 4928 3533
L 4934 4397
L 4915 5190
L 5018 5190
Q 5210 5190 5325 5171
Q 5440 5152 5440 5082
z
" transform="scale(0.015625)"/>
       <path id="AppleGothic-c2a" d="M 5574 -403
L 1376 -435
L 1389 365
Q 1389 550 1382 742
Q 1376 934 1363 1101
L 1402 1101
Q 1498 1101 1587 1097
Q 1677 1094 1747 1081
Q 1818 1069 1862 1049
Q 1907 1030 1907 1005
Q 1907 986 1891 915
Q 1875 845 1875 787
L 1862 390
L 1875 -19
L 3482 -19
Q 3866 -19 4240 -9
Q 4614 0 4986 13
Q 5114 19 5258 25
Q 5402 32 5574 45
L 5574 -403
z
M 5466 5069
Q 5466 5056 5456 5024
Q 5446 4992 5430 4953
Q 5414 4915 5404 4880
Q 5395 4845 5395 4826
L 5382 2784
L 5402 845
L 4915 826
L 4934 1914
L 4934 2541
Q 4934 2669 4937 2790
Q 4941 2912 4947 3040
L 4384 3046
L 3322 3014
L 3322 3437
L 4058 3424
L 4934 3437
L 4947 4672
Q 4947 4813 4937 4944
Q 4928 5075 4915 5190
Q 5018 5190 5117 5187
Q 5216 5184 5293 5171
Q 5370 5158 5418 5132
Q 5466 5107 5466 5069
z
M 3654 1850
Q 3354 1811 3187 1792
Q 2618 1734 2176 1734
Q 1786 1734 1421 1724
Q 1056 1715 749 1702
L 742 2259
L 755 3533
L 736 4614
Q 1037 4602 1389 4589
Q 1741 4576 2074 4576
L 3424 4595
L 3424 4205
L 2112 4224
L 1178 4211
L 1152 3494
Q 1152 3450 1161 3251
Q 1171 3053 1184 2688
Q 1190 2541 1193 2387
Q 1197 2234 1197 2067
Q 1248 2067 1350 2070
Q 1453 2074 1613 2080
Q 1773 2086 1910 2089
Q 2048 2093 2176 2093
Q 2323 2093 2550 2109
Q 2778 2125 3085 2157
Q 3187 2170 3324 2182
Q 3462 2195 3642 2221
L 3654 1850
z
" transform="scale(0.015625)"/>
       <path id="AppleGothic-c0e" d="M 5498 -410
L 3450 -403
Q 3059 -403 2755 -403
Q 2451 -403 2227 -410
Q 2003 -416 1801 -419
Q 1600 -422 1414 -435
L 1427 429
L 1414 1216
Q 1555 1216 1741 1197
Q 1933 1165 1933 1107
Q 1933 1101 1913 1027
Q 1894 954 1894 883
L 1888 454
L 1901 -45
L 2547 -51
L 5498 6
L 5498 -410
z
M 6022 2611
L 5146 2611
L 5165 698
L 4685 698
L 4685 3558
Q 4685 4000 4685 4291
Q 4685 4582 4678 4730
Q 4672 4877 4669 4989
Q 4666 5101 4659 5190
L 4819 5190
Q 4966 5190 5075 5168
Q 5184 5146 5184 5075
Q 5184 5043 5165 4956
Q 5146 4870 5146 4806
L 5139 3840
L 5152 3014
L 6022 3014
L 6022 2611
z
M 4083 2042
Q 3917 2010 3725 1981
Q 3533 1952 3309 1920
Q 2867 1862 2496 1862
L 710 1754
L 730 2995
L 717 4403
L 2221 4390
L 3571 4403
L 3571 3994
L 1190 3994
Q 1184 3885 1181 3801
Q 1178 3718 1178 3654
Q 1158 3162 1158 3040
L 1178 2163
Q 1325 2170 1433 2173
Q 1542 2176 1632 2182
Q 2112 2208 2477 2240
Q 2810 2272 3091 2304
Q 3373 2336 3603 2368
Q 3718 2387 3830 2406
Q 3942 2426 4064 2445
L 4083 2042
z
" transform="scale(0.015625)"/>
       <path id="AppleGothic-10ee" d="M 5453 5082
Q 5453 5069 5427 4982
Q 5402 4896 5402 4826
L 5402 2355
Q 5402 2067 5405 1728
Q 5408 1389 5414 986
Q 5421 589 5427 201
Q 5434 -186 5446 -570
L 4941 -595
L 4954 2253
Q 4954 3808 4934 4346
Q 4934 4614 4928 4822
Q 4922 5030 4915 5184
L 5082 5190
Q 5235 5190 5344 5168
Q 5453 5146 5453 5082
z
M 4211 1190
Q 4211 1146 4102 1075
Q 4070 1056 4025 1021
Q 3981 986 3923 934
L 3878 890
Q 3814 915 3683 1008
Q 3552 1101 3347 1267
Q 3194 1402 3066 1533
Q 2938 1664 2835 1792
Q 2752 1901 2669 2035
Q 2586 2170 2509 2336
Q 2483 2387 2451 2457
Q 2419 2528 2381 2618
Q 2099 2054 1715 1632
Q 1331 1210 794 858
Q 768 883 745 896
Q 723 909 710 922
Q 608 986 570 1005
Q 467 1043 428 1072
Q 390 1101 390 1120
L 486 1197
Q 608 1267 694 1324
Q 781 1382 851 1434
Q 1056 1581 1209 1721
Q 1363 1862 1478 2010
Q 1658 2227 1789 2441
Q 1920 2656 2010 2867
Q 2240 3373 2240 3859
Q 2240 3891 2240 3926
Q 2240 3962 2234 3994
Q 2234 4019 2227 4038
L 1466 4051
L 723 4032
L 723 4467
L 2317 4454
L 3910 4474
L 4064 4467
L 4064 4032
L 3942 4026
Q 3789 4026 3641 4032
Q 3494 4038 3354 4045
L 2707 4032
Q 2694 3949 2688 3891
Q 2682 3834 2675 3789
Q 2662 3648 2652 3552
Q 2643 3456 2643 3386
Q 2643 3085 2803 2729
Q 2963 2374 3232 2029
Q 3354 1882 3488 1750
Q 3622 1619 3770 1510
Q 3821 1478 3878 1440
Q 3936 1402 4013 1357
Q 4026 1350 4054 1328
Q 4083 1306 4134 1274
Q 4211 1222 4211 1190
z
" transform="scale(0.015625)"/>
       <path id="AppleGothic-148" d="M 1005 2010
L 378 2010
L 378 2675
L 1005 2675
L 1005 2010
z
" transform="scale(0.015625)"/>
       <path id="AppleGothic-d93" d="M 3008 3091
L 2995 4064
L 2176 4077
L 1344 4058
L 1325 3130
L 1344 2266
L 2995 2291
L 3008 3091
z
M 5587 -435
L 1453 -454
L 1459 198
L 1434 1216
Q 1677 1216 1827 1200
Q 1978 1184 1978 1139
Q 1978 1120 1949 1037
Q 1920 954 1920 883
L 1920 -64
L 3558 -70
Q 3955 -70 4364 -60
Q 4774 -51 5203 -38
Q 5363 -38 5587 -19
L 5587 -435
z
M 5459 5094
Q 5459 5069 5427 4995
Q 5395 4922 5395 4870
L 5408 666
L 4934 653
L 4947 1491
L 4947 2189
L 3757 2170
L 3757 2573
L 4378 2560
L 4947 2579
L 4947 3456
L 3718 3450
L 3718 3866
L 4378 3853
L 4947 3866
Q 4947 3974 4944 4137
Q 4941 4301 4934 4525
Q 4915 4966 4915 5190
L 5030 5190
Q 5216 5190 5337 5171
Q 5459 5152 5459 5094
z
M 3456 1926
L 890 1901
L 902 3104
L 877 4442
L 2061 4429
Q 2406 4429 2774 4435
Q 3142 4442 3456 4454
L 3443 3123
L 3456 1926
z
" transform="scale(0.015625)"/>
       <path id="AppleGothic-1095" d="M 5402 -506
L 4947 -538
L 4954 1203
L 3283 1216
Q 2803 1216 2281 1213
Q 1760 1210 1325 1197
L 1325 1594
Q 1414 1587 1491 1587
Q 1568 1587 1632 1587
Q 2074 1574 2397 1568
Q 2720 1562 2944 1562
L 5402 1587
Q 5395 1440 5392 1213
Q 5389 986 5389 595
L 5402 -506
z
M 3936 2400
Q 3936 2381 3869 2339
Q 3802 2298 3763 2259
L 3603 2106
Q 3546 2138 3491 2173
Q 3437 2208 3392 2240
Q 3117 2438 2810 2771
Q 2598 2995 2451 3296
Q 2426 3347 2397 3411
Q 2368 3475 2336 3558
Q 2298 3469 2266 3392
Q 2234 3315 2202 3258
Q 2010 2912 1702 2586
Q 1568 2451 1417 2323
Q 1267 2195 1101 2074
Q 1043 2029 969 1984
Q 896 1939 794 1882
Q 787 1907 582 2029
Q 390 2150 390 2176
Q 1056 2458 1574 3072
Q 2125 3744 2125 4442
Q 2054 4448 1875 4454
Q 1696 4461 1485 4461
L 762 4442
L 762 4851
Q 947 4832 1286 4819
Q 1626 4806 2118 4806
L 2291 4806
Q 2618 4806 2858 4809
Q 3098 4813 3264 4819
Q 3430 4826 3561 4832
Q 3693 4838 3802 4845
L 3802 4442
L 3219 4454
L 2566 4435
Q 2566 4115 2630 3878
Q 2682 3680 2768 3510
Q 2854 3341 2982 3194
Q 3296 2810 3648 2573
Q 3763 2502 3923 2426
L 3936 2400
z
M 5434 5082
Q 5434 5062 5414 4976
Q 5395 4890 5395 4826
Q 5389 4736 5389 4598
Q 5389 4461 5382 4269
Q 5376 4077 5376 3881
Q 5376 3686 5376 3494
L 5376 2477
Q 5382 2310 5382 2176
Q 5382 2042 5389 1939
L 4947 1914
L 4947 3283
L 4346 3302
L 3706 3283
L 3706 3667
L 4947 3667
L 4947 4762
L 4915 5190
L 5101 5190
Q 5267 5190 5350 5171
Q 5434 5152 5434 5082
z
" transform="scale(0.015625)"/>
       <path id="AppleGothic-ad2" d="M 5338 -307
L 3174 -314
Q 2682 -314 2198 -320
Q 1715 -326 1318 -339
L 1325 992
Q 1325 1139 1321 1200
Q 1318 1261 1306 1312
L 1683 1306
Q 1786 1306 1786 1235
Q 1786 1222 1766 1142
Q 1747 1062 1747 992
L 1747 58
Q 1856 51 1981 51
Q 2106 51 2246 45
L 2694 45
L 5338 70
L 5338 -307
z
M 6010 2394
Q 5862 2400 5753 2403
Q 5645 2406 5555 2406
Q 4890 2426 4717 2426
Q 4339 2426 4041 2419
Q 3744 2413 3456 2394
L 3450 1856
L 3462 678
L 3034 672
L 3034 2387
Q 2803 2400 2512 2406
Q 2221 2413 1914 2413
L 397 2381
L 397 2758
L 2810 2771
L 3834 2771
Q 4000 2778 4163 2781
Q 4326 2784 4480 2790
Q 4493 2861 4505 2925
Q 4518 2989 4531 3040
Q 4595 3379 4640 3686
Q 4685 3994 4723 4384
Q 4730 4435 4733 4499
Q 4736 4563 4749 4634
L 3098 4634
Q 2624 4634 2109 4621
Q 1594 4608 1158 4595
L 1158 4973
L 5222 4998
Q 5222 4806 5196 4524
Q 5171 4243 5120 3859
Q 5011 3078 4922 2797
L 6010 2810
L 6010 2394
z
" transform="scale(0.015625)"/>
       <path id="AppleGothic-10d7" d="M 4762 429
Q 4762 723 4352 883
Q 4122 973 3818 1017
Q 3514 1062 3136 1062
Q 2445 1062 2003 896
Q 1568 723 1568 435
Q 1568 166 1984 19
Q 2400 -128 3130 -128
Q 3437 -128 3683 -105
Q 3930 -83 4134 -38
Q 4762 109 4762 429
z
M 6010 2170
L 4755 2208
L 3373 2208
L 3373 1434
Q 4205 1434 4717 1184
Q 5235 934 5235 435
Q 5235 -26 4675 -259
Q 4115 -493 3136 -493
Q 2214 -493 1677 -269
Q 1101 -26 1101 435
Q 1101 1069 1914 1299
Q 2112 1363 2874 1434
L 2880 2208
L 1786 2208
Q 1446 2208 1075 2195
Q 704 2182 390 2170
L 390 2566
Q 403 2566 524 2563
Q 646 2560 877 2554
Q 1344 2547 1917 2540
Q 2490 2534 3168 2534
Q 3904 2534 4608 2540
Q 5312 2547 6010 2566
L 6010 2170
z
M 5568 3424
Q 5562 3411 5562 3404
Q 5562 3398 5555 3392
Q 5536 3360 5491 3328
Q 5446 3296 5376 3181
Q 5363 3168 5347 3139
Q 5331 3110 5306 3072
Q 5139 3091 5011 3113
Q 4883 3136 4774 3162
Q 4154 3328 3712 3648
Q 3584 3750 3478 3849
Q 3373 3949 3296 4058
Q 3270 4090 3244 4131
Q 3219 4173 3194 4224
Q 3168 4179 3145 4144
Q 3123 4109 3098 4077
Q 2822 3706 2310 3411
Q 1971 3226 1459 3117
Q 1370 3104 1261 3091
Q 1152 3078 1005 3066
Q 973 3098 953 3126
Q 934 3155 922 3174
Q 826 3290 774 3334
Q 755 3347 723 3392
Q 710 3405 704 3424
Q 730 3443 749 3443
L 909 3443
Q 1030 3456 1129 3465
Q 1229 3475 1306 3488
Q 1536 3533 1757 3606
Q 1978 3680 2182 3789
Q 2598 4006 2803 4378
Q 2861 4499 2912 4691
L 2445 4698
L 973 4666
L 973 5075
Q 1094 5069 1190 5069
Q 1286 5069 1370 5069
Q 1920 5056 2313 5049
Q 2707 5043 2950 5043
L 5312 5075
L 5312 4666
L 4307 4691
L 3392 4691
Q 3392 4544 3520 4368
Q 3648 4192 3872 4006
Q 4269 3693 4870 3552
Q 4966 3526 5097 3507
Q 5229 3488 5395 3462
Q 5568 3462 5568 3424
z
" transform="scale(0.015625)"/>
       <path id="AppleGothic-e57" d="M 2963 2157
L 2957 2893
L 954 2893
L 973 1453
L 1952 1434
L 2957 1453
L 2963 2157
z
M 5453 5094
Q 5453 5069 5433 5005
Q 5414 4941 5414 4922
L 5414 4416
Q 5395 2554 5395 2253
Q 5395 1357 5408 681
Q 5421 6 5440 -557
L 4941 -570
Q 4947 -390 4947 -124
Q 4947 141 4954 493
Q 4960 851 4960 1129
Q 4960 1408 4960 1613
L 4960 2266
Q 4960 2554 4957 2822
Q 4954 3091 4947 3354
Q 4941 3622 4937 3884
Q 4934 4147 4934 4416
Q 4928 4947 4915 5190
L 5114 5197
Q 5248 5197 5350 5174
Q 5453 5152 5453 5094
z
M 3450 1043
L 506 1043
L 518 2720
Q 518 3360 512 3757
Q 506 4154 493 4429
L 877 4410
Q 986 4410 986 4333
Q 986 4307 970 4243
Q 954 4179 954 4160
L 954 3296
Q 1114 3290 1344 3286
Q 1574 3283 1971 3283
L 2957 3296
L 2938 4480
L 3194 4486
Q 3322 4486 3386 4467
Q 3450 4448 3450 4390
Q 3450 4371 3437 4313
Q 3424 4256 3424 4230
L 3418 3085
Q 3418 2566 3424 2057
Q 3430 1549 3450 1043
z
" transform="scale(0.015625)"/>
       <path id="AppleGothic-10" d="M 2227 5261
L 2650 5261
Q 2342 4768 2169 4473
Q 1997 4179 1958 4083
Q 1606 3283 1606 2272
Q 1606 1587 1754 1018
Q 1882 570 2138 102
Q 2150 70 2275 -131
Q 2400 -333 2630 -717
L 2227 -717
Q 2099 -531 1980 -355
Q 1862 -179 1734 0
Q 1581 243 1469 483
Q 1357 723 1274 954
Q 1069 1587 1069 2272
Q 1069 2963 1261 3558
Q 1338 3789 1450 4022
Q 1562 4256 1715 4499
Q 1843 4691 1971 4880
Q 2099 5069 2227 5261
z
" transform="scale(0.015625)"/>
       <path id="AppleGothic-d" d="M 4896 -45
Q 4320 -45 3949 339
Q 3590 717 3590 1274
Q 3590 1856 3962 2227
Q 4333 2598 4877 2598
Q 5402 2598 5779 2234
Q 6150 1869 6150 1286
Q 6150 691 5760 307
Q 5389 -45 4896 -45
z
M 4864 378
Q 5024 378 5168 442
Q 5312 506 5421 624
Q 5530 742 5594 905
Q 5658 1069 5658 1267
Q 5658 1658 5427 1920
Q 5190 2176 4883 2176
Q 4582 2176 4352 1958
Q 4090 1696 4090 1286
Q 4090 883 4320 634
Q 4550 378 4864 378
z
M 4557 5370
L 5030 5370
L 2016 -333
L 1549 -333
L 4045 4378
L 4026 4397
Q 3930 4333 3776 4278
Q 3622 4224 3456 4224
Q 3347 4224 3177 4259
Q 3008 4294 2835 4371
Q 2867 4301 2886 4240
Q 2906 4179 2918 4128
Q 2970 3936 2970 3750
Q 2970 3187 2598 2810
Q 2227 2438 1690 2438
Q 1146 2438 781 2810
Q 422 3187 422 3763
Q 422 4339 787 4717
Q 1158 5101 1690 5101
Q 1952 5101 2522 4870
Q 2803 4755 3024 4700
Q 3245 4646 3411 4646
Q 3802 4646 4077 4819
Q 4403 5018 4557 5370
z
M 1683 2854
Q 2003 2854 2240 3110
Q 2470 3366 2470 3770
Q 2470 3974 2406 4144
Q 2342 4314 2236 4432
Q 2131 4550 1990 4614
Q 1850 4678 1690 4678
Q 1530 4678 1392 4614
Q 1254 4550 1148 4432
Q 1043 4314 982 4144
Q 922 3974 922 3770
Q 922 3334 1171 3078
Q 1382 2854 1683 2854
z
" transform="scale(0.015625)"/>
       <path id="AppleGothic-11" d="M 2221 2272
Q 2221 1587 2016 960
Q 1862 499 1555 6
Q 1427 -179 1305 -355
Q 1184 -531 1062 -717
L 659 -717
Q 781 -512 902 -310
Q 1024 -109 1152 96
Q 1280 333 1376 557
Q 1472 781 1530 1005
Q 1683 1562 1683 2272
Q 1683 2650 1641 2973
Q 1600 3296 1517 3584
Q 1459 3802 1356 4029
Q 1254 4256 1120 4499
Q 992 4691 873 4880
Q 755 5069 640 5261
L 1062 5261
Q 1190 5069 1315 4880
Q 1440 4691 1568 4506
Q 1722 4256 1837 4022
Q 1952 3789 2022 3565
Q 2221 2976 2221 2272
z
" transform="scale(0.015625)"/>
      </defs>
      <use xlink:href="#AppleGothic-a7f"/>
      <use xlink:href="#AppleGothic-ced" transform="translate(100 0)"/>
      <use xlink:href="#AppleGothic-a5b" transform="translate(200 0)"/>
      <use xlink:href="#AppleGothic-3" transform="translate(300 0)"/>
      <use xlink:href="#AppleGothic-1070" transform="translate(332 0)"/>
      <use xlink:href="#AppleGothic-fd8" transform="translate(432 0)"/>
      <use xlink:href="#AppleGothic-c2a" transform="translate(532 0)"/>
      <use xlink:href="#AppleGothic-3" transform="translate(632 0)"/>
      <use xlink:href="#AppleGothic-c0e" transform="translate(664 0)"/>
      <use xlink:href="#AppleGothic-10ee" transform="translate(764 0)"/>
      <use xlink:href="#AppleGothic-148" transform="translate(864 0)"/>
      <use xlink:href="#AppleGothic-d93" transform="translate(886.5 0)"/>
      <use xlink:href="#AppleGothic-1095" transform="translate(986.5 0)"/>
      <use xlink:href="#AppleGothic-ad2" transform="translate(1086.5 0)"/>
      <use xlink:href="#AppleGothic-3" transform="translate(1186.5 0)"/>
      <use xlink:href="#AppleGothic-10d7" transform="translate(1218.5 0)"/>
      <use xlink:href="#AppleGothic-3" transform="translate(1318.5 0)"/>
      <use xlink:href="#AppleGothic-e57" transform="translate(1350.5 0)"/>
      <use xlink:href="#AppleGothic-10d7" transform="translate(1450.5 0)"/>
      <use xlink:href="#AppleGothic-3" transform="translate(1550.5 0)"/>
      <use xlink:href="#AppleGothic-10" transform="translate(1582.5 0)"/>
      <use xlink:href="#AppleGothic-d" transform="translate(1632.5 0)"/>
      <use xlink:href="#AppleGothic-11" transform="translate(1732.5 0)"/>
     </g>
    </g>
   </g>
   <g id="matplotlib.axis_2">
    <g id="ytick_1">
     <g id="line2d_6">
      <defs>
       <path id="mf19f75ad5f" d="M 0 0
L -3.5 0
" style="stroke: #000000; stroke-width: 0.8"/>
      </defs>
      <g>
       <use xlink:href="#mf19f75ad5f" x="43.00024" y="87.268944" style="stroke: #000000; stroke-width: 0.8"/>
      </g>
     </g>
     <g id="text_7">
      <!-- 노원구 -->
      <g transform="translate(3.00024 92.169444) scale(0.11 -0.11)">
       <defs>
        <path id="AppleGothic-bbf" d="M 6042 256
Q 6022 256 5916 259
Q 5811 262 5619 269
Q 5427 275 5113 281
Q 4800 288 4378 294
Q 3520 314 3245 314
Q 2842 314 2381 307
Q 1920 301 1382 288
Q 1190 282 937 275
Q 685 269 365 256
L 365 710
Q 672 691 1043 678
Q 1414 666 1760 666
L 2963 672
L 2982 1594
L 2970 2355
Q 2784 2368 2557 2374
Q 2330 2381 2125 2381
Q 1901 2381 1661 2374
Q 1421 2368 1216 2355
L 1229 3418
Q 1229 3859 1219 4185
Q 1210 4512 1203 4717
L 1606 4678
Q 1722 4646 1722 4595
Q 1722 4576 1696 4493
Q 1670 4410 1670 4339
L 1670 2765
L 3219 2746
L 3392 2746
Q 3923 2746 4448 2752
Q 4973 2758 5408 2771
L 5408 2330
Q 5184 2342 4928 2348
Q 4672 2355 4429 2355
L 3430 2355
L 3418 1555
L 3430 666
L 4800 659
Q 5107 659 5433 672
Q 5760 685 6042 704
L 6042 256
z
" transform="scale(0.015625)"/>
        <path id="AppleGothic-1034" d="M 3533 3853
Q 3533 4141 3280 4307
Q 3027 4474 2554 4474
Q 2125 4474 1862 4352
Q 1530 4186 1530 3846
Q 1530 3571 1843 3392
Q 2125 3245 2541 3245
Q 2950 3245 3238 3398
Q 3533 3565 3533 3853
z
M 5600 -371
L 3725 -358
Q 3226 -358 2611 -364
Q 1997 -371 1357 -384
L 1376 448
Q 1376 608 1376 713
Q 1376 819 1370 870
Q 1370 922 1366 970
Q 1363 1018 1357 1062
Q 1510 1062 1696 1043
Q 1875 1024 1875 973
Q 1875 954 1846 877
Q 1818 800 1818 742
L 1818 -6
L 3725 -6
Q 4077 -6 4358 -3
Q 4640 0 4867 6
Q 5094 13 5273 19
Q 5453 26 5600 32
L 5600 -371
z
M 4538 2266
Q 4467 2253 4416 2249
Q 4365 2246 4314 2240
Q 4166 2227 4016 2217
Q 3866 2208 3712 2208
Q 3546 2208 3386 2198
Q 3226 2189 3059 2176
Q 2938 2163 2778 2138
L 2758 1594
L 2758 1126
Q 2765 1018 2778 934
L 2298 915
Q 2298 947 2298 1017
Q 2298 1088 2304 1203
Q 2310 1312 2313 1389
Q 2317 1466 2317 1504
L 2310 2112
Q 2291 2099 1837 2093
Q 1613 2086 1373 2083
Q 1133 2080 883 2080
Q 838 2080 764 2064
Q 691 2048 678 2048
Q 621 2048 608 2138
L 582 2470
Q 678 2477 764 2477
Q 851 2477 922 2477
Q 1408 2490 1801 2496
Q 2195 2502 2502 2502
Q 2867 2502 3225 2518
Q 3584 2534 3949 2566
Q 4070 2579 4211 2595
Q 4352 2611 4518 2637
L 4538 2266
z
M 5440 5094
Q 5440 5082 5437 5069
Q 5434 5056 5427 5030
Q 5395 4915 5395 4851
L 5389 2682
Q 5389 2285 5389 1981
Q 5389 1677 5395 1459
Q 5402 1242 5405 1040
Q 5408 838 5414 646
L 4941 621
L 4947 1466
L 4358 1485
Q 3872 1485 3693 1466
L 3693 1830
L 4371 1818
L 4960 1843
L 4960 3738
Q 4960 4096 4957 4342
Q 4954 4589 4947 4730
Q 4941 4877 4937 4989
Q 4934 5101 4922 5190
L 5030 5190
Q 5216 5190 5328 5174
Q 5440 5158 5440 5094
z
M 4000 3846
Q 4000 3405 3597 3149
Q 3194 2899 2560 2899
Q 1971 2899 1536 3136
Q 1069 3411 1069 3846
Q 1069 4326 1517 4602
Q 1920 4851 2522 4851
Q 3123 4851 3539 4602
Q 4000 4314 4000 3846
z
" transform="scale(0.015625)"/>
        <path id="AppleGothic-ad0" d="M 6048 2202
L 4672 2221
L 3405 2214
L 3398 915
L 3411 -486
L 2925 -518
Q 2938 -186 2944 214
Q 2950 614 2950 986
L 2944 2214
L 1600 2214
L 352 2182
L 352 2618
Q 794 2605 1328 2592
Q 1862 2579 2355 2579
L 2630 2579
L 3866 2579
Q 4141 2586 4346 2598
Q 4371 2701 4390 2774
Q 4410 2848 4422 2906
Q 4550 3360 4576 3469
Q 4640 3738 4730 4160
Q 4742 4224 4758 4304
Q 4774 4384 4794 4474
L 4454 4474
Q 3232 4493 3149 4493
L 1005 4461
L 1005 4890
Q 1331 4877 1740 4870
Q 2150 4864 2605 4864
L 5325 4877
Q 5312 4781 5299 4697
Q 5286 4614 5274 4544
Q 5203 4147 5062 3571
Q 5030 3430 4992 3280
Q 4954 3130 4909 2957
Q 4883 2867 4857 2780
Q 4832 2694 4806 2605
L 6048 2618
L 6048 2202
z
" transform="scale(0.015625)"/>
       </defs>
       <use xlink:href="#AppleGothic-bbf"/>
       <use xlink:href="#AppleGothic-1034" transform="translate(100 0)"/>
       <use xlink:href="#AppleGothic-ad0" transform="translate(200 0)"/>
      </g>
     </g>
    </g>
    <g id="ytick_2">
     <g id="line2d_7">
      <g>
       <use xlink:href="#mf19f75ad5f" x="43.00024" y="178.255704" style="stroke: #000000; stroke-width: 0.8"/>
      </g>
     </g>
     <g id="text_8">
      <!-- 강서구 -->
      <g transform="translate(3.00024 183.156204) scale(0.11 -0.11)">
       <defs>
        <path id="AppleGothic-a67" d="M 4787 518
Q 4787 915 4256 1094
Q 4051 1165 3792 1197
Q 3533 1229 3219 1229
Q 2874 1229 2598 1206
Q 2323 1184 2112 1133
Q 1453 966 1427 595
Q 1427 256 1792 83
Q 2227 -134 3264 -134
Q 3667 -134 3964 -89
Q 4262 -45 4454 58
Q 4787 224 4787 518
z
M 5235 525
Q 5235 -58 4576 -314
Q 4077 -499 3264 -499
L 3091 -499
Q 2221 -499 1658 -262
Q 998 13 998 576
Q 998 1120 1760 1370
Q 2342 1562 3200 1562
Q 4000 1562 4563 1338
Q 5235 1069 5235 525
z
M 3334 4749
Q 3334 4582 3296 4403
Q 3206 3987 3021 3603
Q 2733 3066 2266 2611
Q 2080 2438 1885 2291
Q 1690 2144 1472 2016
Q 1325 1933 1168 1859
Q 1011 1786 826 1722
Q 576 1632 557 1632
L 403 1786
Q 390 1805 358 1827
Q 326 1850 294 1872
Q 262 1894 236 1910
Q 211 1926 211 1939
L 230 1958
Q 333 1978 416 1994
Q 499 2010 570 2035
Q 1357 2291 1971 2848
Q 2368 3219 2598 3661
Q 2746 3949 2861 4384
L 1715 4403
L 506 4397
L 506 4762
L 1504 4749
L 3334 4749
z
M 6048 2784
L 5094 2771
L 5088 1690
L 4666 1638
L 4666 2048
Q 4666 2202 4666 2541
Q 4666 2880 4672 3418
Q 4678 3962 4681 4294
Q 4685 4627 4685 4762
Q 4685 4947 4678 5046
Q 4672 5146 4659 5190
L 4787 5190
Q 4973 5190 5065 5171
Q 5158 5152 5158 5082
Q 5158 5050 5126 4963
Q 5094 4877 5094 4832
L 5069 4045
L 5075 3130
L 5504 3123
L 6048 3142
L 6048 2784
z
" transform="scale(0.015625)"/>
        <path id="AppleGothic-ecf" d="M 5434 5062
Q 5434 5037 5414 4969
Q 5395 4902 5395 4851
L 5376 2790
L 5395 -518
L 4909 -544
L 4934 2618
L 3539 2579
L 3539 3034
L 4928 3034
L 4934 4614
Q 4934 4781 4934 4883
Q 4934 4986 4928 5037
Q 4928 5088 4925 5123
Q 4922 5158 4915 5190
Q 4986 5190 5069 5184
Q 5152 5178 5242 5165
Q 5434 5133 5434 5062
z
M 3859 1178
Q 3859 1152 3808 1120
Q 3712 1056 3712 1056
Q 3661 1005 3565 928
Q 3565 928 3514 890
Q 3411 979 3315 1062
Q 3219 1146 3117 1235
Q 3008 1357 2899 1501
Q 2790 1645 2682 1818
Q 2618 1920 2557 2051
Q 2496 2182 2426 2349
Q 2355 2515 2307 2668
Q 2259 2822 2227 2963
Q 2195 2848 2170 2771
Q 1984 2291 1587 1754
Q 1485 1619 1369 1491
Q 1254 1363 1126 1235
Q 1018 1146 915 1056
Q 813 966 704 877
L 467 1037
L 358 1114
Q 358 1114 320 1139
L 346 1178
Q 378 1178 602 1357
Q 902 1600 1184 1952
Q 1376 2195 1533 2467
Q 1690 2739 1805 3040
Q 1978 3462 2054 4109
Q 2067 4218 2080 4352
Q 2093 4486 2106 4666
Q 2157 4666 2233 4653
Q 2310 4640 2419 4614
Q 2637 4563 2637 4506
Q 2637 4480 2601 4429
Q 2566 4378 2560 4352
Q 2541 4243 2531 4169
Q 2522 4096 2509 4045
Q 2445 3725 2445 3699
L 2554 3213
Q 2598 3040 2668 2838
Q 2739 2637 2844 2422
Q 2950 2208 3104 1981
Q 3258 1754 3469 1536
Q 3539 1466 3632 1382
Q 3725 1299 3846 1203
L 3859 1178
z
" transform="scale(0.015625)"/>
       </defs>
       <use xlink:href="#AppleGothic-a67"/>
       <use xlink:href="#AppleGothic-ecf" transform="translate(100 0)"/>
       <use xlink:href="#AppleGothic-ad0" transform="translate(200 0)"/>
      </g>
     </g>
    </g>
   </g>
   <g id="text_9">
    <!-- 53.8% -->
    <g style="fill: #ffffff" transform="translate(164.054149 90.381944) scale(0.11 -0.11)">
     <defs>
      <path id="AppleGothic-1b" d="M 550 333
L 550 870
Q 883 621 1235 483
Q 1587 346 1971 346
Q 2522 346 2861 666
Q 3219 992 3219 1421
Q 3219 1869 2842 2099
Q 2515 2304 1965 2304
L 992 2304
L 992 2701
L 1658 2701
Q 2298 2701 2662 2928
Q 3027 3155 3027 3584
Q 3027 3936 2752 4173
Q 2458 4429 1978 4429
Q 1786 4429 1597 4393
Q 1408 4358 1222 4282
Q 890 4141 531 3872
L 531 4422
Q 736 4531 912 4608
Q 1088 4685 1254 4736
Q 1626 4858 2022 4858
Q 2650 4858 3066 4531
Q 3488 4211 3488 3642
Q 3488 3168 3168 2861
Q 2976 2675 2643 2554
Q 2874 2522 3053 2448
Q 3232 2374 3366 2266
Q 3718 1971 3718 1434
Q 3718 813 3219 365
Q 2714 -83 1965 -83
Q 1549 -83 1126 70
Q 1024 102 880 166
Q 736 230 550 333
z
" transform="scale(0.015625)"/>
      <path id="AppleGothic-16" d="M 915 -19
Q 762 -19 653 109
Q 544 237 544 422
Q 544 614 656 745
Q 768 877 915 877
Q 1056 877 1168 758
Q 1280 640 1280 435
Q 1280 243 1171 112
Q 1062 -19 915 -19
z
" transform="scale(0.015625)"/>
      <path id="AppleGothic-20" d="M 2957 2605
Q 3219 2528 3404 2445
Q 3590 2362 3706 2272
Q 4192 1926 4192 1370
Q 4192 749 3642 333
Q 3098 -83 2285 -83
Q 1434 -83 947 326
Q 512 691 512 1229
Q 512 1798 998 2125
Q 1146 2227 1341 2304
Q 1536 2381 1779 2451
Q 1574 2534 1430 2617
Q 1286 2701 1197 2784
Q 819 3104 819 3603
Q 819 4173 1261 4512
Q 1702 4858 2381 4858
Q 3014 4858 3437 4570
Q 3898 4262 3898 3738
Q 3898 3373 3670 3081
Q 3443 2790 2957 2605
z
M 2406 2752
Q 2624 2835 2781 2915
Q 2938 2995 3040 3066
Q 3398 3322 3398 3667
Q 3398 3994 3104 4205
Q 2822 4429 2362 4429
Q 1894 4429 1613 4205
Q 1325 3994 1325 3635
Q 1325 3322 1581 3098
Q 1696 3002 1901 2912
Q 2106 2822 2406 2752
z
M 2368 2304
Q 2061 2202 1840 2106
Q 1619 2010 1472 1920
Q 1011 1626 1011 1235
Q 1011 845 1376 595
Q 1728 346 2310 346
Q 2938 346 3315 640
Q 3693 934 3693 1338
Q 3693 1741 3238 1997
Q 3104 2067 2886 2147
Q 2669 2227 2368 2304
z
" transform="scale(0.015625)"/>
     </defs>
     <use xlink:href="#AppleGothic-1d"/>
     <use xlink:href="#AppleGothic-1b" transform="translate(68 0)"/>
     <use xlink:href="#AppleGothic-16" transform="translate(136 0)"/>
     <use xlink:href="#AppleGothic-20" transform="translate(170.5 0)"/>
     <use xlink:href="#AppleGothic-d" transform="translate(238.5 0)"/>
    </g>
   </g>
   <g id="text_10">
    <!-- 46.2% -->
    <g style="fill: #203042" transform="translate(423.443909 90.381944) scale(0.11 -0.11)">
     <defs>
      <path id="AppleGothic-1c" d="M 2662 4774
L 3130 4774
L 3130 1811
L 4000 1811
L 4000 1382
L 3130 1382
L 3130 0
L 2662 0
L 2662 1382
L 352 1382
L 352 1811
L 2662 4774
z
M 2662 1811
L 2662 4166
L 838 1811
L 2662 1811
z
" transform="scale(0.015625)"/>
      <path id="AppleGothic-1e" d="M 3699 4557
L 3699 4013
Q 3584 4102 3475 4163
Q 3366 4224 3258 4275
Q 3085 4358 2918 4393
Q 2752 4429 2586 4429
Q 2470 4429 2352 4409
Q 2234 4390 2118 4339
Q 1670 4154 1395 3738
Q 1011 3149 1011 2189
Q 1312 2490 1568 2656
Q 2022 2931 2534 2931
Q 3162 2931 3584 2566
Q 4038 2163 4038 1491
Q 4038 806 3558 358
Q 3078 -83 2394 -83
Q 1670 -83 1146 454
Q 518 1088 518 2253
Q 518 3411 1120 4134
Q 1715 4858 2605 4858
Q 2938 4858 3226 4762
Q 3309 4730 3427 4682
Q 3546 4634 3699 4557
z
M 1062 1702
Q 1152 1152 1498 768
Q 1882 346 2419 346
Q 2899 346 3213 659
Q 3539 973 3539 1459
Q 3539 1920 3226 2214
Q 2918 2502 2496 2502
Q 1990 2502 1542 2176
Q 1414 2080 1292 1965
Q 1171 1850 1062 1702
z
" transform="scale(0.015625)"/>
     </defs>
     <use xlink:href="#AppleGothic-1c"/>
     <use xlink:href="#AppleGothic-1e" transform="translate(68 0)"/>
     <use xlink:href="#AppleGothic-16" transform="translate(136 0)"/>
     <use xlink:href="#AppleGothic-1a" transform="translate(170.5 0)"/>
     <use xlink:href="#AppleGothic-d" transform="translate(238.5 0)"/>
    </g>
   </g>
   <g id="text_11">
    <!-- 69.8% -->
    <g style="fill: #ffffff" transform="translate(205.35234 181.368704) scale(0.11 -0.11)">
     <defs>
      <path id="AppleGothic-21" d="M 928 211
L 928 762
Q 1050 672 1155 601
Q 1261 531 1363 480
Q 1702 320 2016 320
Q 2291 320 2541 435
Q 2739 525 2908 675
Q 3078 826 3213 1037
Q 3456 1408 3552 1843
Q 3616 2144 3616 2573
Q 3315 2272 3066 2125
Q 2605 1850 2093 1850
Q 1459 1850 1037 2214
Q 589 2598 589 3270
Q 589 3987 1082 4416
Q 1549 4832 2234 4832
Q 2970 4832 3494 4301
Q 4122 3661 4122 2528
Q 4122 1325 3475 582
Q 2874 -109 2035 -109
Q 1722 -109 1357 19
Q 1254 51 1148 102
Q 1043 154 928 211
z
M 3578 3066
Q 3462 3718 3053 4077
Q 2675 4403 2227 4403
Q 1715 4403 1402 4083
Q 1082 3750 1082 3302
Q 1082 2861 1370 2566
Q 1658 2278 2125 2278
Q 2573 2278 2915 2473
Q 3258 2669 3578 3066
z
" transform="scale(0.015625)"/>
     </defs>
     <use xlink:href="#AppleGothic-1e"/>
     <use xlink:href="#AppleGothic-21" transform="translate(68 0)"/>
     <use xlink:href="#AppleGothic-16" transform="translate(136 0)"/>
     <use xlink:href="#AppleGothic-20" transform="translate(170.5 0)"/>
     <use xlink:href="#AppleGothic-d" transform="translate(238.5 0)"/>
    </g>
   </g>
   <g id="text_12">
    <!-- 30.2% -->
    <g style="fill: #203042" transform="translate(464.7421 181.368704) scale(0.11 -0.11)">
     <use xlink:href="#AppleGothic-1b"/>
     <use xlink:href="#AppleGothic-18" transform="translate(68 0)"/>
     <use xlink:href="#AppleGothic-16" transform="translate(136 0)"/>
     <use xlink:href="#AppleGothic-1a" transform="translate(170.5 0)"/>
     <use xlink:href="#AppleGothic-d" transform="translate(238.5 0)"/>
    </g>
   </g>
   <g id="legend_1">
    <g id="patch_7">
     <path d="M 229.35 17.200179
L 251.35 17.200179
L 251.35 9.500179
L 229.35 9.500179
z
" style="fill: #103d68; stroke: #103d68; stroke-linejoin: miter"/>
    </g>
    <g id="text_13">
     <!-- 1건 -->
     <g transform="translate(260.15 17.200179) scale(0.11 -0.11)">
      <defs>
       <path id="AppleGothic-a81" d="M 5581 -371
L 3462 -384
Q 2893 -384 2329 -393
Q 1766 -403 1306 -416
L 1299 896
Q 1299 1043 1296 1104
Q 1293 1165 1280 1235
Q 1491 1235 1619 1216
Q 1747 1197 1747 1158
Q 1734 1101 1721 1056
Q 1709 1011 1709 954
L 1709 -38
L 1984 -38
Q 2624 -38 3200 -19
Q 3494 -13 3814 -6
Q 4134 0 4493 6
Q 5210 26 5581 26
L 5581 -371
z
M 3398 4653
Q 3386 4563 3379 4476
Q 3373 4390 3360 4301
Q 3328 4077 3267 3872
Q 3206 3667 3123 3475
Q 2893 2931 2502 2522
Q 2163 2163 1702 1869
Q 1376 1670 998 1498
Q 730 1382 704 1382
L 410 1728
L 422 1741
Q 1242 1882 2048 2650
Q 2906 3469 2906 4256
Q 2835 4256 2691 4256
Q 2547 4256 2330 4250
Q 2112 4243 1977 4243
Q 1843 4243 1786 4243
L 634 4224
L 634 4640
L 1408 4634
L 3398 4653
z
M 5402 5094
Q 5402 5043 5395 5024
Q 5363 4877 5363 4864
L 5376 1408
Q 5376 1197 5379 1097
Q 5382 998 5395 909
L 4973 883
L 4973 2810
L 4358 2816
Q 4186 2816 3990 2813
Q 3795 2810 3629 2797
L 3629 3194
L 4333 3181
Q 4538 3181 4691 3193
Q 4845 3206 4973 3226
Q 4960 3533 4954 3718
Q 4941 4070 4937 4336
Q 4934 4602 4934 4781
L 4915 5190
L 5267 5178
Q 5402 5178 5402 5094
z
" transform="scale(0.015625)"/>
      </defs>
      <use xlink:href="#AppleGothic-19"/>
      <use xlink:href="#AppleGothic-a81" transform="translate(68 0)"/>
     </g>
    </g>
    <g id="patch_8">
     <path d="M 300.63 17.200179
L 322.63 17.200179
L 322.63 9.500179
L 300.63 9.500179
z
" style="fill: #dce9e8; stroke: #dce9e8; stroke-linejoin: miter"/>
    </g>
    <g id="text_14">
     <!-- 2건 이상 -->
     <g transform="translate(331.43 17.200179) scale(0.11 -0.11)">
      <defs>
       <path id="AppleGothic-1066" d="M 3226 2534
Q 3226 3309 2899 3725
Q 2611 4090 2157 4090
Q 1683 4090 1414 3690
Q 1146 3290 1146 2534
Q 1146 1811 1440 1382
Q 1741 954 2240 954
Q 2758 954 3021 1446
Q 3226 1856 3226 2534
z
M 5446 5082
Q 5446 5062 5427 4982
Q 5408 4902 5408 4832
L 5434 -538
L 4941 -589
L 4960 2259
Q 4960 3552 4941 4070
Q 4934 4326 4931 4604
Q 4928 4883 4915 5190
L 5094 5197
Q 5242 5197 5344 5174
Q 5446 5152 5446 5082
z
M 3686 2547
Q 3686 2125 3612 1785
Q 3539 1446 3379 1203
Q 2995 582 2176 582
Q 1408 582 1018 1203
Q 678 1734 678 2560
Q 678 3379 1050 3898
Q 1453 4461 2170 4461
Q 2912 4461 3309 3910
Q 3686 3411 3686 2547
z
" transform="scale(0.015625)"/>
       <path id="AppleGothic-eb7" d="M 5312 538
Q 5312 -26 4698 -237
Q 4237 -403 3264 -403
Q 2381 -403 1837 -173
Q 1235 77 1235 538
Q 1235 1120 1843 1363
Q 2074 1453 2426 1497
Q 2778 1542 3258 1542
Q 3686 1542 4019 1500
Q 4352 1459 4595 1382
Q 5312 1146 5312 538
z
M 3942 2413
Q 3942 2394 3866 2330
Q 3648 2170 3635 2144
Q 3546 2195 3469 2240
Q 3392 2285 3334 2323
Q 2970 2566 2717 2848
Q 2464 3130 2278 3456
Q 2253 3507 2221 3574
Q 2189 3642 2144 3731
Q 2093 3616 2051 3517
Q 2010 3418 1971 3341
Q 1843 3117 1692 2918
Q 1542 2720 1357 2534
Q 1229 2406 1094 2297
Q 960 2189 819 2086
Q 768 2054 713 2019
Q 659 1984 589 1939
Q 538 1965 416 2042
Q 365 2093 291 2125
Q 218 2157 218 2176
L 230 2202
Q 307 2246 364 2278
Q 422 2310 474 2342
Q 762 2534 1014 2777
Q 1267 3021 1472 3322
Q 1613 3514 1709 3718
Q 1805 3923 1869 4141
Q 1952 4435 1952 4736
L 1946 4909
Q 2016 4909 2099 4902
Q 2182 4896 2278 4883
Q 2477 4858 2477 4794
Q 2477 4774 2419 4713
Q 2362 4653 2362 4506
Q 2362 4371 2403 4211
Q 2445 4051 2573 3770
Q 2746 3386 3091 3040
Q 3213 2918 3353 2809
Q 3494 2701 3661 2592
Q 3910 2438 3930 2438
L 3942 2413
z
M 6010 2784
L 5933 2784
Q 5606 2803 5530 2803
L 5114 2771
L 5107 2342
Q 5107 2080 5110 1949
Q 5114 1818 5120 1734
L 4653 1722
Q 4666 1914 4672 2272
Q 4678 2630 4678 3046
Q 4678 3482 4678 3808
Q 4678 4134 4672 4358
Q 4672 4582 4669 4790
Q 4666 4998 4659 5190
L 4730 5190
Q 4915 5190 5046 5171
Q 5178 5152 5178 5094
Q 5158 5030 5139 4969
Q 5120 4909 5120 4845
L 5107 4294
L 5120 3162
L 5504 3149
Q 5690 3149 5814 3155
Q 5939 3162 6010 3174
L 6010 2784
z
M 4858 544
Q 4858 928 4333 1094
Q 4141 1158 3872 1184
Q 3603 1210 3258 1210
Q 2464 1210 2118 1088
Q 1683 928 1683 544
Q 1715 282 2121 122
Q 2528 -38 3270 -38
Q 4058 -38 4416 70
Q 4858 192 4858 544
z
" transform="scale(0.015625)"/>
      </defs>
      <use xlink:href="#AppleGothic-1a"/>
      <use xlink:href="#AppleGothic-a81" transform="translate(68 0)"/>
      <use xlink:href="#AppleGothic-3" transform="translate(168 0)"/>
      <use xlink:href="#AppleGothic-1066" transform="translate(200 0)"/>
      <use xlink:href="#AppleGothic-eb7" transform="translate(300 0)"/>
     </g>
    </g>
   </g>
  </g>
 </g>
 <defs>
  <clipPath id="p5c46b81c9a">
   <rect x="43.00024" y="32.676888" width="518.77952" height="200.170872"/>
  </clipPath>
 </defs>
</svg>
